<?xml version="1.0" encoding="UTF-8"?>
<svg id="_레이어_2" data-name="레이어 2" xmlns="http://www.w3.org/2000/svg" xmlns:xlink="http://www.w3.org/1999/xlink" viewBox="0 0 219.5 256.1">
  <defs>
    <style>
      .cls-1 {
        font-family: NanumSquareEB, NanumSquare;
        font-size: 21.3px;
      }

      .cls-2 {
        fill: #d0ecf2;
      }

      .cls-3 {
        fill: #f7931e;
      }

      .cls-4 {
        opacity: .3;
      }

      .cls-5 {
        opacity: .2;
      }

      .cls-6 {
        fill: #999;
      }

      .cls-7 {
        fill: #ccc;
      }

      .cls-8 {
        fill: #fbb03b;
      }

      .cls-9 {
        fill: #5ba5bd;
      }
    </style>
  </defs>
  <g id="_레이어_1-2" data-name="레이어 1">
    <g>
      <g>
        <g>
          <path d="m194.3,17c7.3,0,13.2,5.9,13.2,13.2v88.2c0,7.3-5.9,13.2-13.2,13.2H25.2c-7.3,0-13.2-5.9-13.2-13.2V30.2c0-7.3,5.9-13.2,13.2-13.2h169.2m0-12H25.2C11.3,5,0,16.3,0,30.2v88.2c0,13.9,11.3,25.2,25.2,25.2h169.2c13.9,0,25.2-11.3,25.2-25.2V30.2c0-13.9-11.3-25.2-25.2-25.2h0Z"/>
          <path d="m194.3,16c7.3,0,13.2,5.9,13.2,13.2v88.2c0,7.3-5.9,13.2-13.2,13.2H25.2c-7.3,0-13.2-5.9-13.2-13.2V29.2c0-7.3,5.9-13.2,13.2-13.2h169.2m0-12H25.2C11.3,4,0,15.3,0,29.2v88.2c0,13.9,11.3,25.2,25.2,25.2h169.2c13.9,0,25.2-11.3,25.2-25.2V29.2c0-13.9-11.3-25.2-25.2-25.2h0Z"/>
          <path d="m194.3,15c7.3,0,13.2,5.9,13.2,13.2v88.2c0,7.3-5.9,13.2-13.2,13.2H25.2c-7.3,0-13.2-5.9-13.2-13.2V28.2c0-7.3,5.9-13.2,13.2-13.2h169.2m0-12H25.2C11.3,3,0,14.3,0,28.2v88.2c0,13.9,11.3,25.2,25.2,25.2h169.2c13.9,0,25.2-11.3,25.2-25.2V28.2c0-13.9-11.3-25.2-25.2-25.2h0Z"/>
          <path d="m194.3,14c7.3,0,13.2,5.9,13.2,13.2v88.2c0,7.3-5.9,13.2-13.2,13.2H25.2c-7.3,0-13.2-5.9-13.2-13.2V27.2c0-7.3,5.9-13.2,13.2-13.2h169.2m0-12H25.2C11.3,2,0,13.3,0,27.2v88.2c0,13.9,11.3,25.2,25.2,25.2h169.2c13.9,0,25.2-11.3,25.2-25.2V27.2c0-13.9-11.3-25.2-25.2-25.2h0Z"/>
          <path d="m194.3,13c7.3,0,13.2,5.9,13.2,13.2v88.2c0,7.3-5.9,13.2-13.2,13.2H25.2c-7.3,0-13.2-5.9-13.2-13.2V26.2c0-7.3,5.9-13.2,13.2-13.2h169.2m0-12H25.2C11.3,1,0,12.3,0,26.2v88.2c0,13.9,11.3,25.2,25.2,25.2h169.2c13.9,0,25.2-11.3,25.2-25.2V26.2c0-13.9-11.3-25.2-25.2-25.2h0Z"/>
          <path d="m194.3,12c7.3,0,13.2,5.9,13.2,13.2v88.2c0,7.3-5.9,13.2-13.2,13.2H25.2c-7.3,0-13.2-5.9-13.2-13.2V25.2c0-7.3,5.9-13.2,13.2-13.2h169.2m0-12H25.2C11.3,0,0,11.3,0,25.2v88.2c0,13.9,11.3,25.2,25.2,25.2h169.2c13.9,0,25.2-11.3,25.2-25.2V25.2c0-13.9-11.3-25.2-25.2-25.2h0Z"/>
        </g>
        <path d="m194.3,12c7.3,0,13.2,5.9,13.2,13.2v88.2c0,7.3-5.9,13.2-13.2,13.2H25.2c-7.3,0-13.2-5.9-13.2-13.2V25.2c0-7.3,5.9-13.2,13.2-13.2h169.2m0-12H25.2C11.3,0,0,11.3,0,25.2v88.2c0,13.9,11.3,25.2,25.2,25.2h169.2c13.9,0,25.2-11.3,25.2-25.2V25.2c0-13.9-11.3-25.2-25.2-25.2h0Z"/>
        <rect class="cls-7" x="12" y="12" width="195.5" height="114.5" rx="13.2" ry="13.2"/>
      </g>
      <g>
        <g>
          <path d="m177.8,90.2c3.1,0,5.7,2.5,5.7,5.7v16.6c0,3.1-2.5,5.7-5.7,5.7H41.7c-3.1,0-5.7-2.5-5.7-5.7v-16.6c0-3.1,2.5-5.7,5.7-5.7h136.1m0-8H41.7c-7.5,0-13.7,6.1-13.7,13.7v16.6c0,7.5,6.1,13.7,13.7,13.7h136.1c7.5,0,13.7-6.1,13.7-13.7v-16.6c0-7.5-6.1-13.7-13.7-13.7h0Z"/>
          <path d="m177.8,89.2c3.1,0,5.7,2.5,5.7,5.7v16.6c0,3.1-2.5,5.7-5.7,5.7H41.7c-3.1,0-5.7-2.5-5.7-5.7v-16.6c0-3.1,2.5-5.7,5.7-5.7h136.1m0-8H41.7c-7.5,0-13.7,6.1-13.7,13.7v16.6c0,7.5,6.1,13.7,13.7,13.7h136.1c7.5,0,13.7-6.1,13.7-13.7v-16.6c0-7.5-6.1-13.7-13.7-13.7h0Z"/>
          <path d="m177.8,88.2c3.1,0,5.7,2.5,5.7,5.7v16.6c0,3.1-2.5,5.7-5.7,5.7H41.7c-3.1,0-5.7-2.5-5.7-5.7v-16.6c0-3.1,2.5-5.7,5.7-5.7h136.1m0-8H41.7c-7.5,0-13.7,6.1-13.7,13.7v16.6c0,7.5,6.1,13.7,13.7,13.7h136.1c7.5,0,13.7-6.1,13.7-13.7v-16.6c0-7.5-6.1-13.7-13.7-13.7h0Z"/>
          <path d="m177.8,87.2c3.1,0,5.7,2.5,5.7,5.7v16.6c0,3.1-2.5,5.7-5.7,5.7H41.7c-3.1,0-5.7-2.5-5.7-5.7v-16.6c0-3.1,2.5-5.7,5.7-5.7h136.1m0-8H41.7c-7.5,0-13.7,6.1-13.7,13.7v16.6c0,7.5,6.1,13.7,13.7,13.7h136.1c7.5,0,13.7-6.1,13.7-13.7v-16.6c0-7.5-6.1-13.7-13.7-13.7h0Z"/>
          <path d="m177.8,86.2c3.1,0,5.7,2.5,5.7,5.7v16.6c0,3.1-2.5,5.7-5.7,5.7H41.7c-3.1,0-5.7-2.5-5.7-5.7v-16.6c0-3.1,2.5-5.7,5.7-5.7h136.1m0-8H41.7c-7.5,0-13.7,6.1-13.7,13.7v16.6c0,7.5,6.1,13.7,13.7,13.7h136.1c7.5,0,13.7-6.1,13.7-13.7v-16.6c0-7.5-6.1-13.7-13.7-13.7h0Z"/>
          <path d="m177.8,85.2c3.1,0,5.7,2.5,5.7,5.7v16.6c0,3.1-2.5,5.7-5.7,5.7H41.7c-3.1,0-5.7-2.5-5.7-5.7v-16.6c0-3.1,2.5-5.7,5.7-5.7h136.1m0-8H41.7c-7.5,0-13.7,6.1-13.7,13.7v16.6c0,7.5,6.1,13.7,13.7,13.7h136.1c7.5,0,13.7-6.1,13.7-13.7v-16.6c0-7.5-6.1-13.7-13.7-13.7h0Z"/>
        </g>
        <path d="m177.8,85.2c3.1,0,5.7,2.5,5.7,5.7v16.6c0,3.1-2.5,5.7-5.7,5.7H41.7c-3.1,0-5.7-2.5-5.7-5.7v-16.6c0-3.1,2.5-5.7,5.7-5.7h136.1m0-8H41.7c-7.5,0-13.7,6.1-13.7,13.7v16.6c0,7.5,6.1,13.7,13.7,13.7h136.1c7.5,0,13.7-6.1,13.7-13.7v-16.6c0-7.5-6.1-13.7-13.7-13.7h0Z"/>
        <rect class="cls-6" x="36.1" y="85.2" width="147.4" height="27.9" rx="5.7" ry="5.7"/>
      </g>
      <rect x="40.6" y="95" width="138.4" height="8.3" rx="4.1" ry="4.1"/>
      <text class="cls-1" transform="translate(56.1 52.7)"><tspan x="0" y="0">카드 넣는 곳</tspan></text>
      <g>
        <g>
          <path class="cls-9" d="m51,240V105c0-4,4.2-7.3,9.3-7.3h97.9c5.1,0,9.3,3.3,9.3,7.3v135c0,4-4.2,7.3-9.3,7.3H60.3c-5.1,0-9.3-3.3-9.3-7.3Z"/>
          <g class="cls-5">
            <image width="681" height="445" transform="translate(178.7 88.9) rotate(90) scale(.2 .3)" xlink:href="cardInsert1.png"/>
          </g>
        </g>
        <g>
          <path class="cls-8" d="m121.1,116.4c0-2,2.3-3.6,5.1-3.6h22.5c2.8,0,5.1,1.6,5.1,3.6v26.1c0,2-2.3,3.6-5.1,3.6h-22.5c-2.8,0-5.1-1.6-5.1-3.6v-26.1Z"/>
          <path class="cls-3" d="m152.8,142.5c0,1.6-1.9,3-4.2,3h-22.5c-2.3,0-4.2-1.3-4.2-3v-26.1c0-1.6,1.9-3,4.2-3h22.5c2.3,0,4.2,1.3,4.2,3v26.1m1.9,0v-26.1c0-2.4-2.7-4.3-6-4.3h-22.5c-3.3,0-6,1.9-6,4.3v26.1c0,2.4,2.7,4.3,6,4.3h22.5c3.3,0,6-1.9,6-4.3h0Z"/>
        </g>
        <g>
          <path class="cls-2" d="m102.5,113.3c3,0,5.2,1.6,5.2,3.8s-1.6,3.3-4,3.7v-1.9c1-.3,1.7-.9,1.7-1.8s-1.2-2-2.9-2c-1.7,0-2.9.8-2.9,2s.7,1.6,1.7,1.8v1.9c-2.4-.4-4-1.8-4-3.7s2.2-3.8,5.2-3.8Z"/>
          <path class="cls-2" d="m107.5,121.9v2.9c0,1.9-1.4,2.7-3.4,2.7-1.4,0-2.6-.4-3.1-1.3l-3.5,1.6v-2.1s3.1-1.3,3.1-1.3v-.8s-3.1,0-3.1,0v-1.8h10Zm-4.6,2.9c0,.7.5.9,1.1.9s1.1-.2,1.1-.9v-1.1s-2.3,0-2.3,0v1.1Z"/>
          <path class="cls-2" d="m107.5,128.7v5.3h-2.3v-3.5s-1.6,0-1.6,0v2.9h-2v-2.9s-1.8,0-1.8,0v3.5h-2.3v-5.3h10Z"/>
          <path class="cls-2" d="m107.5,135.2v2.5c0,2.5-2,3.8-5,3.8s-5-1.3-5-3.8v-2.5h10Zm-7.7,2.5c0,1.4,1,2,2.7,2,1.7,0,2.7-.6,2.7-2v-.8s-5.4,0-5.4,0v.8Z"/>
          <path class="cls-2" d="m107.5,142.6v1.8h-10v-1.8h10Z"/>
          <path class="cls-2" d="m105.2,147.3v-1.9h2.3v5.7h-2.3v-2s-7.7,0-7.7,0v-1.8h7.7Z"/>
          <path class="cls-2" d="m102.5,154.6c3,0,5.2,1.6,5.2,3.8,0,1.9-1.6,3.3-4,3.7v-1.9c1-.3,1.7-.9,1.7-1.8s-1.2-2-2.9-2c-1.7,0-2.9.8-2.9,2s.7,1.6,1.7,1.8v1.9c-2.4-.4-4-1.8-4-3.7,0-2.2,2.2-3.8,5.2-3.8Z"/>
          <path class="cls-2" d="m103.3,163c2.7,0,4.4,1.1,4.4,3.1s-1.7,3.2-4.4,3.2h-5.8v-1.8h2.8s0-2.8,0-2.8h-2.8v-1.7h5.8Zm-.8,4.5h.8c1.4,0,2.1-.4,2.1-1.4s-.7-1.4-2.1-1.4h-.8s0,2.8,0,2.8Z"/>
          <path class="cls-2" d="m107.5,170.6v2.9c0,1.9-1.4,2.7-3.4,2.7-1.4,0-2.6-.4-3.1-1.3l-3.5,1.6v-2.1s3.1-1.3,3.1-1.3v-.8s-3.1,0-3.1,0v-1.8h10Zm-4.6,2.9c0,.7.5.9,1.1.9s1.1-.2,1.1-.9v-1.1s-2.3,0-2.3,0v1.1Z"/>
          <path class="cls-2" d="m107.5,177.4v2.5c0,2.5-2,3.8-5,3.8-3,0-5-1.3-5-3.8v-2.5h10Zm-7.7,2.5c0,1.4,1,2,2.7,2,1.7,0,2.7-.6,2.7-2v-.8s-5.4,0-5.4,0v.8Z"/>
        </g>
        <path class="cls-2" d="m83.5,162.4v-23.4c0-.4.4-.7.9-.7s.9.3.9.7v23.4c0,.4-.4.7-.9.7s-.9-.3-.9-.7Z"/>
        <path class="cls-2" d="m83.5,222.2v-23.4c0-.4.4-.7.9-.7s.9.3.9.7v23.4c0,.4-.4.7-.9.7s-.9-.3-.9-.7Z"/>
        <path class="cls-2" d="m83.5,192.3v-23.4c0-.4.4-.7.9-.7s.9.3.9.7v23.4c0,.4-.4.7-.9.7s-.9-.3-.9-.7Z"/>
        <path class="cls-2" d="m73,192.3v-23.4c0-.4.4-.7.9-.7s.9.3.9.7v23.4c0,.4-.4.7-.9.7s-.9-.3-.9-.7Z"/>
        <path class="cls-2" d="m83.5,132.5v-19.4c0-.4.4-.7.9-.7s.9.3.9.7v19.4c0,.4-.4.7-.9.7s-.9-.3-.9-.7Z"/>
        <path class="cls-2" d="m73.2,222.2v-23.4c0-.4.4-.7.9-.7s.9.3.9.7v23.4c0,.4-.4.7-.9.7s-.9-.3-.9-.7Z"/>
        <path class="cls-2" d="m73.2,132.5v-19.4c0-.4.4-.7.9-.7s.9.3.9.7v19.4c0,.4-.4.7-.9.7s-.9-.3-.9-.7Z"/>
        <path class="cls-2" d="m62.9,192.2v-79.1c0-.4.4-.7.9-.7s.9.3.9.7v79.1c0,.4-.4.7-.9.7s-.9-.3-.9-.7Z"/>
        <rect class="cls-3" x="122.1" y="122.7" width="30.5" height="1.3"/>
        <rect class="cls-3" x="122.1" y="134.6" width="30.5" height="1.3"/>
        <rect class="cls-3" x="136.5" y="135.3" width="1.9" height="10.2"/>
        <rect class="cls-3" x="136.5" y="113.1" width="1.9" height="10.2"/>
      </g>
      <g class="cls-4">
        <rect x="40.6" y="95" width="138.4" height="8.3" rx="4.1" ry="4.1"/>
      </g>
    </g>
  </g>
</svg>