<?xml version="1.0" encoding="UTF-8"?>
<svg id="_레이어_2" data-name="레이어 2" xmlns="http://www.w3.org/2000/svg" viewBox="0 0 75.1 50.1">
  <defs>
    <style>
      .cls-1 {
        fill: #1d0600;
      }

      .cls-2 {
        fill-rule: evenodd;
      }
    </style>
  </defs>
  <g id="_레이어_1-2" data-name="레이어 1">
    <g>
      <path class="cls-1" d="m6.3,6h0,62.5c0,.1,0,.1.2.2,0,0,0,.1,0,.2v37.5c0,.1-.2.2-.3.2H6.2c0-.1,0-.1-.2-.2,0,0,0-.1,0-.2V6.2c0-.1.2-.2.3-.2m0-6C2.9,0,0,2.8,0,6.2v37.5c0,3.5,2.7,6.3,6.2,6.3h62.5c0,.1,0,.1,0,.1,3.4,0,6.2-2.8,6.2-6.2V6.4c0-3.4-2.7-6.3-6.2-6.3H6.3c0-.1,0-.1,0-.1h0Z"/>
      <path class="cls-2" d="m37.8,9.7c8.6,0,15.6,7,15.6,15.6s-7,15.6-15.6,15.6-15.6-7-15.6-15.6,7-15.6,15.6-15.6Zm0,1.3c7.9,0,14.3,6.4,14.3,14.3s-6.4,14.3-14.3,14.3-14.3-6.4-14.3-14.3,6.4-14.3,14.3-14.3Zm-4.6,23.5h-1.5c-.4,0-.8-.3-.8-.8v-.8c-.4,0-.8-.2-1.1-.4-.3-.3-.4-.7-.4-1.1v-6.1c-.4,0-.8-.3-.8-.8v-2.3c0-.4.3-.8.8-.8v-3c0-1.3,1-2.3,2.3-2.3h12.2c1.3,0,2.3,1,2.3,2.3v3c.4,0,.8.3.8.8v2.3c0,.4-.3.8-.8.8v6.1c0,.4-.2.8-.4,1.1-.3.3-.7.4-1.1.4v.8c0,.4-.3.8-.8.8h-1.5c-.4,0-.8-.3-.8-.8v-.8h-7.6v.8c0,.4-.3.8-.8.8Zm-1.1-5.3c.6,0,1.1.5,1.1,1.1s-.5,1.1-1.1,1.1-1.1-.5-1.1-1.1.5-1.1,1.1-1.1Zm11.4,0c.6,0,1.1.5,1.1,1.1s-.5,1.1-1.1,1.1-1.1-.5-1.1-1.1.5-1.1,1.1-1.1Zm-3.8.8h-3.8c-.2,0-.4.2-.4.4s.2.4.4.4h3.8c.2,0,.4-.2.4-.4s-.2-.4-.4-.4Zm4.9-9.5c0-.2-.2-.4-.4-.4h-12.9c-.2,0-.4.2-.4.4v6.5s2.4.8,6.8.8,6.8-.8,6.8-.8v-6.5Zm-3.8-2.7h-6.1v.8h6.1v-.8Z"/>
    </g>
  </g>
</svg>