<?xml version="1.0" encoding="UTF-8"?>
<svg id="_레이어_2" data-name="레이어 2" xmlns="http://www.w3.org/2000/svg" viewBox="0 0 51.1 57.7">
  <defs>
    <style>
      .cls-1 {
        fill: #fff;
      }

      .cls-2 {
        fill: #1d0600;
      }
    </style>
  </defs>
  <g id="_레이어_1-2" data-name="레이어 1">
    <g>
      <path class="cls-2" d="m33.6,6.1v45.6c0,.7-.5,1.2-1.2,1.2H6.1c-.7,0-1.2-.5-1.2-1.2V6.1c0-.7.5-1.2,1.2-1.2h26.3c.7,0,1.2.5,1.2,1.2Zm0-6.1H4.8C2.1,0,0,2.1,0,4.8v48.1c0,2.7,2.1,4.8,4.8,4.8h28.9c2.7,0,4.8-2.1,4.8-4.8V4.8c0-2.7-2.1-4.8-4.8-4.8ZM15.8,7.5h6.8c.6,0,1.2.4,1.2,1s-.5,1.3-1.1,1.3h-6.8c-.6,0-1.2-.4-1.2-1s.5-1.2,1.1-1.2Zm3.4,43.7c-1.7,0-3.1-1.4-3.1-3.1s1.4-3.1,3.1-3.1,3.1,1.4,3.1,3.1-1.4,3.1-3.1,3.1Zm12.1-7.8H7.2V12.1h24.1v31.3Z"/>
      <circle class="cls-1" cx="39" cy="34.3" r="9.3"/>
      <path d="m39,46.4c-6.7,0-12.1-5.4-12.1-12.1s5.4-12.1,12.1-12.1,12.1,5.4,12.1,12.1-5.4,12.1-12.1,12.1Zm0-21.3c-5.1,0-9.2,4.1-9.2,9.2s4.1,9.2,9.2,9.2,9.2-4.1,9.2-9.2-4.1-9.2-9.2-9.2Z"/>
      <path d="m32,37.8v-6.9h1.1v6.9h-1.1Zm2.3,0v-6.9h1.1v6.9h-1.1Zm2.3,0v-6.9h.6v6.9h-.6Zm4.6,0v-6.9h.6v6.9h-.6Zm-2.9,0v-6.9h1.7v6.9h-1.7Zm4.6,0v-6.9h1.1v6.9h-1.1Zm2.6,0v-6.9h.6v6.9h-.6Z"/>
    </g>
  </g>
</svg>