<?xml version="1.0" encoding="UTF-8"?>
<svg id="_레이어_2" data-name="레이어 2" xmlns="http://www.w3.org/2000/svg" viewBox="0 0 63.9 53.9">
  <g id="_레이어_1-2" data-name="레이어 1">
    <g>
      <path d="m31.7,24.2h-10.1v5.4h7c.8-2,1.9-3.8,3.2-5.4Z"/>
      <rect y="48.5" width="18.9" height="5.4"/>
      <path d="m27.1,40.4h-5.6v5.4h7c-.7-1.7-1.2-3.5-1.4-5.4Z"/>
      <path d="m27.6,32.3h-6.1v5.4h5.4c0-1.9.3-3.7.7-5.4Z"/>
      <path d="m40.4,17.7v-1.6h-18.9v5.4h12.7c1.8-1.6,3.9-2.9,6.1-3.8Z"/>
      <rect x="21.5" width="18.9" height="5.4"/>
      <rect x="21.5" y="8.1" width="18.9" height="5.4"/>
      <rect y="40.4" width="18.9" height="5.4"/>
      <path d="m29.8,48.5h-8.3v5.4h12.7c-1.8-1.5-3.3-3.4-4.4-5.4Z"/>
      <path d="m47.7,21.5c-8.9,0-16.2,7.2-16.2,16.2s7.2,16.2,16.2,16.2,16.2-7.2,16.2-16.2-7.2-16.2-16.2-16.2Zm6.1,24.6c0,.2,0,.3-.1.4,0,0-.2.1-.4.1h-9.2c-.4,0-.6-.2-.6-.6v-19c0-.2,0-.3.1-.4,0,0,.2,0,.4,0h2.6c.2,0,.3,0,.4,0,0,0,0,.2,0,.4v16.3h6.3c.2,0,.3,0,.4.1,0,0,.1.2.1.4v2.2Z"/>
      <rect y="16.2" width="18.9" height="5.4"/>
      <rect y="32.3" width="18.9" height="5.4"/>
      <rect y="24.2" width="18.9" height="5.4"/>
    </g>
  </g>
</svg>