<?xml version="1.0" encoding="UTF-8"?>
<svg id="_레이어_2" data-name="레이어 2" xmlns="http://www.w3.org/2000/svg" viewBox="0 0 49.5 45.4">
  <defs>
    <style>
      .cls-1 {
        fill-rule: evenodd;
      }
    </style>
  </defs>
  <g id="_레이어_1-2" data-name="레이어 1">
    <path class="cls-1" d="m6.1,15.2L0,9.8,18,0l6.9,4.8L31.5,0l18,9.6-6.2,5.5h0s6.2,8.5,6.2,8.5l-6.2,3.4v8.5l-18.6,9.9-18.6-9.9v-8.5l2.1,1.1v6.1l15.5,8.3v-16.3l-5.2,7.5L0,23.6l6.1-8.4Zm19.6,11.1v16.2l15.5-8.3v-6.1l-10.3,5.6-5.2-7.5Zm-22.7-3.3l14.9,8.1,3.8-5.5-14.9-7.7-3.8,5.2Zm24.7,2.6l3.8,5.5,14.9-8.1-3.8-5.2-14.9,7.7Zm-19.5-9.3L24.8,7l16.5,9.2-16.4,8.6-16.6-8.6Zm-4.7-6l4.3,3.8,14.8-8.2-4.9-3.4L3.6,10.2Zm23.3-4.2l14.6,8,4.5-4-14.3-7.6-4.8,3.5Z"/>
  </g>
</svg>