<?xml version="1.0" encoding="UTF-8"?>
<svg id="_레이어_2" data-name="레이어 2" xmlns="http://www.w3.org/2000/svg" viewBox="0 0 39 39">
  <g id="_레이어_1-2" data-name="레이어 1">
    <path d="m16.2,0l-1.5,8.1v1.6c0,1-.4,2.1-1.3,2.7-2.4,1.6-5.2-.1-5.2-2.5v-1.8L13,0h3.2ZM11.2,0l-4.7,8.1v1.6c0,1-.4,2.1-1.3,2.7-2.4,1.6-5.2-.1-5.2-2.5v-1.8L7.9,0h3.3Zm27.8,9.9c0,2.4-2.8,4.1-5.2,2.5-.9-.6-1.3-1.6-1.3-2.7v-1.7S27.8,0,27.8,0h3.3l7.9,8.1v1.8Zm-16.2-1.9v1.5c0,1.1-.4,2.2-1.3,2.8-2.4,1.8-5.2-.2-5.2-2.6v-1.8l1.7-8h3.1l1.7,8Zm3.3-8l4.9,8.1v1.3c0,1.1-.4,2.2-1.3,2.8-2.4,1.8-5.2-.2-5.2-2.6v-1.8l-1.5-8h3.2ZM1.6,16.2v22.8h16.2v-3.2H4.9v-16.2h29.2v19.5h3.2v-22.8H1.6Zm29.2,6.5h-9.8v16.2h9.8v-16.2Z"/>
  </g>
</svg>