<?xml version="1.0" encoding="UTF-8"?>
<svg id="_레이어_2" data-name="레이어 2" xmlns="http://www.w3.org/2000/svg" viewBox="0 0 62.3 62.3">
  <g id="_레이어_1-2" data-name="레이어 1">
    <g>
      <path d="m31.1,62.3c-2.5,0-4.6-1.6-5.2-4-.2-.8-.8-1.5-1.7-1.7-.8-.2-1.7,0-2.3.6-1.7,1.8-4.3,2.1-6.5.9-2.2-1.2-3.1-3.7-2.5-6.1.2-.8,0-1.7-.6-2.3-.6-.6-1.5-.8-2.3-.6-2.4.7-4.8-.3-6.1-2.5-1.2-2.2-.9-4.8.9-6.5.6-.6.9-1.4.6-2.3s-.8-1.4-1.7-1.7c-2.4-.6-4-2.7-4-5.2s1.6-4.6,4-5.2c.8-.2,1.5-.8,1.7-1.7s0-1.7-.6-2.3c-1.8-1.7-2.2-4.3-.9-6.5,1.2-2.2,3.7-3.1,6.1-2.5.8.2,1.7,0,2.3-.6.6-.6.8-1.5.6-2.3-.7-2.4.3-4.8,2.5-6.1,2.2-1.2,4.8-.9,6.5.9.6.6,1.4.8,2.3.6.8-.2,1.4-.8,1.7-1.7.6-2.4,2.7-4,5.2-4s4.6,1.6,5.2,4h0c.2.8.8,1.5,1.7,1.7.8.2,1.7,0,2.3-.6,1.7-1.8,4.3-2.2,6.5-.9,2.2,1.2,3.1,3.7,2.5,6.1-.2.8,0,1.7.6,2.3.6.6,1.5.8,2.3.6,2.4-.7,4.8.3,6.1,2.5,1.2,2.2.9,4.8-.9,6.5-.6.6-.9,1.4-.6,2.3s.8,1.4,1.7,1.7c2.4.6,4,2.7,4,5.2s-1.6,4.6-4,5.2c-.8.2-1.5.8-1.7,1.7s0,1.7.6,2.3c1.8,1.7,2.2,4.3.9,6.5-1.2,2.2-3.7,3.1-6.1,2.5-.8-.2-1.7,0-2.3.6-.6.6-.8,1.5-.6,2.3.7,2.4-.3,4.8-2.5,6.1-2.2,1.2-4.8.9-6.5-.9-.6-.6-1.4-.9-2.3-.6-.8.2-1.4.8-1.7,1.7-.6,2.4-2.7,4-5.2,4Zm-7.4-8.8c.5,0,.9,0,1.4.2,1.9.5,3.3,1.9,3.8,3.8.3,1.3,1.4,1.8,2.3,1.8s1.9-.5,2.3-1.8c.5-1.9,1.9-3.3,3.8-3.8,1.9-.5,3.8,0,5.2,1.4.9,1,2.1.8,2.8.4.8-.4,1.4-1.4,1.1-2.6-.5-1.9,0-3.8,1.4-5.2,1.4-1.4,3.3-1.9,5.2-1.4,1.3.4,2.2-.3,2.6-1.1.4-.8.6-1.9-.4-2.8-1.4-1.4-1.9-3.3-1.4-5.2.5-1.9,1.9-3.3,3.8-3.8,1.3-.3,1.8-1.4,1.8-2.3s-.5-1.9-1.8-2.3c-1.9-.5-3.3-1.9-3.8-3.8-.5-1.9,0-3.8,1.4-5.2,1-.9.8-2.1.4-2.8-.4-.8-1.4-1.4-2.6-1.1-1.9.5-3.8,0-5.2-1.4-1.4-1.4-1.9-3.3-1.4-5.2.4-1.3-.3-2.2-1.1-2.6-.8-.4-1.9-.6-2.8.4-1.4,1.4-3.3,1.9-5.2,1.4-1.9-.5-3.3-1.9-3.8-3.8h0c-.3-1.3-1.4-1.8-2.3-1.8s-1.9.5-2.3,1.8c-.5,1.9-1.9,3.3-3.8,3.8-1.9.5-3.8,0-5.2-1.4-.9-1-2.1-.8-2.8-.4-.8.4-1.4,1.4-1.1,2.6.5,1.9,0,3.8-1.4,5.2-1.4,1.4-3.3,1.9-5.2,1.4-1.3-.4-2.2.3-2.6,1.1-.4.8-.6,1.9.4,2.8,1.4,1.4,1.9,3.3,1.4,5.2-.5,1.9-1.9,3.3-3.8,3.8-1.3.3-1.8,1.4-1.8,2.3s.5,1.9,1.8,2.3c1.9.5,3.3,1.9,3.8,3.8.5,1.9,0,3.8-1.4,5.2-1,.9-.8,2.1-.4,2.8.4.8,1.4,1.4,2.6,1.1,1.9-.5,3.8,0,5.2,1.4,1.4,1.4,1.9,3.3,1.4,5.2-.4,1.3.3,2.2,1.1,2.6.8.4,1.9.6,2.8-.4,1-1.1,2.4-1.6,3.8-1.6Z"/>
      <path d="m28.5,29.5c-.4.6-1,1-1.6,1.2s-1.3.4-2.1.4-1.6-.1-2.2-.4c-.6-.3-1.1-.7-1.5-1.2-.4-.5-.7-1.1-.9-1.8-.2-.7-.3-1.4-.3-2.2s0-1.5.3-2.2c.2-.7.5-1.3.9-1.8.4-.5.9-.9,1.5-1.2.6-.3,1.3-.4,2.2-.4s1.6.1,2.2.4c.6.3,1.1.7,1.5,1.2.4.5.7,1.1.9,1.8.2.7.3,1.4.3,2.2s0,1.6-.3,2.2c-.2.6-.5,1.2-.9,1.7Zm-3.7-6.4c-.5,0-.9.2-1.1.6-.2.4-.4,1-.4,1.9s.1,1.2.3,1.7c.2.5.6.7,1.2.7s.8-.2,1.1-.6c.2-.4.4-1,.4-1.9s-.1-1.5-.4-1.9c-.2-.4-.6-.6-1.1-.6Zm2.9,17.6c0,.2-.2.3-.3.3s-.3,0-.5,0h-2.4c-.2,0-.4,0-.5-.1s0-.2,0-.5l11.3-20.5c0-.1.2-.2.2-.3s.2,0,.4,0h2.7c.3,0,.5,0,.5.1,0,0,0,.3-.1.5l-11.5,20.4Zm14.3-1.6c-.4.6-1,1-1.6,1.2-.6.3-1.3.4-2.1.4s-1.6-.1-2.2-.4c-.6-.3-1.1-.7-1.5-1.2s-.7-1.1-.9-1.8c-.2-.7-.3-1.4-.3-2.2s0-1.5.3-2.2c.2-.7.5-1.3.9-1.8.4-.5.9-.9,1.5-1.2.6-.3,1.3-.4,2.2-.4s1.6.1,2.2.4c.6.3,1.1.7,1.5,1.2.4.5.7,1.1.9,1.8.2.7.3,1.4.3,2.2s0,1.6-.3,2.2c-.2.6-.5,1.2-.9,1.7Zm-3.7-6.4c-.5,0-.9.2-1.1.6-.2.4-.4,1-.4,1.9s.1,1.2.3,1.7c.2.5.6.7,1.2.7s.8-.2,1.1-.6.4-1,.4-1.9-.1-1.5-.4-1.9c-.2-.4-.6-.6-1.1-.6Z"/>
    </g>
  </g>
</svg>