<?xml version="1.0" encoding="UTF-8"?>
<svg id="_레이어_2" data-name="레이어 2" xmlns="http://www.w3.org/2000/svg" viewBox="0 0 63.6 42.4">
  <defs>
    <style>
      .cls-1 {
        fill: #1d0600;
      }
    </style>
  </defs>
  <g id="_레이어_1-2" data-name="레이어 1">
    <path class="cls-1" d="m10.5,29.3v2.6h16v-2.6h-16Zm0-5.4v2.6h23.8v-2.6H10.5Zm34.5,0v2.6h7.9v-2.6h-7.9Zm0,0v2.6h7.9v-2.6h-7.9Zm-34.5,2.6h23.8v-2.6H10.5v2.6Zm0,5.4h16v-2.6h-16v2.6ZM58.3,0H5.3C2.4,0,0,2.4,0,5.3v31.8c0,2.9,2.4,5.3,5.3,5.3h53c2.9,0,5.3-2.4,5.3-5.3V5.3c0-2.9-2.4-5.3-5.3-5.3Zm-.1,35.8c0,.7-.6,1.3-1.3,1.3H6.6c-.7,0-1.3-.6-1.3-1.3v-17.3h52.9v17.3Zm0-25.1H5.3v-3.9c0-.7.6-1.3,1.3-1.3h50.3c.7,0,1.3.6,1.3,1.3v3.9Zm-23.8,13.1H10.5v2.6h23.8v-2.6Zm-7.9,5.4h-16v2.6h16v-2.6Zm-16,0v2.6h16v-2.6h-16Zm0-5.4v2.6h23.8v-2.6H10.5Zm0,0v2.6h23.8v-2.6H10.5Zm0,5.4v2.6h16v-2.6h-16Z"/>
  </g>
</svg>