<?xml version="1.0" encoding="UTF-8"?>
<svg id="_레이어_2" data-name="레이어 2" xmlns="http://www.w3.org/2000/svg" viewBox="0 0 180 205">
  <defs>
    <style>
      .cls-1, .cls-2 {
        fill: #fff;
      }

      .cls-3 {
        fill: #1d0600;
      }

      .cls-2 {
        stroke: #00a99d;
        stroke-miterlimit: 10;
        stroke-width: 10px;
      }

      .cls-4 {
        fill: #00a99d;
      }
    </style>
  </defs>
  <g id="_레이어_1-2" data-name="레이어 1">
    <g>
      <g>
        <path class="cls-3" d="m119,23.2v158.6c0,2.3-1.9,4.2-4.2,4.2H23.2c-2.3,0-4.2-1.9-4.2-4.2V23.2c0-2.3,1.9-4.2,4.2-4.2h91.6c2.3,0,4.2,1.9,4.2,4.2Zm.3-21.2H18.7C9.5,2,2,9.5,2,18.7v167.6c0,9.2,7.5,16.7,16.7,16.7h100.6c9.2,0,16.7-7.5,16.7-16.7V18.7c0-9.2-7.5-16.7-16.7-16.7Zm-62.4,26h23.8c2.1,0,4,1.5,4.2,3.6s-1.6,4.4-4,4.4h-23.8c-2.1,0-4-1.5-4.2-3.7s1.7-4.3,4-4.3Zm12,152.3c-5.9,0-10.6-4.8-10.6-10.6s4.8-10.6,10.6-10.6,10.6,4.8,10.6,10.6-4.8,10.6-10.6,10.6Zm42.1-27.3H27V44h84v109Z"/>
        <path class="cls-1" d="m119.3,205H18.7c-10.3,0-18.7-8.4-18.7-18.7V18.7C0,8.4,8.4,0,18.7,0h100.6c10.3,0,18.7,8.4,18.7,18.7v167.6c0,10.3-8.4,18.7-18.7,18.7ZM18.7,4c-8.1,0-14.7,6.6-14.7,14.7v167.6c0,8.1,6.6,14.7,14.7,14.7h100.6c8.1,0,14.7-6.6,14.7-14.7V18.7c0-8.1-6.6-14.7-14.7-14.7H18.7Zm96.1,184H23.2c-3.4,0-6.2-2.8-6.2-6.2V23.2c0-3.4,2.8-6.2,6.2-6.2h91.6c3.4,0,6.2,2.8,6.2,6.2v158.6c0,3.4-2.8,6.2-6.2,6.2ZM23.2,21c-1.2,0-2.2,1-2.2,2.2v158.6c0,1.2,1,2.2,2.2,2.2h91.6c1.2,0,2.2-1,2.2-2.2V23.2c0-1.2-1-2.2-2.2-2.2H23.2Zm45.7,142.3c-3.5,0-6.4,2.9-6.4,6.4s2.9,6.4,6.4,6.4,6.3-2.9,6.3-6.4-2.8-6.4-6.3-6.4Zm44.1-8.3H25V42h88v113Zm-84-4h80V46H29v105ZM56.9,30c-.6,0-1.1.2-1.5.6s-.6,1-.5,1.5c0,1,1.1,1.8,2.2,1.8h23.8c.6,0,1.1-.2,1.5-.7.4-.4.6-1,.5-1.5,0-1-1.1-1.8-2.2-1.8h-23.8Z"/>
      </g>
      <g>
        <circle class="cls-2" cx="138" cy="121.5" r="37"/>
        <path class="cls-4" d="m113.5,133.5v-24h4v24h-4Zm8,0v-24h4v24h-4Zm8,0v-24h2v24h-2Zm16,0v-24h2v24h-2Zm-10,0v-24h6v24h-6Zm16,0v-24h4v24h-4Zm9,0v-24h2v24h-2Z"/>
      </g>
    </g>
  </g>
</svg>