<?xml version="1.0" encoding="UTF-8"?>
<svg id="_레이어_2" data-name="레이어 2" xmlns="http://www.w3.org/2000/svg" viewBox="0 0 225.1 131.8">
  <defs>
    <style>
      .cls-1 {
        fill: #1d0600;
      }

      .cls-2 {
        fill: #0071bc;
      }

      .cls-3 {
        fill: #fff;
        stroke: #0071bc;
        stroke-miterlimit: 10;
        stroke-width: 10px;
      }
    </style>
  </defs>
  <g id="_레이어_1-2" data-name="레이어 1">
    <g>
      <path class="cls-1" d="m193.8,84.6c16.7,0,31.3-6.3,31.3-14.1s-14.6-14.1-31.3-14.1-31.3,6.3-31.3,14.1,14.6,14.1,31.3,14.1Zm.6-12.6c-1.9-.6-7.6-1-7.6-4.2s2.1-3.4,6.2-3.7v-1.1h1v1c2.3,0,3.9.2,5.7.6l-.7,2.2c-1.4-.3-2.9-.6-4.4-.6h-.5c-3,.1-3.3,1.8-1.2,2.5,3.4,1.1,7.9,1.8,7.9,4.6s-2.7,3.4-5.9,3.7v2h-3v-1.9c-1.3,0-3.4-.4-5.2-1l.9-2.2c1.5.4,3.4.8,5.2.8h1.3c2.3-.4,2.8-2,.2-2.7Zm-.9,50.1c11.9,0,24.3-3.1,31.5-8.8v4.1c0,7.8-14.7,14.3-31.5,14.3s-31.5-6.5-31.5-14.3v-4.1c7.2,5.8,19.6,8.8,31.5,8.8Zm0-31.3c11.9,0,24.3-3.1,31.5-8.8v4.1c0,7.8-14.7,14.2-31.5,14.2s-31.5-6.3-31.5-14.2v-4.1c7.2,5.8,19.6,8.8,31.5,8.8Zm0,15.7c11.9,0,24.3-3.1,31.5-8.8v4.1c0,7.8-14.7,14.2-31.5,14.2s-31.5-6.4-31.5-14.2v-4.1c7.2,5.8,19.6,8.8,31.5,8.8Zm-79.5-29.3c0,5.6-4,8.6-9,9.3v3.4h-3v-3.3c-3.1,0-6.3-.9-9-2.4l1.4-5.3c2.9,1.2,6.7,2.5,9.6,1.8,3.4-.8,4.1-4.7.4-6.5-2.8-1.4-11.3-2.6-11.3-10.5s3.1-8.4,8.9-9.3v-3.5h3v3.3c2.2,0,4.6.5,7.3,1.4l-1.1,5.3c-2.3-.9-4.8-1.7-7.3-1.5-4.5.3-4.8,4.5-1.7,6.2,5.1,2.6,11.8,4.6,11.8,11.5ZM169,9H9v95H0V0h169v9ZM19,19v103h131v-51.8c0-16.8,18.9-25.4,38-27v-24.2H19Zm84,84.6c-18.2,0-32.9-14.7-32.9-32.9s14.7-32.9,32.9-32.9,32.9,14.7,32.9,32.9-14.7,32.9-32.9,32.9Z"/>
      <g>
        <circle class="cls-3" cx="102.8" cy="71.4" r="37"/>
        <path class="cls-2" d="m84.6,69.1h3.9l-1.7-7.3h-.9c-.5,0-.9-.1-1.2-.4-.3-.2-.5-.6-.5-1.1s.2-.9.5-1.2c.3-.2.7-.3,1.2-.3h5.1c.5,0,1,.1,1.2.3.2.2.4.5.5,1l1.9,9.1h3.4l2.4-10.3h6.7l2.3,10.3h3.3l2.3-10.3h4.9l-2.4,10.3h4v4h-4.9l-2.5,10.8h-6.9l-2.5-10.8h-3.3l-2.5,10.8h-6.9l-2.5-10.8h-4.9v-4Zm11.7,7.8l.8-3.8h-1.6l.8,3.8Zm6-7.8h1.5l-.7-3.2-.7,3.2Zm8.8,7.4l.7-3.3h-1.5l.8,3.3Z"/>
      </g>
    </g>
  </g>
</svg>