<?xml version="1.0" encoding="UTF-8"?>
<svg id="_레이어_2" data-name="레이어 2" xmlns="http://www.w3.org/2000/svg" viewBox="0 0 334.4 211.5">
  <defs>
    <style>
      .cls-1, .cls-2 {
        fill: #fff;
      }

      .cls-3 {
        fill: none;
        stroke: #fff;
        stroke-width: 4px;
      }

      .cls-4, .cls-2 {
        stroke: #1d0600;
        stroke-miterlimit: 10;
      }

      .cls-4, .cls-5 {
        fill: #1d0600;
      }

      .cls-6 {
        fill: #f0c71e;
      }
    </style>
  </defs>
  <g id="_레이어_1-2" data-name="레이어 1">
    <g>
      <g>
        <path class="cls-5" d="m311.1.4L77.8,0c-12.9,0-23.3,10.4-23.3,23.3l-.2,140c0,12.9,10.4,23.3,23.3,23.3l233.4.4c12.9,0,23.3-10.4,23.3-23.3l.2-140c0-12.9-10.4-23.3-23.3-23.3Zm-6.5,23.9c.2,0,.4,0,.6,0-.2,0-.4,0-.6,0h0Zm-35.5,0l-185.7-.3c-1.2,0-2.3.4-3.3,1,.9-.6,2.1-1,3.3-1l185.7.3Zm-191.6,22.8h42.6c0,0-42.6,0-42.6,0h0Zm2.1-21.7c-.1,0-.2.2-.3.3,0,0,.2-.2.3-.3Zm-1.8,2.8c-.1.5-.3,1-.3,1.6v7.2s0-7.2,0-7.2c0-.6.1-1.1.3-1.6Zm232.6,6.8v-4.8c0-2.8-2-5.2-4.6-5.7,2.7.5,4.7,2.9,4.6,5.7v4.8Z"/>
        <g>
          <g>
            <path class="cls-4" d="m46.7,153.2v11.6h70.2v-11.6H46.7Zm0-24v11.6h104.9v-11.6H46.7Zm152,0v11.6h34.7v-11.6h-34.7Zm0,0v11.6h34.7v-11.6h-34.7Zm-152,11.6h104.9v-11.6H46.7v11.6Zm0,24h70.2v-11.6H46.7v11.6ZM257.2,24.4H23.8C10.9,24.4.5,34.8.5,47.7v140c0,12.9,10.4,23.3,23.3,23.3h233.4c12.9,0,23.3-10.4,23.3-23.3V47.7c0-12.9-10.4-23.3-23.3-23.3Zm-.6,157.7c0,3.2-2.6,5.8-5.8,5.8H29.5c-3.2,0-5.8-2.6-5.8-5.8v-75.9h232.9v75.9Zm0-110.6H23.6v-17.3c0-3.2,2.6-5.8,5.8-5.8h221.2c3.2,0,5.8,2.6,5.8,5.8v17.3Zm-104.9,57.8H46.7v11.6h104.9v-11.6Zm-34.7,24H46.7v11.6h70.2v-11.6Zm-70.2,0v11.6h70.2v-11.6H46.7Zm0-24v11.6h104.9v-11.6H46.7Zm0,0v11.6h104.9v-11.6H46.7Zm0,24v11.6h70.2v-11.6H46.7Z"/>
            <path class="cls-2" d="m256.5,54.1v17.3H23.6v-17.3c0-3.2,2.6-5.8,5.8-5.8h221.2c3.2,0,5.8,2.6,5.8,5.8Z"/>
            <path class="cls-2" d="m23.6,106.1v75.9c0,3.2,2.6,5.8,5.8,5.8h221.2c3.2,0,5.8-2.6,5.8-5.8v-75.9H23.6Zm93.3,58.6H46.7v-11.6h70.2v11.6Zm34.7-24H46.7v-11.6h104.9v11.6Zm81.8,0h-34.7v-11.6h34.7v11.6Z"/>
          </g>
          <g>
            <path class="cls-3" d="m46.7,153.2v11.6h70.2v-11.6H46.7Zm0-24v11.6h104.9v-11.6H46.7Zm152,0v11.6h34.7v-11.6h-34.7Zm0,0v11.6h34.7v-11.6h-34.7Zm-152,11.6h104.9v-11.6H46.7v11.6Zm0,24h70.2v-11.6H46.7v11.6ZM257.2,24.4H23.8C10.9,24.4.5,34.8.5,47.7v140c0,12.9,10.4,23.3,23.3,23.3h233.4c12.9,0,23.3-10.4,23.3-23.3V47.7c0-12.9-10.4-23.3-23.3-23.3Zm-.6,157.7c0,3.2-2.6,5.8-5.8,5.8H29.5c-3.2,0-5.8-2.6-5.8-5.8v-75.9h232.9v75.9Zm0-110.6H23.6v-17.3c0-3.2,2.6-5.8,5.8-5.8h221.2c3.2,0,5.8,2.6,5.8,5.8v17.3Zm-104.9,57.8H46.7v11.6h104.9v-11.6Zm-34.7,24H46.7v11.6h70.2v-11.6Zm-70.2,0v11.6h70.2v-11.6H46.7Zm0-24v11.6h104.9v-11.6H46.7Zm0,0v11.6h104.9v-11.6H46.7Zm0,24v11.6h70.2v-11.6H46.7Z"/>
            <path class="cls-3" d="m256.5,54.1v17.3H23.6v-17.3c0-3.2,2.6-5.8,5.8-5.8h221.2c3.2,0,5.8,2.6,5.8,5.8Z"/>
            <path class="cls-3" d="m23.6,106.1v75.9c0,3.2,2.6,5.8,5.8,5.8h221.2c3.2,0,5.8-2.6,5.8-5.8v-75.9H23.6Zm93.3,58.6H46.7v-11.6h70.2v11.6Zm34.7-24H46.7v-11.6h104.9v11.6Zm81.8,0h-34.7v-11.6h34.7v11.6Z"/>
          </g>
        </g>
      </g>
      <rect class="cls-1" x="189.4" y="124.3" width="54.9" height="23.1"/>
      <g>
        <path class="cls-6" d="m198.7,126.5h8.2s0,47.2,0,47.2h-8.2c-3.4,0-6.1-2.7-6.1-6.1v-35c0-3.4,2.7-6.1,6.1-6.1Z"/>
        <rect class="cls-6" x="209.1" y="126.5" width="13.3" height="11.1"/>
        <rect class="cls-6" x="209.1" y="150.9" width="13.3" height="10.1"/>
        <rect class="cls-6" x="209.1" y="163.1" width="13.3" height="10.6"/>
        <path class="cls-6" d="m239.9,163.1v4.5c0,3.4-2.7,6.1-6.1,6.1h-9.3s0-10.6,0-10.6h15.4Z"/>
        <rect class="cls-6" x="224.5" y="150.9" width="15.4" height="10.1"/>
        <rect class="cls-6" x="209.1" y="139.7" width="13.3" height="9"/>
        <rect class="cls-6" x="224.5" y="139.7" width="15.4" height="9"/>
        <path class="cls-6" d="m239.9,137.6h-15.4s0-11.1,0-11.1h9.3c3.4,0,6.1,2.7,6.1,6.1v5Z"/>
      </g>
    </g>
  </g>
</svg>