<?xml version="1.0" encoding="UTF-8"?>
<svg id="_레이어_2" data-name="레이어 2" xmlns="http://www.w3.org/2000/svg" viewBox="0 0 120.5 132.5">
  <defs>
    <style>
      .cls-1 {
        fill: #f0c71e;
        fill-rule: evenodd;
      }
    </style>
  </defs>
  <g id="_레이어_1-2" data-name="레이어 1">
    <path class="cls-1" d="m96.4,132.5H24.1S8.4,60.3,8.4,60.3h0S0,38.9,0,38.9l18.2-10.4L12,.2h29s1.1,5.8,1.1,5.8h28.3s1.3-6,1.3-6l28.6,6-3.5,15.7,23.8,14.4-8.7,25.5s-15.4,70.9-15.4,70.9Zm-10-12.2l11-48s-16.7,7.3-37.1,7.3c-20.4,0-37.1-7.2-37.1-7.2l11,47.9h0s52.2,0,52.2,0Zm-.1,0h0s0-.1,0-.1c0,0,0,.1,0,.1Zm-24.6-52.9v-30.6s-11.1-2.3-11.1-2.3v14.9s3.9,17.8,3.9,17.8c2.4.1,4.8.2,7.3.1Zm11.4-.8c3.5-.5,7-1.3,10.6-2.3l1.7-12.2-10.1-1.4-2.2,15.8Zm-37.9-2.2c3.2.9,6.5,1.7,9.7,2.2l-11.5-57.4h-10.2s12,55.2,12,55.2Zm68.8-7.8l5.6-16.4-8.9-5.4-6.7,20.8-.8,5.7c3.6-1.3,7.2-2.9,10.8-4.7Zm-78.8,4.3l-3.3-15.2-2.6-7.5-8.1,4.6,5.5,14.1c2.8,1.5,5.6,2.8,8.5,3.9Zm46.7-19.6l10.9,1.5,6.6-29.7-10.9-2.3s-6.6,30.5-6.6,30.5Zm-9.7-26.2h-13.2s0,9.8,0,9.8l13.2,2.7v-12.5Z"/>
  </g>
</svg>