<?xml version="1.0" encoding="UTF-8"?>
<svg id="_레이어_2" data-name="레이어 2" xmlns="http://www.w3.org/2000/svg" viewBox="0 0 119.4 120">
  <defs>
    <style>
      .cls-1 {
        fill: #f0c71e;
        fill-rule: evenodd;
      }
    </style>
  </defs>
  <g id="_레이어_1-2" data-name="레이어 1">
    <path class="cls-1" d="m70.8,110c.4,5.9-1.5,9.9-12.3,10-20.3,0-22.1,0-42.5,0s-12.6-3.9-12.1-10h66.9Zm33.8,9.8h-28.5c2.1-3.4,2.7-8.3,1.9-11.8h0c5.5-5.9,5.4-14.8.5-20.6,2.6-7.3-4.4-29.6-32.1-34.1l-1.6-13.2h69.7l-10,79.6Zm-36.3-14.9s-62.2,0-62.3,0c-3.4-.3-6-3.5-6-7.4s2.6-7.1,6-7.4c.1,0,6.6,0,6.6,0,10.4,0,11.1,8.2,16.2,8.1,5.1,0,6.5-8,16.1-8.1h23.5c3.6,0,6.4,3.4,6.4,7.5s-2.9,7.4-6.4,7.5Zm3.2-19.8H3.1c0-12.4,13.1-24.9,34.3-24.9s34.2,12.5,34.2,24.9Zm47.9-49.8H39.8v-7c4.3,0,10-3.5,10-8.1h30.8L90.8,0l6.8,3.2-8.8,17h20.9c0,4.6,5.4,8.1,9.8,8.1v7Z"/>
  </g>
</svg>