<?xml version="1.0" encoding="UTF-8"?>
<svg id="_레이어_2" data-name="레이어 2" xmlns="http://www.w3.org/2000/svg" viewBox="0 0 110.3 165.5">
  <defs>
    <style>
      .cls-1 {
        fill: #f0c71e;
        fill-rule: evenodd;
      }
    </style>
  </defs>
  <g id="_레이어_1-2" data-name="레이어 1">
    <path class="cls-1" d="m89.6,165.5H20.7L6.9,55.2h96.5l-13.8,110.3Zm-43.1-37.9c2.9,0,5.2,2.3,5.2,5.2s-2.3,5.2-5.2,5.2-5.2-2.3-5.2-5.2,2.3-5.2,5.2-5.2Zm22.4-17.2c3.8,0,6.9,3.1,6.9,6.9s-3.1,6.9-6.9,6.9-6.9-3.1-6.9-6.9,3.1-6.9,6.9-6.9Zm-24.1-20.7c5.7,0,10.3,4.6,10.3,10.3s-4.6,10.3-10.3,10.3-10.3-4.6-10.3-10.3,4.6-10.3,10.3-10.3Zm11.6-62.1L70.7,0l9.4,4.4-12.2,23.2h29c0,6.4,7.5,11.2,13.5,11.2v9.5H0v-9.5c6,0,13.8-4.8,13.8-11.2h42.6Z"/>
  </g>
</svg>