<?xml version="1.0" encoding="UTF-8"?>
<svg id="_레이어_2" data-name="레이어 2" xmlns="http://www.w3.org/2000/svg" viewBox="0 0 109.6 73.7">
  <defs>
    <style>
      .cls-1 {
        fill: #f0c71e;
      }

      .cls-2 {
        fill: none;
      }
    </style>
  </defs>
  <g id="_레이어_1-2" data-name="레이어 1">
    <g>
      <path class="cls-2" d="m89.2,21.3c-11.3-1.4-11.8-2.7-15.9-10.1-3-5-6.1,1.5-12.3,3-5.6,1.3-9.2-1.1-13.6-4-4.7-2.8-5.5.1-8.9,4.3-2.4,2.7-4.6,4.1-8.4,4.6-2.5.4-8,0-9.5.3-4.8.8-2.6,6.8-5,12.5-1.5,3.5-6,10.8-6.1,10.9,10.5-14.6,27.4-24.5,46.4-24.3,18.8.5,34.9,11.3,45.2,26.7-2.1-3.2-5-7.9-5.6-11.7-.6-5.7-.8-11.4-6.2-12.2Z"/>
      <path class="cls-1" d="m109.6,45.3c-.2-4.3-2.1-6.8-4.2-10.4-1.3-2.3-1-2.8-1.4-5.8-.3-2.1-.6-4.2-1.3-6.3-3.4-10.2-10.8-10.5-16-11-2.5-.3-3.1-.9-3.8-1.9-1.8-2.8-1.9-4.3-4.4-6.6-2.2-2-5-3.1-7.8-3.1-4.1,0-6.5,1.8-9.8,4-2.1,1.4-3.3,1.8-6.1,0C51.3,2,49,0,44.4,0c-5.7,0-8.7,3.1-12,7.4-1.7,2.3-2.1,2.8-5.7,2.8-4.6,0-13-1.2-17.1,7.1-1.4,2.8-1.6,5.4-2,8.6-.5,3.3-.7,3.4-2.2,5.5C2.5,35.4,0,40.1.1,45.2c0,3.1.9,6.1,3,8.7C2.3,56,0,62.1,0,65.9c0,4.3,2.2,6.7,7.9,7,2.1,0,85.5.9,93.2.9,5.4-.2,8.5-3.4,8.5-7.5,0-2.7-2.1-8.7-3.2-11.1,2-3,3.3-6.2,3.2-9.8Zm-53.8-26.8c-19-.3-35.9,9.6-46.4,24.3,0,0,4.6-7.4,6.1-10.9,2.3-5.7.2-11.7,5-12.5,1.5-.3,7,0,9.5-.3,3.8-.5,6.1-1.9,8.4-4.6,3.5-4.1,4.3-7.1,8.9-4.3,4.5,2.9,8,5.3,13.6,4,6.3-1.5,9.3-8,12.3-3,4.1,7.3,4.6,8.6,15.9,10.1,5.3.8,5.5,6.5,6.2,12.2.6,3.8,3.5,8.5,5.6,11.7-10.3-15.4-26.4-26.2-45.2-26.7Z"/>
    </g>
  </g>
</svg>