<?xml version="1.0" encoding="UTF-8"?>
<svg id="_레이어_2" data-name="레이어 2" xmlns="http://www.w3.org/2000/svg" viewBox="0 0 89.6 82">
  <defs>
    <style>
      .cls-1 {
        fill: #f0c71e;
        fill-rule: evenodd;
      }
    </style>
  </defs>
  <g id="_레이어_1-2" data-name="레이어 1">
    <path class="cls-1" d="m11.2,70.7h0c.1,3,1,3.7,3.6,3.7,4.6,0,57.9,0,60.1,0,2.5,0,3.4-1,3.6-3.5,0,0-42.5.1-67.2-.2Zm14.6-14.5h-13.8c-2.1,0-3.6,1.6-3.7,3.4,0,1.9,1.3,3.8,3.7,3.8h65.6c2.4-.1,3.7-2,3.6-3.8,0-1.8-1.6-3.4-3.6-3.4-4.7,0-23.4,0-23.9,0-1.9,0-3.6,1-4.7,1.7-3.2,1.9-5.8,3.8-9.7,3.8-4.3,0-6.6-2-9.4-3.7-1.1-.7-2.3-1.7-4.2-1.7Zm41.5-10.6c-2.5,0-4.8-1.1-6.9-2.2-4.2-2.1-4.5-2.1-8.7,0-2,1-4.3,2.2-6.9,2.2s-4.8-1.1-6.9-2.2c-4.2-2.1-4.5-2.1-8.7,0-2,1-4.3,2.2-6.9,2.2s-4.8-1.1-6.9-2.2c-3.7-1.9-5.5-2.8-11,1.5-.5.4-1.1.6-1.7.6C1.4,45.6,0,44.4,0,42.8s.4-1.6,1.1-2.2c7.8-6.2,12.1-4.6,17-2.2,1.6.8,3.1,1.6,4.4,1.6s2.7-.8,4.4-1.6c5.8-2.9,7.9-2.9,13.7,0,1.6.8,3.1,1.6,4.3,1.6s2.7-.8,4.4-1.6c5.8-2.9,7.9-2.9,13.7,0,1.6.8,3.1,1.6,4.4,1.6s2.7-.8,4.4-1.6c4.9-2.4,9.2-4.1,16.9,2.2.7.6,1,1.4,1,2.2,0,1.5-1.2,2.8-2.8,2.8s-1.2-.2-1.8-.6c-5.4-4.4-7.1-3.4-10.9-1.5-2,1-4.3,2.2-6.9,2.2Zm18.6-12H3.7C3.9,13.5,21.8,0,45.2,0s40.5,12.5,40.7,33.6ZM44.3,7.7c-13.6.2-27.3,5.9-31.8,18.6h0c0,0,64.7,0,64.7,0-4.4-13-19-18.7-32.9-18.7Zm-8.8,10.9c1,0,1.9.8,1.9,1.9s-.8,1.9-1.9,1.9-1.9-.8-1.9-1.9.8-1.9,1.9-1.9Zm18.7,0c1,0,1.9.8,1.9,1.9s-.8,1.9-1.9,1.9-1.9-.8-1.9-1.9.8-1.9,1.9-1.9Zm14.9,0c1,0,1.9.8,1.9,1.9s-.8,1.9-1.9,1.9-1.9-.8-1.9-1.9.8-1.9,1.9-1.9Zm-44.8,0c1,0,1.9.8,1.9,1.9s-.8,1.9-1.9,1.9-1.9-.8-1.9-1.9.8-1.9,1.9-1.9Zm18.7-3.7c1,0,1.9.8,1.9,1.9s-.8,1.9-1.9,1.9-1.9-.8-1.9-1.9.8-1.9,1.9-1.9Zm18.7,0c1,0,1.9.8,1.9,1.9s-.8,1.9-1.9,1.9-1.9-.8-1.9-1.9.8-1.9,1.9-1.9Zm-29.9-3.7c1,0,1.9.8,1.9,1.9s-.8,1.9-1.9,1.9-1.9-.8-1.9-1.9.8-1.9,1.9-1.9Zm18.7,0c1,0,1.9.8,1.9,1.9s-.8,1.9-1.9,1.9-1.9-.8-1.9-1.9.8-1.9,1.9-1.9ZM10.9,48.4c.6,0,14.1,0,15.2,0,5.4,0,9,6.2,13.1,6.2,3.6,0,8.5-6.2,13.9-6.2.7,0,23.1,0,25.6,0,6.2.2,10.6,5,10.9,10.6.2,3.5-1.3,6.8-3.8,9,1,8.7-3.4,13.6-10.7,13.9-2.2,0-55.8,0-60.4,0-8.1-.3-11.6-5.8-10.8-14C1.3,65.7-.2,62.5,0,59c.3-5.6,4.7-10.4,10.9-10.6Z"/>
  </g>
</svg>