<?xml version="1.0" encoding="UTF-8"?>
<svg id="_레이어_2" data-name="레이어 2" xmlns="http://www.w3.org/2000/svg" viewBox="0 0 224.8 178.9">
  <defs>
    <style>
      .cls-1 {
        fill: #fff;
      }
    </style>
  </defs>
  <g id="_레이어_1-2" data-name="레이어 1">
    <g>
      <rect x="55.9" y="53.9" width="115" height="7.3"/>
      <rect x="55.9" y="68.4" width="115" height="7.3"/>
      <rect x="55.9" y="123.3" width="115" height="7.3"/>
      <rect x="0" y="0" width="224.8" height="38.3" rx="13.2" ry="13.2"/>
      <path d="m201,26.8c-1.3,0-2.7,0-4,0-1.9,0-3.9,0-6,0,0-5.6,0-10.8,0-16.1,0-.8-.1-1.7-.3-2.4-1-4.1-4.8-6.5-10.2-6.5H43.8c-5.4,0-9.2,2.5-10.2,6.5-.2.8-.3,1.6-.3,2.4,0,4.6,0,9.3,0,13.9v2.2c-3.4,0-6.5,0-9.6,0-4,0-6.9,2.5-6.8,5.6,0,.3,0,.5,0,.8.5,2.7,3.2,4.7,6.9,4.7,3,0,6,0,9.4,0v19.1c0,37.6,0,75.3,0,112.9,0,.8,0,1.5,0,2.3.5,4.4,5,7.4,9.9,6.3,1.4-.3,2.7-.9,4-1.6,9.1-4.8,18.1-9.7,27.1-14.6,1.3-.7,2.2-.7,3.5,0,8.9,4.9,18,9.6,26.9,14.6,5,2.8,9.9,2.8,14.9,0,7.7-4.2,15.5-8.2,23.3-12.3,1.9-1,3.9-2.8,5.9-2.8,2,0,4,1.8,6,2.9,7.7,4.2,15.4,8.6,23.2,12.7,6.1,3.3,12.8.2,13-5.9,0-.7,0-1.4,0-2.1V38.1c.4-.2.5-.2.5-.2,3.1,0,6.2,0,9.3,0,3.4,0,6-2.1,6.5-4.7,0-.2,0-.5,0-.8,0-3-2.7-5.4-6.4-5.6Zm-23.4,137c-.8-.4-1.5-.7-2.1-1.1-6.4-3.5-12.9-7-19.3-10.6-4.9-2.7-9.6-2.7-14.5,0-9.2,4.9-18.4,9.7-27.6,14.7-1.4.7-2.3.8-3.7,0-8.9-4.9-17.9-9.7-26.8-14.6-5-2.7-9.9-2.8-14.9,0-6.5,3.6-13.2,7.1-19.8,10.7-.6.3-1.2.6-2.2,1.1V38h131v125.8Zm0-137.2H46.6v-13.6h131v13.6Z"/>
      <rect class="cls-1" x="46.6" y="13" width="131" height="13.6"/>
    </g>
  </g>
</svg>