<?xml version="1.0" encoding="UTF-8"?>
<svg id="_레이어_2" data-name="레이어 2" xmlns="http://www.w3.org/2000/svg" viewBox="0 0 94.2 66.9">
  <defs>
    <style>
      .cls-1 {
        fill: #fff;
      }

      .cls-2 {
        fill: #f0c71e;
        fill-rule: evenodd;
      }
    </style>
  </defs>
  <g id="_레이어_1-2" data-name="레이어 1">
    <g>
      <path class="cls-2" d="m85.9,63h-15.2c1.1-1.8,1.4-4.4,1-6.3h0c2.9-3.2,2.9-7.9.3-11,1.4-3.9-2.4-15.8-17.2-18.2l-.9-7h37.3l-5.3,42.6Z"/>
      <path class="cls-2" d="m94.2,18.1h-42.6v-3.6c2.3,0,5.3-1.8,5.3-4.2h16.5l5.5-10.3,3.6,1.6-4.7,8.7h11.2c0,2.4,2.9,4.2,5.2,4.2v3.6Z"/>
      <g>
        <path class="cls-2" d="m38.6,18.7l1.4-6.3-11.4-2.4-.5,2.4h-11.3l-.5-2.4H4.8s2.5,11.3,2.5,11.3L0,25.5l3.4,8.6h0l6.3,28.9h28.9l6.2-28.3,3.5-10.2-9.5-5.7Zm-7.3-5.1l4.3.9-2.6,11.8-4.3-.6,2.6-12.2Zm2.7,16.5l-.7,4.8c-1.4.4-2.8.7-4.2.9l.9-6.3,4,.6Zm-13.3-15.3h4.8v5l-4.8-1.1v-3.9Zm0,7.7l4.8,1v13.2c-1.1,0-2.1,0-3.1,0l-1.7-7.7v-6.4Zm-7.4-10.1l4.6,22.9c-1.3-.2-2.6-.5-3.9-.9l-4.8-22h4.1Zm-8.9,13.9l3.2-1.9,1,3,1.3,6.1c-1.1-.5-2.3-1-3.4-1.6l-2.2-5.6Zm30,31.8h0c0,0,0,0,0,0H13.6l-4.4-19.1s6.7,2.8,14.8,2.9c8.1,0,14.8-2.9,14.8-2.9l-4.4,19.2Zm7.1-26.3c-1.4.7-2.9,1.3-4.3,1.9l.3-2.3,2.7-8.3,3.6,2.1-2.2,6.5Z"/>
        <path class="cls-2" d="m43.8,25.3l-2.2,6.5c-1.4.7-2.9,1.3-4.3,1.9l.3-2.3,2.7-8.3,3.6,2.1Z"/>
        <path class="cls-2" d="m38.9,38.9l-4.4,19.2H13.6l-4.4-19.1s6.7,2.8,14.8,2.9c8.1,0,14.8-2.9,14.8-2.9Z"/>
      </g>
      <path class="cls-1" d="m36.9,47.5c5.5,0,5.9,4.3,8.6,4.3h0c2.7,0,3.4-4.3,8.5-4.3h12.5c1.9,0,3.4,1.8,3.4,4s-1.5,3.9-3.4,4c0,0-33,0-33.1,0-1.8-.2-3.2-1.9-3.2-4s1.4-3.8,3.2-4c0,0,3.5,0,3.5,0m0-4h0c-3.3,0-3.7,0-4,0-3.8.5-6.6,3.8-6.6,7.9s2.9,7.5,6.8,7.9h0c.9,0,5.1,0,33.5,0s0,0,.1,0c4.1-.1,7.3-3.6,7.3-8s-3.2-7.9-7.3-8c0,0,0,0-.1,0h-12.5c-4.6,0-7,2.4-8.4,3.8,0,0,0,0,0,0-1.4-1.5-3.8-3.8-8.6-3.8,0,0,0,0,0,0h0Z"/>
      <path class="cls-1" d="m50.1,31.2c11.2,0,18.1,6.6,18.1,13.2H31.9c0-6.6,7-13.2,18.2-13.2m0-4c-13.9,0-22.2,8.8-22.2,17.2s1.8,4,4,4h36.3c2.2,0,4-1.8,4-4,0-8.5-8.3-17.2-22.1-17.2h0Z"/>
      <path class="cls-1" d="m67.9,57.6c.2,3.1-.8,5.3-6.5,5.3-3.6,0-6.1,0-8.2,0-4.3,0-7.1,0-14.3,0s-6.7-2.1-6.4-5.3h35.5m0-4h-35.5c-2.1,0-3.8,1.6-4,3.7-.1,1.9,0,4.6,2,6.8,2.3,2.5,6,2.8,8.5,2.8,4.1,0,6.7,0,9,0,1.8,0,3.4,0,5.3,0s4.7,0,8.3,0c2.5,0,6.2-.3,8.5-2.9,2.3-2.5,2-5.7,2-6.7-.2-2.1-1.9-3.7-4-3.7h0Z"/>
      <path class="cls-2" d="m66.5,55.4s-33,0-33.1,0c-1.8-.2-3.2-1.9-3.2-4s1.4-3.8,3.2-4c0,0,3.5,0,3.5,0,5.5,0,5.9,4.3,8.6,4.3,2.7,0,3.4-4.3,8.5-4.3h12.5c1.9,0,3.4,1.8,3.4,4s-1.5,3.9-3.4,4Z"/>
      <path class="cls-2" d="m31.9,46.4c-1.1,0-2-.9-2-2,0-7.5,7.6-15.2,20.2-15.2s20.1,7.7,20.1,15.2-.9,2-2,2H31.9Z"/>
      <path class="cls-2" d="m67.9,57.6c.2,3.1-.8,5.3-6.5,5.3-10.8,0-11.7,0-22.6,0s-6.7-2.1-6.4-5.3h35.5Z"/>
    </g>
  </g>
</svg>