<?xml version="1.0" encoding="UTF-8"?>
<svg xmlns="http://www.w3.org/2000/svg" xmlns:xlink="http://www.w3.org/1999/xlink" viewBox="0 0 150.1 112.5">
  <defs>
    <style>
      .cls-1 {
        fill: #cdcaca;
      }

      .cls-2 {
        fill: #675f5d;
      }

      .cls-3 {
        fill: #948f8e;
      }

      .cls-4 {
        fill: #918c8b;
      }

      .cls-5 {
        fill: #9d9897;
      }

      .cls-6 {
        fill: #aaa6a5;
      }

      .cls-7 {
        fill: #4f4744;
      }

      .cls-8 {
        fill: #d7d5d5;
      }

      .cls-9 {
        fill: #807a78;
      }

      .cls-10 {
        fill: #c9c6c6;
      }

      .cls-11 {
        fill: #312724;
      }

      .cls-12 {
        fill: #514946;
      }

      .cls-13 {
        fill: #fff;
      }

      .cls-14 {
        fill: #2e2421;
      }

      .cls-15 {
        fill: #a19c9b;
      }

      .cls-16 {
        fill: #c2bfbe;
      }

      .cls-17 {
        fill: #392f2c;
      }

      .cls-18 {
        fill: #4e4643;
      }

      .cls-19 {
        fill: #d3d0d0;
      }

      .cls-20 {
        fill: #69615f;
      }

      .cls-21 {
        fill: #b3afae;
      }

      .cls-22 {
        fill: #c3c0bf;
      }

      .cls-23 {
        fill: #281d1a;
      }

      .cls-24 {
        fill: #918b89;
      }

      .cls-25 {
        fill: #463d3a;
      }

      .cls-26 {
        fill: #a09b9a;
      }

      .cls-27 {
        fill: #2a1f1c;
      }

      .cls-28 {
        fill: #423936;
      }

      .cls-29 {
        fill: #504845;
      }

      .cls-30 {
        fill: #3e3532;
      }

      .cls-31 {
        fill: #635b59;
      }

      .cls-32 {
        fill: #6c6462;
      }

      .cls-33 {
        fill: #b9b6b5;
      }

      .cls-34 {
        fill: #d1cece;
      }

      .cls-35 {
        fill: #6f6866;
      }

      .cls-36 {
        fill: #b5b2b1;
      }

      .cls-37 {
        fill: #58504d;
      }

      .cls-38 {
        fill: #989898;
      }

      .cls-39 {
        fill: #a4a09f;
      }

      .cls-40 {
        fill: #b4b1b0;
      }

      .cls-41 {
        fill: #6d6563;
      }

      .cls-42 {
        fill: #afabaa;
      }

      .cls-43 {
        fill: #49403d;
      }

      .cls-44 {
        fill: #928d8c;
      }

      .cls-45 {
        fill: #837d7b;
      }

      .cls-46 {
        fill: #3f3633;
      }

      .cls-47 {
        fill: #433a37;
      }

      .cls-48 {
        fill: #c4c1c0;
      }

      .cls-49 {
        fill: #989392;
      }

      .cls-50 {
        fill: #d0cdcd;
      }

      .cls-51 {
        fill: #2d2320;
      }

      .cls-52 {
        fill: #332926;
      }

      .cls-53 {
        fill: #322825;
      }

      .cls-54 {
        fill: #8c8684;
      }

      .cls-55 {
        fill: #b2b2b2;
      }

      .cls-56 {
        fill: #7c7573;
      }

      .cls-57 {
        fill: #766f6d;
      }

      .cls-58 {
        isolation: isolate;
      }

      .cls-59 {
        fill: #241916;
      }

      .cls-60 {
        fill: #746d6b;
      }

      .cls-61 {
        fill: #605856;
      }

      .cls-62 {
        fill: #a5a1a0;
      }

      .cls-63 {
        fill: #6b6361;
      }

      .cls-64 {
        fill: #cbc8c8;
      }

      .cls-65 {
        fill: #3b91a7;
      }

      .cls-66 {
        fill: #aeaaa9;
      }

      .cls-67 {
        fill: #6f6765;
      }

      .cls-68 {
        fill: #443b38;
      }

      .cls-69 {
        fill: #b0acab;
      }

      .cls-70 {
        fill: #736c6a;
      }

      .cls-71 {
        fill: #78716f;
      }

      .cls-72 {
        fill: #a9a5a4;
      }

      .cls-73 {
        fill: #534b48;
      }

      .cls-74 {
        fill: #827c7a;
      }

      .cls-75 {
        fill: #ccc9c9;
      }

      .cls-76 {
        fill: #ccc677;
      }

      .cls-77 {
        fill: #9b9695;
      }

      .cls-78 {
        fill: #544c49;
      }

      .cls-79 {
        fill: #5f5755;
      }

      .cls-80 {
        fill: #aca8a7;
      }

      .cls-81 {
        fill: #bcb9b8;
      }

      .cls-82 {
        fill: #302623;
      }

      .cls-83 {
        fill: #726b69;
      }

      .cls-84 {
        fill: #5d5452;
      }

      .cls-85 {
        fill: #4c4340;
      }

      .cls-86 {
        fill: #333;
      }

      .cls-87 {
        fill: #d6d4d4;
      }

      .cls-88 {
        fill: #7d7674;
      }

      .cls-89 {
        fill: #c4c2c1;
      }

      .cls-90 {
        fill: #908a88;
      }

      .cls-91 {
        fill: #473e3b;
      }

      .cls-92 {
        fill: #a29d9c;
      }

      .cls-93 {
        fill: #8a8482;
      }

      .cls-94 {
        fill: #524a47;
      }

      .cls-95 {
        fill: #c0bdbc;
      }

      .cls-96 {
        fill: #b6b3b2;
      }

      .cls-97 {
        fill: #413835;
      }

      .cls-98 {
        fill: #b2aead;
      }

      .cls-99 {
        fill: #2c221f;
      }

      .cls-100 {
        fill: #4d4441;
      }

      .cls-101 {
        fill: #9c9796;
      }

      .cls-102 {
        fill: #271c19;
      }

      .cls-103 {
        fill: #857f7d;
      }

      .cls-104 {
        fill: #6a6260;
      }

      .cls-105 {
        fill: #59514e;
      }

      .cls-106 {
        fill: #4d4542;
      }

      .cls-107 {
        fill: #564e4b;
      }

      .cls-108 {
        fill: #bbb8b7;
      }

      .cls-109 {
        fill: #554d4a;
      }

      .cls-110 {
        fill: #362c29;
      }

      .cls-111 {
        fill: #68605e;
      }

      .cls-112 {
        fill: #787955;
      }

      .cls-113 {
        fill: #ada9a8;
      }

      .cls-114 {
        fill: #87817f;
      }

      .cls-115 {
        fill: #352b28;
      }

      .cls-116 {
        fill: #706967;
      }

      .cls-117 {
        fill: #a29e9d;
      }

      .cls-118 {
        fill: #817b79;
      }

      .cls-119 {
        fill: #77706e;
      }

      .cls-120 {
        fill: #3d3431;
      }

      .cls-121 {
        fill: #bebbba;
      }

      .cls-122 {
        fill: #969190;
      }

      .cls-123 {
        fill: #e5e5e5;
      }

      .cls-124 {
        fill: #d4d1d1;
      }

      .cls-125 {
        fill: #a7a3a2;
      }

      .cls-126 {
        fill: #95908f;
      }

      .cls-127 {
        fill: #372d2a;
      }

      .cls-128 {
        fill: #3c322f;
      }

      .cls-129 {
        fill: #403734;
      }

      .cls-130 {
        fill: #382e2b;
      }

      .cls-131 {
        fill: #7b7472;
      }

      .cls-132 {
        fill: #3a302d;
      }

      .cls-133 {
        clip-path: url(#clippath);
      }

      .cls-134 {
        fill: #c7c5c4;
      }

      .cls-135 {
        fill: #756e6c;
      }

      .cls-136 {
        fill: #63aabb;
      }

      .cls-137 {
        fill: #574f4c;
      }

      .cls-138 {
        fill: #5c5351;
      }

      .cls-139 {
        fill: #b3b0af;
      }

      .cls-140 {
        fill: #bab7b6;
      }

      .cls-141 {
        fill: #4a413e;
      }

      .cls-142, .cls-143 {
        fill: none;
      }

      .cls-144 {
        fill: #2b211e;
      }

      .cls-145 {
        fill: #645c5a;
      }

      .cls-146 {
        fill: #4b423f;
      }

      .cls-147 {
        fill: #453c39;
      }

      .cls-148 {
        fill: #2b201d;
      }

      .cls-143 {
        stroke: #333;
        stroke-width: 2px;
      }

      .cls-149 {
        fill: #2f2522;
      }

      .cls-150 {
        fill: #c6c4c3;
      }

      .cls-151 {
        fill: #5e5654;
      }

      .cls-152 {
        fill: #c8c5c5;
      }

      .cls-153 {
        fill: #d2cfcf;
      }

      .cls-154 {
        fill: #251a17;
      }

      .cls-155 {
        fill: #665e5c;
      }

      .cls-156 {
        fill: #9e9998;
      }

      .cls-157 {
        fill: #a6a2a1;
      }

      .cls-158 {
        fill: #c1bebd;
      }

      .cls-159 {
        fill: #b7b4b3;
      }

      .cls-160 {
        fill: #d5d3d3;
      }

      .cls-161 {
        fill: #797270;
      }

      .cls-162 {
        fill: #615957;
      }

      .cls-163 {
        fill: #8e8886;
      }

      .cls-164 {
        fill: #938e8d;
      }

      .cls-165 {
        fill: #8b8583;
      }

      .cls-166 {
        fill: #8f8987;
      }

      .cls-167 {
        fill: #cfcccc;
      }

      .cls-168 {
        fill: #716a68;
      }

      .cls-169 {
        fill: #999493;
      }

      .cls-170 {
        fill: #aba7a6;
      }

      .cls-171 {
        fill: #5b5250;
      }

      .cls-172 {
        mask: url(#mask);
      }

      .cls-173 {
        fill: #5e5553;
      }

      .cls-174 {
        fill: #a8a4a3;
      }

      .cls-175 {
        fill: #a39f9e;
      }

      .cls-176 {
        fill: #847e7c;
      }

      .cls-177 {
        fill: #5c6875;
      }

      .cls-178 {
        fill: #655d5b;
      }

      .cls-179 {
        fill: #888280;
      }

      .cls-180 {
        fill: #c5c3c2;
      }

      .cls-181 {
        fill: #231815;
      }

      .cls-182 {
        fill: #9a9594;
      }

      .cls-183 {
        fill: #3b312e;
      }

      .cls-184 {
        fill: #bfbcbb;
      }

      .cls-185 {
        fill: #86807e;
      }

      .cls-186 {
        fill: #7a7371;
      }

      .cls-187 {
        fill: #bdbab9;
      }

      .cls-188 {
        fill: #342a27;
      }

      .cls-189 {
        fill: #625a58;
      }

      .cls-190 {
        fill: #7f7876;
      }

      .cls-191 {
        fill: #cecbcb;
      }

      .cls-192 {
        mix-blend-mode: multiply;
      }

      .cls-193 {
        fill: #291e1b;
      }

      .cls-194 {
        fill: #898381;
      }

      .cls-195 {
        fill: #979291;
      }

      .cls-196 {
        fill: #6e6664;
      }

      .cls-197 {
        fill: #9f9a99;
      }

      .cls-198 {
        fill: #b8b5b4;
      }

      .cls-199 {
        fill: #7e7775;
      }

      .cls-200 {
        fill: #8d8785;
      }

      .cls-201 {
        fill: #807977;
      }

      .cls-202 {
        fill: #261b18;
      }

      .cls-203 {
        fill: #d5d2d2;
      }

      .cls-204 {
        fill: #cac7c7;
      }

      .cls-205 {
        fill: #3c3330;
      }

      .cls-206 {
        fill: #5a524f;
      }

      .cls-207 {
        fill: #483f3c;
      }

      .cls-208 {
        fill: #b1adac;
      }
    </style>
    <mask id="mask" x=".2" y="0" width="150.6" height="112.5" maskUnits="userSpaceOnUse">
      <rect class="cls-13" x=".5" y="49.5" width="150" height="63"/>
    </mask>
    <clipPath id="clippath">
      <path class="cls-142" d="m1,108.8C14,73.8,27,38.7,40,3.7,40.8,1.7,43.1,0,45.2,0h60.5C107.9,0,110.2,1.7,111,3.7c13,35,26,70,39,105,.8,2.1-2.4,3.7-7.2,3.7H8.2c-4.7,0-7.9-1.7-7.2-3.7ZM109.7,3.7c-.5-1.4-2.1-2.5-3.5-2.5h-61.3c-1.4,0-3,1.1-3.5,2.5C28.8,38.7,16.2,73.8,3.7,108.8c-.5,1.4,1.7,2.5,4.9,2.5h133.9c3.2,0,5.4-1.1,4.9-2.5-12.5-35-25.1-70-37.6-105Z"/>
    </clipPath>
  </defs>
  <g class="cls-58">
    <g id="_레이어_2" data-name="레이어 2">
      <g id="_레이어_1-2" data-name="레이어 1">
        <g>
          <g>
            <g>
              <path class="cls-177" d="m20,68.5c-.7,0-1.4,0-2.1-.1-.3,0-.7,0-1-.1-.3,0-.6-.1-.9-.2-8.3-1.9-14-9.1-14-17.5s1.9-9.3,5.3-12.7c3.4-3.4,7.9-5.3,12.7-5.3h110c9.9,0,18,8.1,18,18s-1.9,9.3-5.3,12.7c-2.2,2.2-4.9,3.8-7.8,4.6-.3,0-.6.2-.9.2-.4,0-.7.1-1,.2-1,.2-2,.3-3,.3H20Z"/>
              <path class="cls-55" d="m130,33.5c9.4,0,17,7.6,17,17s-1.8,8.8-5,12c-2.1,2.1-4.6,3.6-7.4,4.3-.3,0-.6.2-.8.2h0s0,0,0,0c-.2,0-.4.1-.8.2h0s0,0,0,0c-.9.2-1.8.2-2.8.2H20c-.7,0-1.3,0-2-.1-.3,0-.6,0-.9-.1h0s0,0,0,0c-.3,0-.5,0-.8-.2h0s0,0,0,0c-7.8-1.8-13.2-8.6-13.2-16.6s1.8-8.8,5-12c3.2-3.2,7.5-5,12-5h110m0-2H20c-5.2,0-10,2.1-13.4,5.6-3.4,3.4-5.6,8.2-5.6,13.4,0,9,6.3,16.6,14.8,18.5.3,0,.7.2,1,.2.3,0,.7.1,1,.2.7,0,1.5.1,2.2.1h110c1.1,0,2.1,0,3.2-.3.3,0,.7-.1,1-.2.3,0,.7-.2,1-.2,3.2-.9,6-2.6,8.3-4.9,3.4-3.4,5.6-8.2,5.6-13.4,0-10.5-8.5-19-19-19h0Z"/>
              <path class="cls-143" d="m149,50.5c0,5.2-2.1,10-5.6,13.4-2.3,2.3-5.1,4-8.3,4.9-.3,0-.7.2-1,.2-.3,0-.7.1-1,.2-1,.2-2.1.3-3.2.3H20c-.7,0-1.5,0-2.2-.1-.4,0-.7,0-1-.2-.3,0-.7-.1-1-.2-8.4-1.9-14.8-9.5-14.8-18.5s2.1-10,5.6-13.4c3.4-3.4,8.2-5.6,13.4-5.6h110c10.5,0,19,8.5,19,19Z"/>
            </g>
            <g>
              <rect class="cls-86" x="20" y="46.5" width="110" height="8" rx="4" ry="4"/>
              <path class="cls-38" d="m126,46.5c2.2,0,4,1.8,4,4s-1.8,4-4,4H24c-2.2,0-4-1.8-4-4s1.8-4,4-4h102m0-1H24c-2.8,0-5,2.2-5,5s2.2,5,5,5h102c2.8,0,5-2.2,5-5s-2.2-5-5-5h0Z"/>
            </g>
          </g>
          <g class="cls-172">
            <g>
              <g>
                <g>
                  <path class="cls-123" d="m148.3,107.9c-4.7-13-9.4-25.9-14.2-38.8-1.9-5.1-3.8-10.3-5.6-15.4-.9-2.4-1.7-4.7-2.6-7.1-1.8-5-3.6-10-5.5-15H30.5c-1.8,5-3.7,10-5.5,15-.9,2.5-1.9,5.1-2.8,7.6-1.8,5-3.7,10.1-5.5,15.1-4.7,12.9-9.4,25.8-14.1,38.7-.8,2.2,1,4,4.1,4h137.5c3.1,0,4.9-1.8,4.1-4Z"/>
                  <path class="cls-55" d="m150,108.8c-4.9-13.3-9.9-26.7-14.9-40-2-5.3-4-10.6-5.9-15.9-.8-2.1-1.5-4.2-2.3-6.2-1.9-5-3.7-10.1-5.6-15.1h-1.7c1.8,5,3.6,10,5.4,15,.9,2.5,1.8,5.1,2.7,7.6,1.8,5,3.6,10.1,5.4,15.1,4.7,13.2,9.4,26.4,14.2,39.5.5,1.4-1.7,2.5-4.9,2.5H8.6c-3.2,0-5.4-1.1-4.9-2.5,4.7-13.1,9.4-26.3,14.1-39.4,1.8-5,3.6-10,5.4-15,.9-2.6,1.9-5.3,2.8-7.9,1.8-5,3.6-10,5.4-15h-1.7c-1.9,5-3.7,10-5.6,15-.9,2.4-1.8,4.7-2.6,7.1-1.9,5.1-3.8,10.3-5.7,15.4-4.9,13.2-9.8,26.5-14.8,39.8-.8,2.1,2.4,3.7,7.2,3.7h134.7c4.7,0,8-1.7,7.2-3.7Z"/>
                </g>
                <g>
                  <path class="cls-76" d="m63.2,31.5c.6.6,1.6,1,2.7,1h24c1.1,0,2.1-.4,2.7-1h-29.3Z"/>
                  <path class="cls-112" d="m91.3,31.5c-.4.2-.9.4-1.5.4h-23.9c-.6,0-1.1-.1-1.6-.4h-2.2c.6.9,2,1.6,3.7,1.6h24.1c1.6,0,3-.6,3.6-1.6h-2.2Z"/>
                </g>
                <path class="cls-136" d="m79.2,101.1c-8.7,0-15.5-3.2-15.2-7.2.3-4,7-7.2,14.9-7.2,7.9,0,14.7,3.2,15.2,7.2.5,4-6.2,7.2-14.9,7.2Z"/>
                <path class="cls-65" d="m79,92c-8.3,0-14.8-3.2-14.5-7.2.3-4,6.7-7.2,14.2-7.2,7.5,0,14,3.2,14.5,7.2.5,4-5.9,7.2-14.2,7.2Z"/>
                <g>
                  <path class="cls-65" d="m115.8,60.9c-.4-1.4-2.2-2.4-5.1-2.4s-4.2,1-3.9,2.4c.3,1.4,2.1,2.2,3.7,2.3,0-.4-.2-.8-.3-1.2-.9,0-1.5-.5-1.6-1-.2-.7.6-1.2,2.4-1.2s2.8.5,3,1.2c.2.6-.3.9-1.2,1,.1.4.2.8.3,1.2,2.1-.1,3.1-1,2.7-2.3Z"/>
                  <path class="cls-65" d="m117,66c-.2-.7-.4-1.4-.6-2.1h-8.9c0,.4.2.8.2,1.2h3.1c0,.2,0,.4.1.7-1,.3-1.9.6-2.9.9,0,.4.2.9.3,1.3,1.1-.4,2.2-.7,3.3-1.1.6.6,1.6.9,2.8.9,1.9,0,2.9-.7,2.6-1.9Zm-2.8.6c-.9,0-1.3-.3-1.5-.9,0-.2,0-.4-.1-.6h2.5c0,.2.1.4.2.6.1.6-.2.9-1.1.9Z"/>
                  <path class="cls-65" d="m117.9,69.5c0-.3-.2-.7-.3-1h-9.2c0,.3.1.7.2,1,.2.8.3,1.7.5,2.5h1.8c-.2-.8-.3-1.6-.5-2.3h2c.2.7.3,1.4.5,2.2h1.8c-.2-.7-.3-1.4-.5-2.2h2c.2.8.4,1.6.6,2.3h1.8c-.2-.9-.4-1.7-.7-2.5Z"/>
                  <path class="cls-65" d="m119.3,74.7c-.2-.6-.3-1.2-.5-1.9h-9.4c.1.6.2,1.2.4,1.9.3,1.6,2.3,2.5,5.4,2.5s4.6-1,4.2-2.5Zm-4.5,1.3c-2.1,0-3-.5-3.2-1.4,0-.2,0-.4-.1-.6h5.7c0,.2.1.4.2.6.2.9-.4,1.4-2.5,1.4Z"/>
                  <path class="cls-65" d="m120.1,77.9h-9.8c0,.4.2.8.2,1.2h9.8c0-.4-.2-.8-.3-1.2Z"/>
                  <path class="cls-65" d="m120.6,79.7h-1.9c.1.5.3,1,.4,1.6h-8c0,.4.2.8.2,1.2h8.1l.4,1.6h1.9c-.4-1.4-.8-2.9-1.1-4.3Z"/>
                  <path class="cls-65" d="m123.1,88.6c-.4-1.4-2.5-2.4-5.9-2.4s-5,1-4.8,2.4c.3,1.4,2.4,2.2,4.3,2.3,0-.4-.2-.8-.3-1.2-1,0-1.7-.5-1.8-1-.2-.7.8-1.2,2.9-1.2s3.3.5,3.5,1.2c.1.6-.4.9-1.5,1,.1.4.2.8.3,1.2,2.5-.1,3.7-1,3.3-2.3Z"/>
                  <path class="cls-65" d="m124.1,92.9c-3.7-.6-7.3-1.2-11-1.7,0,.4.2.9.3,1.3.8.1,1.6.2,2.3.3.1.6.2,1.2.4,1.8-.7.1-1.5.2-2.2.3,0,.4.2.9.3,1.3,3.5-.6,6.9-1.2,10.3-1.7-.1-.5-.3-1.1-.4-1.6Zm-6.1,1.4c0-.4-.2-.8-.3-1.2,1.3.2,2.6.4,4,.6,0,0,0,0,0,0-1.2.2-2.5.4-3.7.6Z"/>
                  <path class="cls-65" d="m125.6,98.8c-.2-.7-.4-1.4-.5-2.1h-10.8c0,.4.2.8.2,1.2h3.8c0,.2.1.5.2.7-1.2.3-2.4.6-3.6.9,0,.4.2.9.3,1.3,1.3-.4,2.7-.7,4-1.1.7.6,1.8.9,3.4.9,2.3,0,3.5-.7,3.2-1.9Zm-3.5.6c-1,0-1.6-.3-1.7-.9,0-.2,0-.4-.1-.6h3c0,.2,0,.4.2.6.1.6-.3.9-1.3.9Z"/>
                  <path class="cls-65" d="m126.8,103.2c-.2-.6-.3-1.2-.5-1.9h-11.1c.1.6.3,1.2.4,1.9.3,1.6,2.6,2.5,6.2,2.5s5.4-1,5-2.5Zm-5.3,1.3c-2.4,0-3.5-.5-3.7-1.4,0-.2,0-.4-.1-.6h6.7c0,.2,0,.4.2.6.2.9-.6,1.4-3,1.4Z"/>
                </g>
              </g>
              <g class="cls-192">
                <g class="cls-133">
                  <rect class="cls-203" x="3.2" y="111" width="144.6" height=".3"/>
                  <rect class="cls-124" x="3.2" y="110.6" width="144.6" height=".4"/>
                  <rect class="cls-19" x="3.2" y="110.2" width="144.6" height=".4"/>
                  <rect class="cls-153" x="3.2" y="109.8" width="144.6" height=".4"/>
                  <rect class="cls-34" x="3.2" y="109.4" width="144.6" height=".4"/>
                  <rect class="cls-50" x="3.2" y="109" width="144.6" height=".4"/>
                  <rect class="cls-167" x="3.2" y="108.6" width="144.6" height=".4"/>
                  <rect class="cls-191" x="3.2" y="108.2" width="144.6" height=".4"/>
                  <rect class="cls-1" x="3.2" y="107.8" width="144.6" height=".4"/>
                  <rect class="cls-75" x="3.2" y="107.4" width="144.6" height=".4"/>
                  <rect class="cls-64" x="3.2" y="107" width="144.6" height=".4"/>
                  <rect class="cls-204" x="3.2" y="106.6" width="144.6" height=".4"/>
                  <rect class="cls-10" x="3.2" y="106.2" width="144.6" height=".4"/>
                  <rect class="cls-152" x="3.2" y="105.8" width="144.6" height=".4"/>
                  <rect class="cls-134" x="3.2" y="105.4" width="144.6" height=".4"/>
                  <rect class="cls-150" x="3.2" y="105" width="144.6" height=".4"/>
                  <rect class="cls-180" x="3.2" y="104.6" width="144.6" height=".4"/>
                  <rect class="cls-89" x="3.2" y="104.2" width="144.6" height=".4"/>
                  <rect class="cls-48" x="3.2" y="103.8" width="144.6" height=".4"/>
                  <rect class="cls-22" x="3.2" y="103.4" width="144.6" height=".4"/>
                  <rect class="cls-16" x="3.2" y="103" width="144.6" height=".4"/>
                  <rect class="cls-158" x="3.2" y="102.6" width="144.6" height=".4"/>
                  <rect class="cls-95" x="3.2" y="102.2" width="144.6" height=".4"/>
                  <rect class="cls-184" x="3.2" y="101.8" width="144.6" height=".4"/>
                  <rect class="cls-121" x="3.2" y="101.4" width="144.6" height=".4"/>
                  <rect class="cls-187" x="3.2" y="101" width="144.6" height=".4"/>
                  <rect class="cls-81" x="3.2" y="100.6" width="144.6" height=".4"/>
                  <rect class="cls-108" x="3.2" y="100.2" width="144.6" height=".4"/>
                  <rect class="cls-140" x="3.2" y="99.8" width="144.6" height=".4"/>
                  <rect class="cls-33" x="3.2" y="99.5" width="144.6" height=".4"/>
                  <rect class="cls-198" x="3.2" y="99.1" width="144.6" height=".4"/>
                  <rect class="cls-159" x="3.2" y="98.7" width="144.6" height=".4"/>
                  <rect class="cls-96" x="3.2" y="98.3" width="144.6" height=".4"/>
                  <rect class="cls-36" x="3.2" y="97.9" width="144.6" height=".4"/>
                  <rect class="cls-40" x="3.2" y="97.5" width="144.6" height=".4"/>
                  <rect class="cls-139" x="3.2" y="97.1" width="144.6" height=".4"/>
                  <rect class="cls-21" x="3.2" y="96.7" width="144.6" height=".4"/>
                  <rect class="cls-98" x="3.2" y="96.3" width="144.6" height=".4"/>
                  <rect class="cls-208" x="3.2" y="95.9" width="144.6" height=".4"/>
                  <rect class="cls-69" x="3.2" y="95.5" width="144.6" height=".4"/>
                  <rect class="cls-42" x="3.2" y="95.1" width="144.6" height=".4"/>
                  <rect class="cls-66" x="3.2" y="94.7" width="144.6" height=".4"/>
                  <rect class="cls-113" x="3.2" y="94.3" width="144.6" height=".4"/>
                  <rect class="cls-80" x="3.2" y="93.9" width="144.6" height=".4"/>
                  <rect class="cls-170" x="3.2" y="93.5" width="144.6" height=".4"/>
                  <rect class="cls-6" x="3.2" y="93.1" width="144.6" height=".4"/>
                  <rect class="cls-72" x="3.2" y="92.7" width="144.6" height=".4"/>
                  <rect class="cls-174" x="3.2" y="92.3" width="144.6" height=".4"/>
                  <rect class="cls-125" x="3.2" y="91.9" width="144.6" height=".4"/>
                  <rect class="cls-157" x="3.2" y="91.5" width="144.6" height=".4"/>
                  <rect class="cls-62" x="3.2" y="91.1" width="144.6" height=".4"/>
                  <rect class="cls-39" x="3.2" y="90.7" width="144.6" height=".4"/>
                  <rect class="cls-175" x="3.2" y="90.3" width="144.6" height=".4"/>
                  <rect class="cls-117" x="3.2" y="89.9" width="144.6" height=".4"/>
                  <rect class="cls-92" x="3.2" y="89.5" width="144.6" height=".4"/>
                  <rect class="cls-15" x="3.2" y="89.1" width="144.6" height=".4"/>
                  <rect class="cls-26" x="3.2" y="88.7" width="144.6" height=".4"/>
                  <rect class="cls-197" x="3.2" y="88.3" width="144.6" height=".4"/>
                  <rect class="cls-156" x="3.2" y="87.9" width="144.6" height=".4"/>
                  <rect class="cls-5" x="3.2" y="87.5" width="144.6" height=".4"/>
                  <rect class="cls-101" x="3.2" y="87.1" width="144.6" height=".4"/>
                  <rect class="cls-77" x="3.2" y="86.7" width="144.6" height=".4"/>
                  <rect class="cls-182" x="3.2" y="86.3" width="144.6" height=".4"/>
                  <rect class="cls-169" x="3.2" y="85.9" width="144.6" height=".4"/>
                  <rect class="cls-49" x="3.2" y="85.5" width="144.6" height=".4"/>
                  <rect class="cls-195" x="3.2" y="85.1" width="144.6" height=".4"/>
                  <rect class="cls-122" x="3.2" y="84.7" width="144.6" height=".4"/>
                  <rect class="cls-126" x="3.2" y="84.3" width="144.6" height=".4"/>
                  <rect class="cls-3" x="3.2" y="83.9" width="144.6" height=".4"/>
                  <rect class="cls-164" x="3.2" y="83.5" width="144.6" height=".4"/>
                  <rect class="cls-44" x="3.2" y="83.1" width="144.6" height=".4"/>
                  <rect class="cls-4" x="3.2" y="82.7" width="144.6" height=".4"/>
                  <rect class="cls-24" x="3.2" y="82.3" width="144.6" height=".4"/>
                  <rect class="cls-90" x="3.2" y="81.9" width="144.6" height=".4"/>
                  <rect class="cls-166" x="3.2" y="81.5" width="144.6" height=".4"/>
                  <rect class="cls-163" x="3.2" y="81.1" width="144.6" height=".4"/>
                  <rect class="cls-200" x="3.2" y="80.7" width="144.6" height=".4"/>
                  <rect class="cls-54" x="3.2" y="80.3" width="144.6" height=".4"/>
                  <rect class="cls-165" x="3.2" y="79.9" width="144.6" height=".4"/>
                  <rect class="cls-93" x="3.2" y="79.5" width="144.6" height=".4"/>
                  <rect class="cls-194" x="3.2" y="79.2" width="144.6" height=".4"/>
                  <rect class="cls-179" x="3.2" y="78.8" width="144.6" height=".4"/>
                  <rect class="cls-114" x="3.2" y="78.4" width="144.6" height=".4"/>
                  <rect class="cls-185" x="3.2" y="78" width="144.6" height=".4"/>
                  <rect class="cls-103" x="3.2" y="77.6" width="144.6" height=".4"/>
                  <rect class="cls-176" x="3.2" y="77.2" width="144.6" height=".4"/>
                  <rect class="cls-45" x="3.2" y="76.8" width="144.6" height=".4"/>
                  <rect class="cls-74" x="3.2" y="76.4" width="144.6" height=".4"/>
                  <rect class="cls-118" x="3.2" y="76" width="144.6" height=".4"/>
                  <rect class="cls-9" x="3.2" y="75.6" width="144.6" height=".4"/>
                  <rect class="cls-201" x="3.2" y="75.2" width="144.6" height=".4"/>
                  <rect class="cls-190" x="3.2" y="74.8" width="144.6" height=".4"/>
                  <rect class="cls-199" x="3.2" y="74.4" width="144.6" height=".4"/>
                  <rect class="cls-88" x="3.2" y="74" width="144.6" height=".4"/>
                  <rect class="cls-56" x="3.2" y="73.6" width="144.6" height=".4"/>
                  <rect class="cls-131" x="3.2" y="73.2" width="144.6" height=".4"/>
                  <rect class="cls-186" x="3.2" y="72.8" width="144.6" height=".4"/>
                  <rect class="cls-161" x="3.2" y="72.4" width="144.6" height=".4"/>
                  <rect class="cls-71" x="3.2" y="72" width="144.6" height=".4"/>
                  <rect class="cls-119" x="3.2" y="71.6" width="144.6" height=".4"/>
                  <rect class="cls-57" x="3.2" y="71.2" width="144.6" height=".4"/>
                  <rect class="cls-135" x="3.2" y="70.8" width="144.6" height=".4"/>
                  <rect class="cls-60" x="3.2" y="70.4" width="144.6" height=".4"/>
                  <rect class="cls-70" x="3.2" y="70" width="144.6" height=".4"/>
                  <rect class="cls-83" x="3.2" y="69.6" width="144.6" height=".4"/>
                  <rect class="cls-168" x="3.2" y="69.2" width="144.6" height=".4"/>
                  <rect class="cls-116" x="3.2" y="68.8" width="144.6" height=".4"/>
                  <rect class="cls-35" x="3.2" y="68.4" width="144.6" height=".4"/>
                  <rect class="cls-67" x="3.2" y="68" width="144.6" height=".4"/>
                  <rect class="cls-196" x="3.2" y="67.6" width="144.6" height=".4"/>
                  <rect class="cls-41" x="3.2" y="67.2" width="144.6" height=".4"/>
                  <rect class="cls-32" x="3.2" y="66.8" width="144.6" height=".4"/>
                  <rect class="cls-63" x="3.2" y="66.4" width="144.6" height=".4"/>
                  <rect class="cls-104" x="3.2" y="66" width="144.6" height=".4"/>
                  <rect class="cls-20" x="3.2" y="65.6" width="144.6" height=".4"/>
                  <rect class="cls-111" x="3.2" y="65.2" width="144.6" height=".4"/>
                  <rect class="cls-2" x="3.2" y="64.8" width="144.6" height=".4"/>
                  <rect class="cls-155" x="3.2" y="64.4" width="144.6" height=".4"/>
                  <rect class="cls-178" x="3.2" y="64" width="144.6" height=".4"/>
                  <rect class="cls-145" x="3.2" y="63.6" width="144.6" height=".4"/>
                  <rect class="cls-31" x="3.2" y="63.2" width="144.6" height=".4"/>
                  <rect class="cls-189" x="3.2" y="62.8" width="144.6" height=".4"/>
                  <rect class="cls-162" x="3.2" y="62.4" width="144.6" height=".4"/>
                  <rect class="cls-61" x="3.2" y="62" width="144.6" height=".4"/>
                  <rect class="cls-79" x="3.2" y="61.6" width="144.6" height=".4"/>
                  <rect class="cls-151" x="3.2" y="61.2" width="144.6" height=".4"/>
                  <rect class="cls-173" x="3.2" y="60.8" width="144.6" height=".4"/>
                  <rect class="cls-84" x="3.2" y="60.4" width="144.6" height=".4"/>
                  <rect class="cls-138" x="3.2" y="60" width="144.6" height=".4"/>
                  <rect class="cls-171" x="3.2" y="59.6" width="144.6" height=".4"/>
                  <rect class="cls-206" x="3.2" y="59.3" width="144.6" height=".4"/>
                  <rect class="cls-105" x="3.2" y="58.9" width="144.6" height=".4"/>
                  <rect class="cls-37" x="3.2" y="58.5" width="144.6" height=".4"/>
                  <rect class="cls-137" x="3.2" y="58.1" width="144.6" height=".4"/>
                  <rect class="cls-107" x="3.2" y="57.7" width="144.6" height=".4"/>
                  <rect class="cls-109" x="3.2" y="57.3" width="144.6" height=".4"/>
                  <rect class="cls-78" x="3.2" y="56.9" width="144.6" height=".4"/>
                  <rect class="cls-73" x="3.2" y="56.5" width="144.6" height=".4"/>
                  <rect class="cls-94" x="3.2" y="56.1" width="144.6" height=".4"/>
                  <rect class="cls-12" x="3.2" y="55.7" width="144.6" height=".4"/>
                  <rect class="cls-29" x="3.2" y="55.3" width="144.6" height=".4"/>
                  <rect class="cls-7" x="3.2" y="54.9" width="144.6" height=".4"/>
                  <rect class="cls-18" x="3.2" y="54.5" width="144.6" height=".4"/>
                  <rect class="cls-106" x="3.2" y="54.1" width="144.6" height=".4"/>
                  <rect class="cls-100" x="3.2" y="53.7" width="144.6" height=".4"/>
                  <rect class="cls-85" x="3.2" y="53.3" width="144.6" height=".4"/>
                  <rect class="cls-146" x="3.2" y="52.9" width="144.6" height=".4"/>
                  <rect class="cls-141" x="3.2" y="52.5" width="144.6" height=".4"/>
                  <rect class="cls-43" x="3.2" y="52.1" width="144.6" height=".4"/>
                  <rect class="cls-207" x="3.2" y="51.7" width="144.6" height=".4"/>
                  <rect class="cls-91" x="3.2" y="51.3" width="144.6" height=".4"/>
                  <rect class="cls-25" x="3.2" y="50.9" width="144.6" height=".4"/>
                  <rect class="cls-147" x="3.2" y="50.5" width="144.6" height=".4"/>
                  <rect class="cls-68" x="3.2" y="50.1" width="144.6" height=".4"/>
                  <rect class="cls-47" x="3.2" y="49.7" width="144.6" height=".4"/>
                  <rect class="cls-28" x="3.2" y="49.3" width="144.6" height=".4"/>
                  <rect class="cls-97" x="3.2" y="48.9" width="144.6" height=".4"/>
                  <rect class="cls-129" x="3.2" y="48.5" width="144.6" height=".4"/>
                  <rect class="cls-46" x="3.2" y="48.1" width="144.6" height=".4"/>
                  <rect class="cls-30" x="3.2" y="47.7" width="144.6" height=".4"/>
                  <rect class="cls-120" x="3.2" y="47.3" width="144.6" height=".4"/>
                  <rect class="cls-205" x="3.2" y="46.9" width="144.6" height=".4"/>
                  <rect class="cls-128" x="3.2" y="46.5" width="144.6" height=".4"/>
                  <rect class="cls-183" x="3.2" y="46.1" width="144.6" height=".4"/>
                  <rect class="cls-132" x="3.2" y="45.7" width="144.6" height=".4"/>
                  <rect class="cls-17" x="3.2" y="45.3" width="144.6" height=".4"/>
                  <rect class="cls-130" x="3.2" y="44.9" width="144.6" height=".4"/>
                  <rect class="cls-127" x="3.2" y="44.5" width="144.6" height=".4"/>
                  <rect class="cls-110" x="3.2" y="44.1" width="144.6" height=".4"/>
                  <rect class="cls-115" x="3.2" y="43.7" width="144.6" height=".4"/>
                  <rect class="cls-188" x="3.2" y="43.3" width="144.6" height=".4"/>
                  <rect class="cls-52" x="3.2" y="42.9" width="144.6" height=".4"/>
                  <rect class="cls-53" x="3.2" y="42.5" width="144.6" height=".4"/>
                  <rect class="cls-11" x="3.2" y="42.1" width="144.6" height=".4"/>
                  <rect class="cls-82" x="3.2" y="41.7" width="144.6" height=".4"/>
                  <rect class="cls-149" x="3.2" y="41.3" width="144.6" height=".4"/>
                  <rect class="cls-14" x="3.2" y="40.9" width="144.6" height=".4"/>
                  <rect class="cls-51" x="3.2" y="40.5" width="144.6" height=".4"/>
                  <rect class="cls-99" x="3.2" y="40.1" width="144.6" height=".4"/>
                  <rect class="cls-144" x="3.2" y="39.7" width="144.6" height=".4"/>
                  <rect class="cls-148" x="3.2" y="39.3" width="144.6" height=".4"/>
                  <rect class="cls-27" x="3.2" y="39" width="144.6" height=".4"/>
                  <rect class="cls-193" x="3.2" y="38.6" width="144.6" height=".4"/>
                  <rect class="cls-23" x="3.2" y="38.2" width="144.6" height=".4"/>
                  <rect class="cls-102" x="3.2" y="37.8" width="144.6" height=".4"/>
                  <rect class="cls-202" x="3.2" y="37.4" width="144.6" height=".4"/>
                  <rect class="cls-154" x="3.2" y="37" width="144.6" height=".4"/>
                  <rect class="cls-59" x="3.2" y="36.6" width="144.6" height=".4"/>
                  <rect class="cls-181" x="3.2" y="36.2" width="144.6" height=".4"/>
                  <rect class="cls-181" x="3.2" y="1.2" width="144.6" height="35"/>
                  <rect class="cls-8" x=".2" y="112.2" width="150.6" height=".3"/>
                  <rect class="cls-87" x=".2" y="111.8" width="150.6" height=".4"/>
                  <rect class="cls-160" x=".2" y="111.4" width="150.6" height=".4"/>
                  <rect class="cls-203" x=".2" y="111" width="150.6" height=".4"/>
                  <rect class="cls-124" x=".2" y="110.6" width="150.6" height=".4"/>
                  <rect class="cls-19" x=".2" y="110.2" width="150.6" height=".4"/>
                  <rect class="cls-153" x=".2" y="109.8" width="150.6" height=".4"/>
                  <rect class="cls-34" x=".2" y="109.4" width="150.6" height=".4"/>
                  <rect class="cls-50" x=".2" y="109" width="150.6" height=".4"/>
                  <rect class="cls-167" x=".2" y="108.6" width="150.6" height=".4"/>
                  <rect class="cls-191" x=".2" y="108.2" width="150.6" height=".4"/>
                  <rect class="cls-1" x=".2" y="107.8" width="150.6" height=".4"/>
                  <rect class="cls-75" x=".2" y="107.4" width="150.6" height=".4"/>
                  <rect class="cls-64" x=".2" y="107" width="150.6" height=".4"/>
                  <rect class="cls-204" x=".2" y="106.6" width="150.6" height=".4"/>
                  <rect class="cls-10" x=".2" y="106.2" width="150.6" height=".4"/>
                  <rect class="cls-152" x=".2" y="105.8" width="150.6" height=".4"/>
                  <rect class="cls-134" x=".2" y="105.4" width="150.6" height=".4"/>
                  <rect class="cls-150" x=".2" y="105" width="150.6" height=".4"/>
                  <rect class="cls-180" x=".2" y="104.6" width="150.6" height=".4"/>
                  <rect class="cls-89" x=".2" y="104.2" width="150.6" height=".4"/>
                  <rect class="cls-48" x=".2" y="103.8" width="150.6" height=".4"/>
                  <rect class="cls-22" x=".2" y="103.4" width="150.6" height=".4"/>
                  <rect class="cls-16" x=".2" y="103" width="150.6" height=".4"/>
                  <rect class="cls-158" x=".2" y="102.6" width="150.6" height=".4"/>
                  <rect class="cls-95" x=".2" y="102.2" width="150.6" height=".4"/>
                  <rect class="cls-184" x=".2" y="101.8" width="150.6" height=".4"/>
                  <rect class="cls-121" x=".2" y="101.4" width="150.6" height=".4"/>
                  <rect class="cls-187" x=".2" y="101" width="150.6" height=".4"/>
                  <rect class="cls-81" x=".2" y="100.6" width="150.6" height=".4"/>
                  <rect class="cls-108" x=".2" y="100.2" width="150.6" height=".4"/>
                  <rect class="cls-140" x=".2" y="99.8" width="150.6" height=".4"/>
                  <rect class="cls-33" x=".2" y="99.5" width="150.6" height=".4"/>
                  <rect class="cls-198" x=".2" y="99.1" width="150.6" height=".4"/>
                  <rect class="cls-159" x=".2" y="98.7" width="150.6" height=".4"/>
                  <rect class="cls-96" x=".2" y="98.3" width="150.6" height=".4"/>
                  <rect class="cls-36" x=".2" y="97.9" width="150.6" height=".4"/>
                  <rect class="cls-40" x=".2" y="97.5" width="150.6" height=".4"/>
                  <rect class="cls-139" x=".2" y="97.1" width="150.6" height=".4"/>
                  <rect class="cls-21" x=".2" y="96.7" width="150.6" height=".4"/>
                  <rect class="cls-98" x=".2" y="96.3" width="150.6" height=".4"/>
                  <rect class="cls-208" x=".2" y="95.9" width="150.6" height=".4"/>
                  <rect class="cls-69" x=".2" y="95.5" width="150.6" height=".4"/>
                  <rect class="cls-42" x=".2" y="95.1" width="150.6" height=".4"/>
                  <rect class="cls-66" x=".2" y="94.7" width="150.6" height=".4"/>
                  <rect class="cls-113" x=".2" y="94.3" width="150.6" height=".4"/>
                  <rect class="cls-80" x=".2" y="93.9" width="150.6" height=".4"/>
                  <rect class="cls-170" x=".2" y="93.5" width="150.6" height=".4"/>
                  <rect class="cls-6" x=".2" y="93.1" width="150.6" height=".4"/>
                  <rect class="cls-72" x=".2" y="92.7" width="150.6" height=".4"/>
                  <rect class="cls-174" x=".2" y="92.3" width="150.6" height=".4"/>
                  <rect class="cls-125" x=".2" y="91.9" width="150.6" height=".4"/>
                  <rect class="cls-157" x=".2" y="91.5" width="150.6" height=".4"/>
                  <rect class="cls-62" x=".2" y="91.1" width="150.6" height=".4"/>
                  <rect class="cls-39" x=".2" y="90.7" width="150.6" height=".4"/>
                  <rect class="cls-175" x=".2" y="90.3" width="150.6" height=".4"/>
                  <rect class="cls-117" x=".2" y="89.9" width="150.6" height=".4"/>
                  <rect class="cls-92" x=".2" y="89.5" width="150.6" height=".4"/>
                  <rect class="cls-15" x=".2" y="89.1" width="150.6" height=".4"/>
                  <rect class="cls-26" x=".2" y="88.7" width="150.6" height=".4"/>
                  <rect class="cls-197" x=".2" y="88.3" width="150.6" height=".4"/>
                  <rect class="cls-156" x=".2" y="87.9" width="150.6" height=".4"/>
                  <rect class="cls-5" x=".2" y="87.5" width="150.6" height=".4"/>
                  <rect class="cls-101" x=".2" y="87.1" width="150.6" height=".4"/>
                  <rect class="cls-77" x=".2" y="86.7" width="150.6" height=".4"/>
                  <rect class="cls-182" x=".2" y="86.3" width="150.6" height=".4"/>
                  <rect class="cls-169" x=".2" y="85.9" width="150.6" height=".4"/>
                  <rect class="cls-49" x=".2" y="85.5" width="150.6" height=".4"/>
                  <rect class="cls-195" x=".2" y="85.1" width="150.6" height=".4"/>
                  <rect class="cls-122" x=".2" y="84.7" width="150.6" height=".4"/>
                  <rect class="cls-126" x=".2" y="84.3" width="150.6" height=".4"/>
                  <rect class="cls-3" x=".2" y="83.9" width="150.6" height=".4"/>
                  <rect class="cls-164" x=".2" y="83.5" width="150.6" height=".4"/>
                  <rect class="cls-44" x=".2" y="83.1" width="150.6" height=".4"/>
                  <rect class="cls-4" x=".2" y="82.7" width="150.6" height=".4"/>
                  <rect class="cls-24" x=".2" y="82.3" width="150.6" height=".4"/>
                  <rect class="cls-90" x=".2" y="81.9" width="150.6" height=".4"/>
                  <rect class="cls-166" x=".2" y="81.5" width="150.6" height=".4"/>
                  <rect class="cls-163" x=".2" y="81.1" width="150.6" height=".4"/>
                  <rect class="cls-200" x=".2" y="80.7" width="150.6" height=".4"/>
                  <rect class="cls-54" x=".2" y="80.3" width="150.6" height=".4"/>
                  <rect class="cls-165" x=".2" y="79.9" width="150.6" height=".4"/>
                  <rect class="cls-93" x=".2" y="79.5" width="150.6" height=".4"/>
                  <rect class="cls-194" x=".2" y="79.2" width="150.6" height=".4"/>
                  <rect class="cls-179" x=".2" y="78.8" width="150.6" height=".4"/>
                  <rect class="cls-114" x=".2" y="78.4" width="150.6" height=".4"/>
                  <rect class="cls-185" x=".2" y="78" width="150.6" height=".4"/>
                  <rect class="cls-103" x=".2" y="77.6" width="150.6" height=".4"/>
                  <rect class="cls-176" x=".2" y="77.2" width="150.6" height=".4"/>
                  <rect class="cls-45" x=".2" y="76.8" width="150.6" height=".4"/>
                  <rect class="cls-74" x=".2" y="76.4" width="150.6" height=".4"/>
                  <rect class="cls-118" x=".2" y="76" width="150.6" height=".4"/>
                  <rect class="cls-9" x=".2" y="75.6" width="150.6" height=".4"/>
                  <rect class="cls-201" x=".2" y="75.2" width="150.6" height=".4"/>
                  <rect class="cls-190" x=".2" y="74.8" width="150.6" height=".4"/>
                  <rect class="cls-199" x=".2" y="74.4" width="150.6" height=".4"/>
                  <rect class="cls-88" x=".2" y="74" width="150.6" height=".4"/>
                  <rect class="cls-56" x=".2" y="73.6" width="150.6" height=".4"/>
                  <rect class="cls-131" x=".2" y="73.2" width="150.6" height=".4"/>
                  <rect class="cls-186" x=".2" y="72.8" width="150.6" height=".4"/>
                  <rect class="cls-161" x=".2" y="72.4" width="150.6" height=".4"/>
                  <rect class="cls-71" x=".2" y="72" width="150.6" height=".4"/>
                  <rect class="cls-119" x=".2" y="71.6" width="150.6" height=".4"/>
                  <rect class="cls-57" x=".2" y="71.2" width="150.6" height=".4"/>
                  <rect class="cls-135" x=".2" y="70.8" width="150.6" height=".4"/>
                  <rect class="cls-60" x=".2" y="70.4" width="150.6" height=".4"/>
                  <rect class="cls-70" x=".2" y="70" width="150.6" height=".4"/>
                  <rect class="cls-83" x=".2" y="69.6" width="150.6" height=".4"/>
                  <rect class="cls-168" x=".2" y="69.2" width="150.6" height=".4"/>
                  <rect class="cls-116" x=".2" y="68.8" width="150.6" height=".4"/>
                  <rect class="cls-35" x=".2" y="68.4" width="150.6" height=".4"/>
                  <rect class="cls-67" x=".2" y="68" width="150.6" height=".4"/>
                  <rect class="cls-196" x=".2" y="67.6" width="150.6" height=".4"/>
                  <rect class="cls-41" x=".2" y="67.2" width="150.6" height=".4"/>
                  <rect class="cls-32" x=".2" y="66.8" width="150.6" height=".4"/>
                  <rect class="cls-63" x=".2" y="66.4" width="150.6" height=".4"/>
                  <rect class="cls-104" x=".2" y="66" width="150.6" height=".4"/>
                  <rect class="cls-20" x=".2" y="65.6" width="150.6" height=".4"/>
                  <rect class="cls-111" x=".2" y="65.2" width="150.6" height=".4"/>
                  <rect class="cls-2" x=".2" y="64.8" width="150.6" height=".4"/>
                  <rect class="cls-155" x=".2" y="64.4" width="150.6" height=".4"/>
                  <rect class="cls-178" x=".2" y="64" width="150.6" height=".4"/>
                  <rect class="cls-145" x=".2" y="63.6" width="150.6" height=".4"/>
                  <rect class="cls-31" x=".2" y="63.2" width="150.6" height=".4"/>
                  <rect class="cls-189" x=".2" y="62.8" width="150.6" height=".4"/>
                  <rect class="cls-162" x=".2" y="62.4" width="150.6" height=".4"/>
                  <rect class="cls-61" x=".2" y="62" width="150.6" height=".4"/>
                  <rect class="cls-79" x=".2" y="61.6" width="150.6" height=".4"/>
                  <rect class="cls-151" x=".2" y="61.2" width="150.6" height=".4"/>
                  <rect class="cls-173" x=".2" y="60.8" width="150.6" height=".4"/>
                  <rect class="cls-84" x=".2" y="60.4" width="150.6" height=".4"/>
                  <rect class="cls-138" x=".2" y="60" width="150.6" height=".4"/>
                  <rect class="cls-171" x=".2" y="59.6" width="150.6" height=".4"/>
                  <rect class="cls-206" x=".2" y="59.3" width="150.6" height=".4"/>
                  <rect class="cls-105" x=".2" y="58.9" width="150.6" height=".4"/>
                  <rect class="cls-37" x=".2" y="58.5" width="150.6" height=".4"/>
                  <rect class="cls-137" x=".2" y="58.1" width="150.6" height=".4"/>
                  <rect class="cls-107" x=".2" y="57.7" width="150.6" height=".4"/>
                  <rect class="cls-109" x=".2" y="57.3" width="150.6" height=".4"/>
                  <rect class="cls-78" x=".2" y="56.9" width="150.6" height=".4"/>
                  <rect class="cls-73" x=".2" y="56.5" width="150.6" height=".4"/>
                  <rect class="cls-94" x=".2" y="56.1" width="150.6" height=".4"/>
                  <rect class="cls-12" x=".2" y="55.7" width="150.6" height=".4"/>
                  <rect class="cls-29" x=".2" y="55.3" width="150.6" height=".4"/>
                  <rect class="cls-7" x=".2" y="54.9" width="150.6" height=".4"/>
                  <rect class="cls-18" x=".2" y="54.5" width="150.6" height=".4"/>
                  <rect class="cls-106" x=".2" y="54.1" width="150.6" height=".4"/>
                  <rect class="cls-100" x=".2" y="53.7" width="150.6" height=".4"/>
                  <rect class="cls-85" x=".2" y="53.3" width="150.6" height=".4"/>
                  <rect class="cls-146" x=".2" y="52.9" width="150.6" height=".4"/>
                  <rect class="cls-141" x=".2" y="52.5" width="150.6" height=".4"/>
                  <rect class="cls-43" x=".2" y="52.1" width="150.6" height=".4"/>
                  <rect class="cls-207" x=".2" y="51.7" width="150.6" height=".4"/>
                  <rect class="cls-91" x=".2" y="51.3" width="150.6" height=".4"/>
                  <rect class="cls-25" x=".2" y="50.9" width="150.6" height=".4"/>
                  <rect class="cls-147" x=".2" y="50.5" width="150.6" height=".4"/>
                  <rect class="cls-68" x=".2" y="50.1" width="150.6" height=".4"/>
                  <rect class="cls-47" x=".2" y="49.7" width="150.6" height=".4"/>
                  <rect class="cls-28" x=".2" y="49.3" width="150.6" height=".4"/>
                  <rect class="cls-97" x=".2" y="48.9" width="150.6" height=".4"/>
                  <rect class="cls-129" x=".2" y="48.5" width="150.6" height=".4"/>
                  <rect class="cls-46" x=".2" y="48.1" width="150.6" height=".4"/>
                  <rect class="cls-30" x=".2" y="47.7" width="150.6" height=".4"/>
                  <rect class="cls-120" x=".2" y="47.3" width="150.6" height=".4"/>
                  <rect class="cls-205" x=".2" y="46.9" width="150.6" height=".4"/>
                  <rect class="cls-128" x=".2" y="46.5" width="150.6" height=".4"/>
                  <rect class="cls-183" x=".2" y="46.1" width="150.6" height=".4"/>
                  <rect class="cls-132" x=".2" y="45.7" width="150.6" height=".4"/>
                  <rect class="cls-17" x=".2" y="45.3" width="150.6" height=".4"/>
                  <rect class="cls-130" x=".2" y="44.9" width="150.6" height=".4"/>
                  <rect class="cls-127" x=".2" y="44.5" width="150.6" height=".4"/>
                  <rect class="cls-110" x=".2" y="44.1" width="150.6" height=".4"/>
                  <rect class="cls-115" x=".2" y="43.7" width="150.6" height=".4"/>
                  <rect class="cls-188" x=".2" y="43.3" width="150.6" height=".4"/>
                  <rect class="cls-52" x=".2" y="42.9" width="150.6" height=".4"/>
                  <rect class="cls-53" x=".2" y="42.5" width="150.6" height=".4"/>
                  <rect class="cls-11" x=".2" y="42.1" width="150.6" height=".4"/>
                  <rect class="cls-82" x=".2" y="41.7" width="150.6" height=".4"/>
                  <rect class="cls-149" x=".2" y="41.3" width="150.6" height=".4"/>
                  <rect class="cls-14" x=".2" y="40.9" width="150.6" height=".4"/>
                  <rect class="cls-51" x=".2" y="40.5" width="150.6" height=".4"/>
                  <rect class="cls-99" x=".2" y="40.1" width="150.6" height=".4"/>
                  <rect class="cls-144" x=".2" y="39.7" width="150.6" height=".4"/>
                  <rect class="cls-148" x=".2" y="39.3" width="150.6" height=".4"/>
                  <rect class="cls-27" x=".2" y="39" width="150.6" height=".4"/>
                  <rect class="cls-193" x=".2" y="38.6" width="150.6" height=".4"/>
                  <rect class="cls-23" x=".2" y="38.2" width="150.6" height=".4"/>
                  <rect class="cls-102" x=".2" y="37.8" width="150.6" height=".4"/>
                  <rect class="cls-202" x=".2" y="37.4" width="150.6" height=".4"/>
                  <rect class="cls-154" x=".2" y="37" width="150.6" height=".4"/>
                  <rect class="cls-59" x=".2" y="36.6" width="150.6" height=".4"/>
                  <rect class="cls-181" x=".2" y="36.2" width="150.6" height=".4"/>
                  <rect class="cls-181" x=".2" y="0" width="150.6" height="36.2"/>
                </g>
              </g>
            </g>
          </g>
        </g>
      </g>
    </g>
  </g>
</svg>