<svg xmlns="http://www.w3.org/2000/svg" width="13" height="16" viewBox="0 0 13 16">
  <path id="Icon_awesome-trash-alt" data-name="Icon awesome-trash-alt" d="M.929,14.5A1.449,1.449,0,0,0,2.321,16h8.357a1.449,1.449,0,0,0,1.393-1.5V4H.929Zm7.893-8a.466.466,0,1,1,.929,0v7a.466.466,0,1,1-.929,0Zm-2.786,0a.466.466,0,1,1,.929,0v7a.466.466,0,1,1-.929,0ZM3.25,6.5a.466.466,0,1,1,.929,0v7a.466.466,0,1,1-.929,0ZM12.536,1H9.054L8.781.416A.693.693,0,0,0,8.157,0H4.84a.685.685,0,0,0-.621.416L3.946,1H.464A.483.483,0,0,0,0,1.5v1A.483.483,0,0,0,.464,3H12.536A.483.483,0,0,0,13,2.5v-1A.483.483,0,0,0,12.536,1Z" transform="translate(0 0)" fill="#707070"/>
</svg>
