<?xml version="1.0" encoding="UTF-8"?>
<svg xmlns="http://www.w3.org/2000/svg" xmlns:xlink="http://www.w3.org/1999/xlink" viewBox="0 0 150 78.4">
  <defs>
    <style>
      .cls-1 {
        fill: #fff;
      }

      .cls-2 {
        fill: url(#_흰색_검정);
      }

      .cls-3 {
        opacity: .7;
      }

      .cls-3, .cls-4 {
        mix-blend-mode: multiply;
      }

      .cls-5 {
        fill: #989898;
      }

      .cls-6 {
        fill: url(#_무제_그라디언트_20);
      }

      .cls-7 {
        fill: #b2b2b2;
      }

      .cls-8 {
        isolation: isolate;
      }

      .cls-9 {
        fill: #4d4d4d;
      }

      .cls-4 {
        opacity: .9;
      }

      .cls-10 {
        fill: #333;
      }

      .cls-11 {
        fill: none;
        stroke: #333;
        stroke-width: 2px;
      }

      .cls-12 {
        fill: #5c6875;
      }
    </style>
    <linearGradient id="_무제_그라디언트_20" data-name="무제 그라디언트 20" x1="74.7" y1="62.6" x2="74.7" y2="-13.1" gradientUnits="userSpaceOnUse">
      <stop offset="0" stop-color="#fff" stop-opacity="0"/>
      <stop offset=".5" stop-color="#585858" stop-opacity=".7"/>
      <stop offset="1" stop-color="#000"/>
    </linearGradient>
    <linearGradient id="_흰색_검정" data-name="흰색, 검정" x1="74.7" y1="62.6" x2="74.7" y2="-13.1" gradientUnits="userSpaceOnUse">
      <stop offset="0" stop-color="#fff"/>
      <stop offset="1" stop-color="#000"/>
    </linearGradient>
  </defs>
  <g class="cls-8">
    <g id="_레이어_2" data-name="레이어 2">
      <g id="_레이어_1-2" data-name="레이어 1">
        <g>
          <g>
            <g>
              <rect class="cls-12" x="2" y="2" width="146" height="26"/>
              <path class="cls-7" d="m147,3v24H3V3h144m2-2H1v28h148V1h0Z"/>
              <rect class="cls-11" x="1" y="1" width="148" height="28"/>
            </g>
            <g>
              <rect class="cls-10" x="11" y="10" width="128" height="10"/>
              <path class="cls-5" d="m139,10v10H11v-10h128m1-1H10v12h130v-12h0Z"/>
            </g>
          </g>
          <g>
            <polygon class="cls-1" points="134.9 15 146.2 74.1 139.7 78.4 132.4 73.6 125.1 78.4 117.9 73.6 110.6 78.4 103.3 73.6 96 78.4 88.7 73.6 81.4 78.4 74.1 73.6 66.8 78.4 59.5 73.6 52.3 78.4 45 73.6 37.7 78.4 30.4 73.6 23.1 78.4 15.8 73.6 8.5 78.4 3.2 73.7 14.6 15 134.9 15"/>
            <g class="cls-4">
              <polygon class="cls-1" points="132.4 73 125.1 77.8 117.9 73 110.6 77.8 103.3 73 96 77.8 88.7 73 81.4 77.8 74.1 73 66.8 77.8 59.5 73 52.3 77.8 45 73 37.7 77.8 30.4 73 23.1 77.8 15.8 73 8.6 77.8 3.7 73.6 15 15.5 134.4 15.5 145.7 73.9 139.7 77.8 132.4 73"/>
              <path class="cls-9" d="m134,16l11.1,57.7-5.4,3.5-6.7-4.4-.6-.4-.5.4-6.7,4.4-6.7-4.4-.6-.4-.5.4-6.7,4.4-6.7-4.4-.5-.4-.6.4-6.7,4.4-6.7-4.4-.6-.4-.6.4-6.7,4.4-6.7-4.4-.6-.4-.6.4-6.7,4.4-6.7-4.4-.6-.4-.5.4-6.7,4.4-6.7-4.4-.5-.4-.6.4-6.7,4.4-6.7-4.4-.6-.4-.6.4-6.7,4.4-6.7-4.4-.6-.4-.6.4-6.6,4.4-4.3-3.8L15.4,16h118.7m.8-1H14.6L3.2,73.7l5.3,4.7,7.3-4.8,7.3,4.8,7.3-4.8,7.3,4.8,7.3-4.8,7.3,4.8,7.3-4.8,7.3,4.8,7.3-4.8,7.3,4.8,7.3-4.8,7.3,4.8,7.3-4.8,7.3,4.8,7.3-4.8,7.3,4.8,7.3-4.8,7.3,4.8,6.5-4.3-11.3-59.1h0Z"/>
            </g>
          </g>
          <g class="cls-3">
            <g>
              <polygon class="cls-6" points="132.4 72.4 125.1 77.2 117.9 72.4 110.6 77.2 103.3 72.4 96 77.2 88.7 72.4 81.4 77.2 74.1 72.4 66.8 77.2 59.5 72.4 52.3 77.2 45 72.4 37.7 77.2 30.4 72.4 23.1 77.2 15.8 72.4 8.6 77.1 4.3 73.4 15.4 16 134 16 145.1 73.7 139.7 77.2 132.4 72.4"/>
              <path class="cls-9" d="m133.2,17l10.8,56.2-4.3,2.8-6.2-4.1-1.1-.7-1.1.7-6.2,4.1-6.2-4.1-1.1-.7-1.1.7-6.2,4.1-6.2-4.1-1.1-.7-1.1.7-6.2,4.1-6.2-4.1-1.1-.7-1.1.7-6.2,4.1-6.2-4.1-1.1-.7-1.1.7-6.2,4.1-6.2-4.1-1.1-.7-1.1.7-6.2,4.1-6.2-4.1-1.1-.7-1.1.7-6.2,4.1-6.2-4.1-1.1-.7-1.1.7-6.2,4.1-6.2-4.1-1.1-.7-1.1.7-6,4-3.3-2.9,10.8-56h117m1.7-2H14.6L3.2,73.7l5.3,4.7,7.3-4.8,7.3,4.8,7.3-4.8,7.3,4.8,7.3-4.8,7.3,4.8,7.3-4.8,7.3,4.8,7.3-4.8,7.3,4.8,7.3-4.8,7.3,4.8,7.3-4.8,7.3,4.8,7.3-4.8,7.3,4.8,7.3-4.8,7.3,4.8,6.5-4.3-11.3-59.1h0Z"/>
            </g>
            <g class="cls-4">
              <polygon class="cls-2" points="132.4 72.4 125.1 77.2 117.9 72.4 110.6 77.2 103.3 72.4 96 77.2 88.7 72.4 81.4 77.2 74.1 72.4 66.8 77.2 59.5 72.4 52.3 77.2 45 72.4 37.7 77.2 30.4 72.4 23.1 77.2 15.8 72.4 8.6 77.1 4.3 73.4 15.4 16 134 16 145.1 73.7 139.7 77.2 132.4 72.4"/>
              <path class="cls-9" d="m133.2,17l10.8,56.2-4.3,2.8-6.2-4.1-1.1-.7-1.1.7-6.2,4.1-6.2-4.1-1.1-.7-1.1.7-6.2,4.1-6.2-4.1-1.1-.7-1.1.7-6.2,4.1-6.2-4.1-1.1-.7-1.1.7-6.2,4.1-6.2-4.1-1.1-.7-1.1.7-6.2,4.1-6.2-4.1-1.1-.7-1.1.7-6.2,4.1-6.2-4.1-1.1-.7-1.1.7-6.2,4.1-6.2-4.1-1.1-.7-1.1.7-6.2,4.1-6.2-4.1-1.1-.7-1.1.7-6,4-3.3-2.9,10.8-56h117m1.7-2H14.6L3.2,73.7l5.3,4.7,7.3-4.8,7.3,4.8,7.3-4.8,7.3,4.8,7.3-4.8,7.3,4.8,7.3-4.8,7.3,4.8,7.3-4.8,7.3,4.8,7.3-4.8,7.3,4.8,7.3-4.8,7.3,4.8,7.3-4.8,7.3,4.8,7.3-4.8,7.3,4.8,6.5-4.3-11.3-59.1h0Z"/>
            </g>
          </g>
          <g>
            <path class="cls-9" d="m35,37.9c0,.2-.1.3-.3.3-.5,0-1,0-1.5,0-.1,0-.2-.1-.2-.3.1-.9.3-1.8.4-2.8-1.2,0-2.3,0-3.5,0-.4.5-.9.9-1.5,1.2-.6.3-1.1.4-1.8.4-.6,0-1.1-.1-1.5-.4-.4-.3-.8-.6-1.1-1.1-.3-.5-.4-1-.5-1.7,0-.6,0-1.4.1-2.1.1-.7.4-1.4.7-2.1.3-.7.7-1.2,1.1-1.7.4-.5.9-.9,1.4-1.1.5-.3,1.1-.4,1.6-.4.7,0,1.3.2,1.8.6.5.4.8.9,1.1,1.6,1,0,2.1,0,3.1,0,.1-.9.3-1.8.4-2.6,0-.2.1-.3.3-.3.5,0,.9,0,1.4,0,.1,0,.2,0,.2.3-.6,4.1-1.2,8.2-1.7,12.3Zm-5.2-6.4c.2-.9,0-1.7-.2-2.2-.3-.5-.8-.8-1.4-.8-.6,0-1.2.3-1.7.8-.5.5-.8,1.3-1,2.2-.2.9-.1,1.7.2,2.2.3.5.8.8,1.4.8.7,0,1.2-.3,1.7-.8.5-.5.8-1.3,1-2.2Zm4.6,11.4c0,.6-.3,1.2-.6,1.8-.3.5-.8,1-1.3,1.4-.5.4-1.1.7-1.8.9-.7.2-1.4.3-2.1.3-.8,0-1.5-.1-2.1-.3-.6-.2-1.1-.5-1.5-.9-.4-.4-.6-.8-.8-1.4-.1-.5-.1-1.1,0-1.8.1-.6.3-1.2.7-1.8.3-.5.7-1,1.2-1.4.5-.4,1.1-.7,1.7-.9.6-.2,1.4-.3,2.1-.3.7,0,1.4.1,1.9.3.6.2,1.1.5,1.5.9.4.4.7.8.9,1.4.2.5.2,1.1.1,1.8Zm-2,0c0-.4,0-.7,0-1-.1-.3-.3-.5-.6-.7-.3-.2-.6-.3-.9-.4-.4-.1-.7-.1-1.1-.2-.9,0-1.7.2-2.3.6-.6.4-1,1-1.1,1.7,0,.4,0,.7,0,1,.1.3.3.5.5.7.2.2.5.3.9.4.4,0,.8.1,1.2.1.4,0,.8,0,1.2-.1.4,0,.7-.2,1.1-.4.3-.2.6-.4.8-.7.2-.3.3-.6.4-1Zm-.7-11.5c0,.3-.1.5-.2.8,0,.3-.2.5-.2.8.9,0,1.7,0,2.6,0,.1-.9.3-1.8.4-2.6-.8,0-1.6,0-2.5,0,0,.4,0,.7,0,1.1Z"/>
            <path class="cls-9" d="m52.1,38.9c0,0,0,.2-.1.2,0,0-.1.1-.2.1h-6.3c-.3,2.5-.5,5-.8,7.6,0,.2-.1.3-.3.3-.5,0-1,0-1.5,0-.2,0-.2-.1-.2-.3.3-2.5.6-5,.8-7.6h-6.3c0,0-.1,0-.2-.1,0,0,0-.2,0-.2,0-.5.1-1,.2-1.5,0,0,0-.2,0-.2,0,0,.1-.1.2-.1h14.5c0,0,.1,0,.2.1,0,0,0,.2,0,.2,0,.5,0,1-.1,1.5Zm-12.5-4c0,0-.2,0-.2,0,0,0-.1,0-.1-.1-.1-.5-.2-1-.4-1.5,0-.1,0-.2,0-.3,0,0,.1-.2.2-.2.8-.3,1.6-.7,2.2-1.1.7-.4,1.3-.9,1.8-1.5.5-.6.9-1.2,1.3-2,.3-.7.6-1.6.8-2.6,0-.1,0-.2.1-.3,0,0,.1-.1.2-.1.4,0,.9,0,1.3,0,.1,0,.2.1.2.4,0,.5-.1.9-.2,1.3,0,.6.3,1.2.5,1.8s.6,1.1,1,1.5c.4.5.9.9,1.4,1.2.5.3,1.1.6,1.6.8,0,0,.1,0,.2.2,0,0,0,.2,0,.3-.2.5-.4,1-.6,1.5,0,.2-.2.3-.4.2-.5-.1-1-.4-1.5-.7-.5-.3-1-.7-1.4-1.1-.4-.4-.8-.9-1.2-1.4-.3-.5-.6-1-.8-1.5-.6,1.2-1.5,2.2-2.5,3-1,.8-2.2,1.5-3.5,1.9Z"/>
            <path class="cls-9" d="m67.9,37.1c0,0,0,.2,0,.3,0,0-.1.1-.2.1-4.8,0-9.7,0-14.5,0-.2,0-.2-.1-.2-.4,0-.5,0-1,.1-1.5,0-.2.1-.3.3-.3,4.8,0,9.6,0,14.4,0,0,0,.1,0,.2.1,0,0,0,.1,0,.2,0,.5,0,1,0,1.5Zm-2.5-10.2c0,.5-.2,1-.7,1.6-.2.3-.5.6-.8.9-.3.3-.6.6-1,.9.3.1.6.2.9.3.3.1.7.2,1,.3.3.1.7.2,1,.3.3,0,.7.2.9.2,0,0,.2,0,.2.1,0,0,0,.2,0,.3-.1.4-.3.8-.4,1.3,0,0,0,.2-.1.2,0,0-.1,0-.2,0-.4,0-.8-.2-1.2-.3-.4-.1-.9-.3-1.4-.5-.5-.2-.9-.4-1.4-.6-.5-.2-.9-.4-1.3-.6-.9.5-1.9.9-2.9,1.3-1,.4-2,.7-3,.9,0,0-.2,0-.2,0,0,0,0-.1-.1-.2,0-.5-.1-.9-.2-1.4,0,0,0-.2,0-.3,0,0,0-.1.2-.2.8-.2,1.6-.5,2.4-.8.7-.3,1.4-.5,2-.8.6-.3,1.2-.6,1.7-.9.5-.3,1-.7,1.4-1,0,0,.1-.1.2-.2,0,0,0,0,.1-.1,0,0,0,0,0,0,0,0-.1,0-.2,0-2,0-3.9,0-5.9,0-.1,0-.2-.1-.2-.3,0-.5,0-1,.1-1.5,0-.2,0-.3.2-.3,2.6,0,5.1,0,7.7,0,.8,0,1.3.3,1.3,1Zm0,16.3c0,1.3-.5,2.3-1.5,3-1,.7-2.3,1.1-4.1,1.1-1.7,0-3.1-.4-4-1.1-.9-.7-1.3-1.7-1.2-3,0-1.2.6-2.2,1.6-3,1-.7,2.3-1.1,4-1.1,1.7,0,3,.4,3.9,1.1.9.7,1.3,1.7,1.3,3Zm-1.9,0c0-.6-.2-1-.8-1.4-.6-.4-1.4-.6-2.5-.6-1.1,0-2,.2-2.6.6-.6.4-.9.9-1,1.4,0,.5.2,1,.8,1.4.6.4,1.4.6,2.5.6,1.1,0,2-.2,2.6-.6.6-.4.9-.9.9-1.4Z"/>
            <path class="cls-9" d="m81.4,44.8c-.1,0-.2,0-.3,0,0,0-.1,0-.2-.2-.9-2.3-1.8-4.6-2.7-6.8h-1.9c0,2.3,0,4.5,0,6.8,0,.2,0,.3-.2.3h-1.5c-.1,0-.2-.1-.2-.3,0-5.6,0-11.2,0-16.9,0,0,0-.1,0-.2,0,0,0,0,.1,0,1.1,0,2.2,0,3.2,0,1.2,0,2.1.4,2.8,1.2.7.8,1.1,2.1,1.1,3.9,0,1.1-.1,2.1-.5,2.9-.3.8-.8,1.4-1.4,1.8,1,2.5,1.9,4.9,2.9,7.4,0,.2,0,.3-.2.3h-1.4Zm-5-15c0,1.8,0,3.7,0,5.5.5,0,.9,0,1.4,0,.7,0,1.3-.2,1.7-.7.4-.4.6-1.2.6-2.2,0-.9-.2-1.5-.5-2-.3-.5-.8-.7-1.3-.7h-1.8Z"/>
            <path class="cls-9" d="m91.7,38.9c0,.1,0,.2,0,.3,0,0,0,0-.2,0h-5.5c0,1,.4,1.9.8,2.5.4.7,1,1,1.7,1,.4,0,.8,0,1.3-.2.5-.1.9-.4,1.3-.7,0,0,.1,0,.2,0,0,0,0,.2,0,.3,0,.5,0,1.1,0,1.6,0,.1,0,.2,0,.3,0,0,0,.2-.2.2-.3.2-.7.4-1.2.5-.5.1-.9.2-1.4.2-1.4,0-2.5-.6-3.3-1.7-.8-1.1-1.2-2.8-1.2-5.1,0-.8,0-1.7.2-2.5.1-.8.3-1.5.6-2.2.3-.6.7-1.1,1.1-1.5.5-.4,1-.6,1.7-.6.7,0,1.2.2,1.7.5.5.4.9.8,1.2,1.4.3.6.6,1.3.8,2.1.2.8.3,1.7.3,2.6,0,.1,0,.2,0,.4,0,.1,0,.2,0,.3Zm-3.9-5.1c-.3,0-.6,0-.8.3-.2.2-.4.4-.6.7-.2.3-.3.6-.4,1,0,.4-.2.8-.2,1.2,1.3,0,2.5,0,3.8,0,0-.3,0-.6-.2-1,0-.4-.2-.7-.4-1-.2-.3-.4-.6-.6-.8-.2-.2-.5-.3-.8-.3Z"/>
            <path class="cls-9" d="m100.4,44.7c-.1,0-.3.1-.4.2-.2,0-.4,0-.6.1-.2,0-.4,0-.7,0-.2,0-.5,0-.7,0-.7,0-1.4-.3-1.9-.6-.6-.4-1.1-.8-1.5-1.4-.4-.6-.7-1.3-1-2.1-.2-.8-.4-1.7-.4-2.6,0-1,0-1.9.2-2.7.2-.8.4-1.5.8-2.1.4-.6.8-1.1,1.3-1.4.5-.3,1.1-.5,1.8-.5.3,0,.7,0,1,0,.3,0,.7.2,1,.3,0,0,0,0,.1,0,0,0,0,.1,0,.3,0,.5,0,1.1,0,1.6,0,.1,0,.2,0,.2,0,0-.1,0-.2,0-.3-.1-.5-.2-.9-.3-.3,0-.6,0-.9,0-.9,0-1.5.4-1.9,1.2-.4.8-.6,1.9-.5,3.2,0,1.3.4,2.3.9,3.1.5.8,1.2,1.2,2,1.4.8.1,1.5,0,2.1-.2.1,0,.2,0,.2,0,0,0,0,.1,0,.2,0,.5.1,1.1.2,1.6,0,.1,0,.2,0,.3,0,0,0,0-.2.1Z"/>
            <path class="cls-9" d="m109,38.9c0,.1,0,.2,0,.3,0,0,0,0-.1,0h-5.5c.2,1,.5,1.9.9,2.5.5.7,1.1,1,1.8,1,.4,0,.8,0,1.3-.2.5-.1.9-.4,1.2-.7,0,0,.1,0,.2,0,0,0,0,.2,0,.3,0,.5.1,1.1.2,1.6,0,.1,0,.2,0,.3,0,0,0,.2-.2.2-.3.2-.7.4-1.1.5-.4.1-.9.2-1.4.2-1.4,0-2.5-.6-3.4-1.7-.8-1.1-1.3-2.8-1.5-5.1,0-.8,0-1.7,0-2.5,0-.8.3-1.5.5-2.2.3-.6.6-1.1,1-1.5.4-.4,1-.6,1.6-.6.7,0,1.2.2,1.7.5.5.4.9.8,1.3,1.4.4.6.7,1.3.9,2.1.2.8.4,1.7.5,2.6,0,.1,0,.2,0,.4,0,.1,0,.2,0,.3Zm-4.2-5.1c-.3,0-.6,0-.8.3-.2.2-.4.4-.5.7-.1.3-.2.6-.3,1,0,.4-.1.8-.1,1.2,1.3,0,2.5,0,3.8,0,0-.3-.1-.6-.2-1-.1-.4-.3-.7-.4-1-.2-.3-.4-.6-.6-.8-.2-.2-.5-.3-.8-.3Z"/>
            <path class="cls-9" d="m110.7,30.7c-.3,0-.6-.2-.8-.5-.2-.3-.4-.7-.4-1.1,0-.4,0-.8.2-1.1.2-.3.4-.5.7-.5.3,0,.6.2.8.5.3.3.4.7.5,1.1,0,.4,0,.8-.2,1.1-.2.3-.4.5-.7.5Zm1.1,15.3c0,0-.1,0-.2,0,0,0,0-.1,0-.2-.5-4.1-1-8.1-1.5-12.2,0,0,0-.1,0-.2,0,0,0,0,.1,0,.5,0,.9,0,1.4,0,0,0,.1,0,.1,0,0,0,0,.1,0,.2.5,4.1,1,8.1,1.5,12.2,0,0,0,.1,0,.2,0,0,0,0-.1,0h-1.4Z"/>
            <path class="cls-9" d="m120,45.3c-.5,0-.9-.1-1.4-.4-.5-.3-.9-.6-1.2-1.1.2,1.4.4,2.7.6,4.1,0,.1,0,.2,0,.2,0,0,0,0-.1,0h-1.4c0,0-.1,0-.2,0,0,0,0-.1,0-.2-.7-5.2-1.4-10.5-2.1-15.7,0-.2,0-.4.2-.4.4,0,.8,0,1.3,0,.2,0,.2.1.3.4,0,.3,0,.6.1.8.2-.4.5-.8.9-1,.3-.2.7-.4,1.2-.4.6,0,1.1.2,1.6.5.5.3,1,.8,1.4,1.4.4.6.8,1.3,1.1,2.2.3.8.5,1.8.7,2.9.2,1,.2,2,.2,2.8,0,.8-.2,1.5-.4,2.1-.2.6-.6,1-1,1.4-.4.3-1,.5-1.6.5Zm-1.8-11.2c-.3,0-.5,0-.8.3-.2.2-.4.5-.5.9-.1.4-.2.8-.3,1.4,0,.6,0,1.2,0,1.9.2,1.5.6,2.6,1.1,3.4.5.7,1.1,1.1,1.7,1.1.7,0,1.2-.4,1.4-1.2.3-.8.3-1.9,0-3.3-.2-1.5-.6-2.6-1.1-3.4-.5-.7-1.1-1.1-1.7-1.1Z"/>
            <path class="cls-9" d="m130.8,44.6c-.1.1-.4.3-.7.4-.3.1-.7.2-1.1.2-.5,0-.9-.1-1.2-.4-.3-.3-.6-.6-.8-.9-.2-.4-.4-.9-.5-1.4-.1-.5-.3-1.3-.4-2.2-.3-1.9-.7-3.9-1-5.8-.5,0-.9,0-1.4,0,0,0-.1,0-.2,0,0,0,0-.1,0-.2-.1-.6-.2-1.2-.3-1.8,0,0,0-.1,0-.2,0,0,0,0,.1,0h1.4c-.2-1.1-.4-2.2-.6-3.2,0,0,0-.1,0-.2,0,0,0,0,.1,0h1.3c0,0,.1,0,.2,0,0,0,0,.1,0,.2.2,1.1.4,2.2.6,3.2h1.6c0,0,.1,0,.2,0,0,0,0,.1,0,.2.1.6.2,1.2.3,1.8,0,0,0,.1,0,.2,0,0,0,0-.1,0-.5,0-1.1,0-1.6,0,.4,2,.7,4,1.1,6,.2,1,.3,1.7.4,2,0,.3.2.4.4.5.2,0,.4,0,.6,0,.1,0,.3,0,.5-.1.2,0,.3-.1.4-.2,0,0,0,0,.1,0,0,0,0,0,.1.2.1.5.3,1,.4,1.5,0,.1,0,.2,0,.3Z"/>
          </g>
        </g>
      </g>
    </g>
  </g>
</svg>