<?xml version="1.0" encoding="UTF-8"?><svg id="_레이어_2" xmlns="http://www.w3.org/2000/svg" viewBox="0 0 4160.51 369"><defs><style>.cls-1{fill:#1e2777;}.cls-2{fill:#b4c1ba;}.cls-3{fill:#1d2a36;}.cls-4{fill:#e8f4f1;}.cls-5{fill:#b9d2eb;}.cls-6{fill:#b4bac3;}.cls-7{fill:#3b97aa;}.cls-8{fill:#2c3f50;}.cls-9{fill:#ceded8;}.cls-10{fill:#5ae782;}.cls-11{fill:#2b3f50;}.cls-12{fill:#fffefe;}.cls-13{fill:#1e4f84;}</style></defs><g id="_레이어_1-2"><polygon class="cls-5" points="2080.01 345 0 345 0 188.57 10.72 188.57 10.72 281.23 33.51 281.23 33.51 175.16 48.25 175.16 74.38 151.38 74.38 197.1 84.43 197.1 84.43 91.03 113.92 91.03 113.92 66.65 135.36 66.65 135.36 34.95 200.59 34.95 200.59 72.34 222.03 91.85 222.03 249.53 250.62 249.53 250.62 162.56 260.45 153.62 260.45 94.28 269.38 94.28 269.38 153.62 281.89 165 281.89 252.78 299.76 252.78 299.76 160.12 308.7 160.12 308.7 146.3 323.88 146.3 343.99 128.01 343.99 104.85 356.94 104.85 356.94 126.8 368.56 126.8 368.56 104.04 390.9 104.04 390.9 128.42 408.32 144.27 408.32 181.25 418.59 181.25 418.59 168.25 427.53 168.25 427.53 182.88 440.04 194.26 440.04 212.14 454.33 212.14 454.33 43.89 549.04 43.89 549.04 145.49 579.42 173.12 579.42 213.76 592.82 213.76 592.82 185.32 603.99 175.16 641.07 175.16 641.07 186.13 663.41 186.13 687.98 208.48 687.98 181.25 709.2 161.95 811.72 161.95 811.72 169.06 796.53 169.06 796.53 193.44 824.68 219.05 824.68 186.13 835.85 186.13 835.85 243.84 847.46 243.84 847.46 211.33 872.48 211.33 872.48 255.22 894.82 255.22 894.82 173.12 920.73 149.55 945.3 171.91 945.3 239.77 963.84 222.91 963.84 172.31 977.91 172.31 977.91 97.53 1019.01 97.53 1019.01 197.51 1038.89 179.42 1074.4 179.42 1095.96 199.03 1095.96 159.31 1135.16 159.31 1135.16 167.43 1171.79 167.43 1171.79 249.53 1185.19 249.53 1185.19 198.32 1198.6 198.32 1198.6 160.93 1215.57 160.93 1215.57 241.4 1232.55 241.4 1232.55 100.79 1243.27 100.79 1243.27 90.22 1332.62 104.04 1332.62 199.95 1346.91 199.95 1346.91 162.56 1371.04 162.56 1371.04 151.18 1387.12 151.18 1387.12 139.8 1423.75 139.8 1423.75 115.42 1452.34 115.42 1452.34 160.12 1471.11 160.12 1471.11 106.48 1496.12 106.48 1496.12 86.97 1510.42 86.97 1510.42 105.66 1532.76 105.66 1586.37 56.9 1586.37 192.63 1603.34 192.63 1603.34 161.75 1631.04 136.55 1647.12 136.55 1647.12 168.25 1670.35 168.25 1670.35 76.4 1690.01 76.4 1690.01 68.27 1722.17 68.27 1722.17 78.84 1742.72 78.84 1742.72 125.98 1787.84 167.03 1787.84 204.42 1803.48 204.42 1803.48 165.81 1829.39 142.24 1829.39 70.71 1842.79 70.71 1842.79 42.27 1865.13 42.27 1865.13 18.69 1873.17 18.69 1873.17 0 1882.11 0 1882.11 18.69 1899.98 18.69 1899.98 73.96 1950.01 73.96 1950.01 197.51 1971.45 197.51 1971.45 229.21 2006.3 197.51 2006.3 230.83 2027.74 230.83 2027.74 127.61 2080.01 127.61 2080.01 345"/><polygon class="cls-5" points="4160.51 345 2080.5 345 2080.5 188.57 2091.22 188.57 2091.22 281.23 2114 281.23 2114 175.16 2128.75 175.16 2154.88 151.38 2154.88 197.1 2164.93 197.1 2164.93 91.03 2194.42 91.03 2194.42 66.65 2215.86 66.65 2215.86 34.95 2281.08 34.95 2281.08 72.34 2302.53 91.85 2302.53 249.53 2331.12 249.53 2331.12 162.56 2340.95 153.62 2340.95 94.28 2349.88 94.28 2349.88 153.62 2362.39 165 2362.39 252.78 2380.26 252.78 2380.26 160.12 2389.19 160.12 2389.19 146.3 2404.38 146.3 2424.49 128.01 2424.49 104.85 2437.44 104.85 2437.44 126.8 2449.06 126.8 2449.06 104.04 2471.39 104.04 2471.39 128.42 2488.82 144.27 2488.82 181.25 2499.09 181.25 2499.09 168.25 2508.03 168.25 2508.03 182.88 2520.53 194.26 2520.53 212.14 2534.83 212.14 2534.83 43.89 2629.54 43.89 2629.54 145.49 2659.92 173.12 2659.92 213.76 2673.32 213.76 2673.32 185.32 2684.49 175.16 2721.57 175.16 2721.57 186.13 2743.9 186.13 2768.47 208.48 2768.47 181.25 2789.69 161.95 2892.22 161.95 2892.22 169.06 2877.03 169.06 2877.03 193.44 2905.18 219.05 2905.18 186.13 2916.34 186.13 2916.34 243.84 2927.96 243.84 2927.96 211.33 2952.98 211.33 2952.98 255.22 2975.31 255.22 2975.31 173.12 3001.22 149.55 3025.79 171.91 3025.79 239.77 3044.33 222.91 3044.33 172.31 3058.41 172.31 3058.41 97.53 3099.51 97.53 3099.51 197.51 3119.39 179.42 3154.9 179.42 3176.46 199.03 3176.46 159.31 3215.66 159.31 3215.66 167.43 3252.29 167.43 3252.29 249.53 3265.69 249.53 3265.69 198.32 3279.09 198.32 3279.09 160.93 3296.07 160.93 3296.07 241.4 3313.05 241.4 3313.05 100.79 3323.77 100.79 3323.77 90.22 3413.12 104.04 3413.12 199.95 3427.41 199.95 3427.41 162.56 3451.54 162.56 3451.54 151.18 3467.62 151.18 3467.62 139.8 3504.25 139.8 3504.25 115.42 3532.84 115.42 3532.84 160.12 3551.6 160.12 3551.6 106.48 3576.62 106.48 3576.62 86.97 3590.92 86.97 3590.92 105.66 3613.25 105.66 3666.86 56.9 3666.86 192.63 3683.84 192.63 3683.84 161.75 3711.54 136.55 3727.62 136.55 3727.62 168.25 3750.85 168.25 3750.85 76.4 3770.51 76.4 3770.51 68.27 3802.67 68.27 3802.67 78.84 3823.22 78.84 3823.22 125.98 3868.34 167.03 3868.34 204.42 3883.98 204.42 3883.98 165.81 3909.89 142.24 3909.89 70.71 3923.29 70.71 3923.29 42.27 3945.63 42.27 3945.63 18.69 3953.67 18.69 3953.67 0 3962.6 0 3962.6 18.69 3980.47 18.69 3980.47 73.96 4030.51 73.96 4030.51 197.51 4051.95 197.51 4051.95 229.21 4086.8 197.51 4086.8 230.83 4108.24 230.83 4108.24 127.61 4160.51 127.61 4160.51 345"/><rect class="cls-11" x="0" y="345" width="4160.51" height="24"/><polygon class="cls-9" points="3877.83 81.6 3877.83 344.78 3891.48 344.78 3891.48 81.6 3877.83 81.6 3877.83 81.6"/><polygon class="cls-2" points="3905.14 81.6 3891.48 81.6 3891.48 344.78 3905.14 344.78 3905.14 81.6 3905.14 81.6"/><path class="cls-10" d="m3971.2,175.9c-1.6,0-2.91,1.3-2.91,2.91s1.31,2.91,2.91,2.91h26.55v-5.82h-26.55Z"/><path class="cls-7" d="m4024.3,175.9h-26.55v5.82h26.55c1.61,0,2.91-1.3,2.91-2.91s-1.3-2.91-2.91-2.91h0Z"/><path class="cls-8" d="m3936.83,319.11h-.91c-8.05-.23-13.75-3.17-16.92-8.72-7.53-13.18.96-38.1,10.53-55.44,11.7-21.21,7.15-42.31,7.1-42.52-.16-.71.29-1.42,1-1.58.71-.16,1.42.28,1.58.99.2.9,4.84,22.25-7.36,44.37-9.97,18.06-17.09,41.41-10.55,52.85,2.69,4.7,7.64,7.19,14.7,7.39,6.72.18,11.55-1.89,14.32-6.19,7.49-11.62-1.25-36.25-2.76-39.35l.07-1.28,1.12-.62h18.66c.73,0,1.32.59,1.32,1.32s-.59,1.32-1.32,1.32h-16.75c2.4,6.54,9.44,28.32,1.88,40.04-3.17,4.92-8.45,7.41-15.7,7.41h0Z"/><path class="cls-3" d="m3941.27,216.89l.03,1.89c.01.86-.67,1.55-1.52,1.57l-2.13.03c-.86.02-1.55-.67-1.56-1.52l-.03-1.89,5.22-.07h0Z"/><path class="cls-3" d="m3945.59,216.25c-.57-1.05-2.08-4.12-2.22-5.58l.18-.47c.73-.84,3.01-1.34,3.49-1.36l-.03-1.54c-.31,0-3.33.44-4.61,1.86-.44.49-.64,1.06-.58,1.66.21,2.07,2.31,5.99,2.39,6.16l1.36-.73h0Z"/><polygon class="cls-6" points="3946.76 195.47 3950.41 189.54 3957.63 185.52 3956.29 183.13 3948.76 187.32 3948.26 187.8 3944.43 194.03 3946.76 195.47 3946.76 195.47"/><path class="cls-10" d="m3939.49,206.28l.8-.82,5.37-.08.82.8.12,9.07-.79.82-5.37.07-.82-.79-.12-9.07h0Zm-4.89-3.09l.18,13.03c.02.86.71,1.53,1.56,1.52l10.97-.15c.85-.02,1.53-.71,1.52-1.56l-.18-13.04c-.01-.85-.71-1.53-1.56-1.52l-10.97.15c-.85,0-1.53.71-1.52,1.56h0Z"/><polygon class="cls-3" points="3934.61 203.83 3932.71 201.03 3934.8 196.23 3941.91 192.49 3948.7 196.78 3948.66 203.64 3934.61 203.83 3934.61 203.83"/><polygon class="cls-3" points="3942.42 193.63 3943.44 192.16 3944.55 191.95 3948.2 194.46 3948.41 195.57 3947.39 197.05 3942.42 193.63 3942.42 193.63"/><polygon class="cls-7" points="3967.5 278.01 3955.01 278.01 3955.01 262.68 3967.5 262.68 3967.5 278.01 3967.5 278.01"/><polygon class="cls-10" points="3959.26 244.21 3959.26 332.49 3997.75 332.49 3997.75 244.21 3959.26 244.21 3959.26 244.21"/><path class="cls-13" d="m3997.75,178.21h-32.93c-3.07,0-5.56,2.49-5.56,5.56v60.44h38.49v-66h0Z"/><path class="cls-1" d="m4036.23,244.21v-60.44c0-3.07-2.49-5.56-5.56-5.56h-32.93v66h38.48Z"/><polygon class="cls-7" points="3997.75 244.21 3997.75 332.49 4036.23 332.49 4036.23 244.21 3997.75 244.21 3997.75 244.21"/><polygon class="cls-4" points="3997.75 190.27 3997.75 231.87 3997.83 231.87 3997.83 190.27 3997.75 190.27 3997.75 190.27"/><path class="cls-12" d="m3997.75,190.41h-27.68c-3.07,0-5.56,2.49-5.56,5.56v23.27h33.24v-28.83h0Z"/><path class="cls-12" d="m3997.75,216.52h-33.24v10.02c0,3.07,2.49,5.55,5.56,5.55h27.76v-.08h-.08v-15.49h0Z"/><path class="cls-4" d="m3997.83,219.24h33.23v-23.35c0-3.07-2.48-5.56-5.56-5.56h-27.75v.08h.08v28.83h0Z"/><path class="cls-4" d="m3997.83,216.52v15.49h27.67c3.07,0,5.56-2.49,5.56-5.56v-9.94h-33.23Z"/><polygon class="cls-1" points="3946.52 328.42 3946.52 345 3997.75 345 3997.75 328.42 3946.52 328.42 3946.52 328.42"/><polygon class="cls-13" points="4048.98 328.42 3997.75 328.42 3997.75 345 4048.98 345 4048.98 328.42 4048.98 328.42"/><path class="cls-10" d="m3788.17,175.9c-1.61,0-2.91,1.3-2.91,2.91s1.3,2.91,2.91,2.91h26.55v-5.82h-26.55Z"/><path class="cls-7" d="m3841.27,175.9h-26.55v5.82h26.55c1.61,0,2.91-1.3,2.91-2.91s-1.3-2.91-2.91-2.91h0Z"/><path class="cls-8" d="m3753.81,319.11h-.92c-8.05-.23-13.74-3.17-16.92-8.72-7.53-13.18.96-38.1,10.52-55.44,11.7-21.21,7.15-42.31,7.1-42.52-.16-.71.29-1.42,1-1.58.71-.16,1.41.28,1.58.99.2.9,4.84,22.25-7.36,44.37-9.97,18.06-17.09,41.41-10.55,52.85,2.69,4.7,7.63,7.19,14.7,7.39,6.72.18,11.55-1.89,14.32-6.19,7.49-11.62-1.26-36.25-2.76-39.35l.07-1.28,1.12-.62h18.66c.73,0,1.32.59,1.32,1.32s-.59,1.32-1.32,1.32h-16.75c2.4,6.54,9.43,28.32,1.88,40.04-3.17,4.92-8.45,7.41-15.7,7.41h0Z"/><path class="cls-3" d="m3758.24,216.89l.03,1.89c.01.86-.67,1.55-1.52,1.57l-2.14.03c-.85.02-1.55-.67-1.56-1.52l-.03-1.89,5.22-.07h0Z"/><path class="cls-3" d="m3762.56,216.25c-.56-1.05-2.07-4.12-2.22-5.58l.18-.47c.73-.84,3.02-1.34,3.5-1.36l-.03-1.54c-.3,0-3.33.44-4.6,1.86-.44.49-.64,1.06-.58,1.66.21,2.07,2.31,5.99,2.39,6.16l1.36-.73h0Z"/><polygon class="cls-6" points="3763.73 195.47 3767.38 189.54 3774.6 185.52 3773.26 183.13 3765.73 187.32 3765.23 187.8 3761.4 194.03 3763.73 195.47 3763.73 195.47"/><path class="cls-10" d="m3756.46,206.28l.8-.82,5.37-.08.82.8.12,9.07-.8.82-5.37.07-.82-.79-.12-9.07h0Zm-4.89-3.09l.18,13.03c.01.86.71,1.53,1.56,1.52l10.97-.15c.85-.02,1.53-.71,1.52-1.56l-.17-13.04c-.02-.85-.71-1.53-1.56-1.52l-10.97.15c-.85,0-1.53.71-1.52,1.56h0Z"/><polygon class="cls-3" points="3751.58 203.83 3749.68 201.03 3751.77 196.23 3758.88 192.49 3765.68 196.78 3765.63 203.64 3751.58 203.83 3751.58 203.83"/><polygon class="cls-3" points="3759.39 193.63 3760.41 192.16 3761.52 191.95 3765.17 194.46 3765.38 195.57 3764.36 197.05 3759.39 193.63 3759.39 193.63"/><polygon class="cls-7" points="3784.46 278.01 3771.98 278.01 3771.98 262.68 3784.46 262.68 3784.46 278.01 3784.46 278.01"/><polygon class="cls-10" points="3776.23 244.21 3776.23 332.49 3814.72 332.49 3814.72 244.21 3776.23 244.21 3776.23 244.21"/><path class="cls-13" d="m3814.72,178.21h-32.93c-3.07,0-5.56,2.49-5.56,5.56v60.44h38.48v-66h0Z"/><path class="cls-1" d="m3853.21,244.21v-60.44c0-3.07-2.49-5.56-5.56-5.56h-32.93v66h38.49Z"/><polygon class="cls-7" points="3814.72 244.21 3814.72 332.49 3853.21 332.49 3853.21 244.21 3814.72 244.21 3814.72 244.21"/><polygon class="cls-4" points="3814.72 190.27 3814.72 231.87 3814.8 231.87 3814.8 190.27 3814.72 190.27 3814.72 190.27"/><path class="cls-12" d="m3814.72,190.41h-27.67c-3.07,0-5.56,2.49-5.56,5.56v23.27h33.23v-28.83h0Z"/><path class="cls-12" d="m3814.72,216.52h-33.23v10.02c0,3.07,2.49,5.55,5.56,5.55h27.76v-.08h-.08v-15.49h0Z"/><path class="cls-4" d="m3814.8,219.24h33.23v-23.35c0-3.07-2.49-5.56-5.56-5.56h-27.76v.08h.08v28.83h0Z"/><path class="cls-4" d="m3814.8,216.52v15.49h27.67c3.07,0,5.56-2.49,5.56-5.56v-9.94h-33.23Z"/><polygon class="cls-1" points="3763.49 328.42 3763.49 345 3814.72 345 3814.72 328.42 3763.49 328.42 3763.49 328.42"/><polygon class="cls-13" points="3865.95 328.42 3814.72 328.42 3814.72 345 3865.95 345 3865.95 328.42 3865.95 328.42"/><polygon class="cls-8" points="3727.18 67.31 3727.18 117.07 3891.77 117.07 3891.77 67.31 3727.18 67.31 3727.18 67.31"/><polygon class="cls-3" points="4056.35 67.31 3891.77 67.31 3891.77 117.07 4056.35 117.07 4056.35 67.31 4056.35 67.31"/><polygon class="cls-10" points="3727.18 67.31 3727.18 94.87 3891.77 94.87 3891.77 67.31 3727.18 67.31 3727.18 67.31"/><polygon class="cls-7" points="4056.35 67.31 3891.77 67.31 3891.77 94.87 4056.35 94.87 4056.35 67.31 4056.35 67.31"/></g></svg>