<svg xmlns="http://www.w3.org/2000/svg" width="160" height="160" viewBox="0 0 160 160">
    <g data-name="그룹 2">
        <g data-name="타원 1" style="stroke:#126e5c;stroke-width:4px;fill:none">
            <circle cx="80" cy="80" r="80" style="stroke:none"/>
            <circle cx="80" cy="80" r="78" style="fill:none"/>
        </g>
    </g>
    <path data-name="Icon ionic-ios-hand" d="M79.924 20.341a5.126 5.126 0 0 0-5.166 5.043v26.783a2.179 2.179 0 0 1-4.358 0V12.654a5.167 5.167 0 0 0-10.331 0V43.7a2.179 2.179 0 0 1-4.358 0V8.418a5.167 5.167 0 0 0-10.331 0v39.513a2.179 2.179 0 0 1-4.358 0V16.889a5.167 5.167 0 0 0-10.331 0v53.443l-6.806-5.778C17.5 59 12.086 56.622 7.679 60.711 4.717 63.6 9.368 68.276 14.24 73.735c4.7 5.264 17.137 22.5 27.738 28.717a19.113 19.113 0 0 0 9.94 2.791h14c11.286 0 19.194-9.279 19.194-22.817V25.384a5.164 5.164 0 0 0-5.188-5.043z" transform="translate(28.25 25.625)" style="fill:#0e8a72"/>
</svg>
