<svg xmlns="http://www.w3.org/2000/svg" width="279.002" height="279" viewBox="0 0 279.002 279">
    <path data-name="Icon ionic-ios-hand" d="M257.934 48.176c-9.748 0-17.732 6.012-17.732 13.317v70.725c0 3.1-3.362 5.624-7.479 5.624s-7.479-2.521-7.479-5.624V27.877c0-7.305-7.984-13.317-17.732-13.317s-17.732 6.012-17.732 13.317v81.973c0 3.1-3.362 5.624-7.479 5.624s-7.479-2.521-7.479-5.624V16.692c0-7.305-7.984-13.317-17.732-13.317s-17.732 6.012-17.732 13.317v104.342c0 3.1-3.362 5.624-7.479 5.624s-7.479-2.521-7.479-5.624V39.061c0-7.305-7.984-13.317-17.732-13.317s-17.735 6.011-17.735 13.317v141.126L65.571 164.93c-21.934-14.675-40.506-20.946-55.633-10.15-10.169 7.628 5.8 19.976 22.522 34.393 16.135 13.9 58.827 59.411 95.215 75.832 0 0 14.034 7.37 34.12 7.37h48.07c38.742 0 65.886-24.5 65.886-60.252V61.493c-.084-7.305-8.068-13.317-17.817-13.317z" transform="translate(-1.749 1.625)" style="fill:#00788B;stroke:#fff;stroke-width:10px"/>
</svg>
