<?xml version="1.0" encoding="UTF-8"?><svg id="_레이어_2" xmlns="http://www.w3.org/2000/svg" viewBox="0 0 6241.01 369"><defs><style>.cls-1{fill:#1e2777;}.cls-2{fill:#b4c1ba;}.cls-3{fill:#1d2a36;}.cls-4{fill:#e8f4f1;}.cls-5{fill:#b9d2eb;}.cls-6{fill:#b4bac3;}.cls-7{fill:#3b97aa;}.cls-8{fill:#2c3f50;}.cls-9{fill:#ceded8;}.cls-10{fill:#5ae782;}.cls-11{fill:#2b3f50;}.cls-12{fill:#fffefe;}.cls-13{fill:#1e4f84;}</style></defs><g id="_레이어_1-2"><polygon class="cls-5" points="2080.01 345 0 345 0 188.57 10.72 188.57 10.72 281.23 33.51 281.23 33.51 175.16 48.25 175.16 74.38 151.38 74.38 197.1 84.43 197.1 84.43 91.03 113.92 91.03 113.92 66.65 135.36 66.65 135.36 34.95 200.59 34.95 200.59 72.34 222.03 91.85 222.03 249.53 250.62 249.53 250.62 162.56 260.45 153.62 260.45 94.28 269.38 94.28 269.38 153.62 281.89 165 281.89 252.78 299.76 252.78 299.76 160.12 308.7 160.12 308.7 146.3 323.88 146.3 343.99 128.01 343.99 104.85 356.94 104.85 356.94 126.8 368.56 126.8 368.56 104.04 390.9 104.04 390.9 128.42 408.32 144.27 408.32 181.25 418.59 181.25 418.59 168.25 427.53 168.25 427.53 182.88 440.04 194.26 440.04 212.14 454.33 212.14 454.33 43.89 549.04 43.89 549.04 145.49 579.42 173.12 579.42 213.76 592.82 213.76 592.82 185.32 603.99 175.16 641.07 175.16 641.07 186.13 663.41 186.13 687.98 208.48 687.98 181.25 709.2 161.95 811.72 161.95 811.72 169.06 796.53 169.06 796.53 193.44 824.68 219.05 824.68 186.13 835.85 186.13 835.85 243.84 847.46 243.84 847.46 211.33 872.48 211.33 872.48 255.22 894.82 255.22 894.82 173.12 920.73 149.55 945.3 171.91 945.3 239.77 963.84 222.91 963.84 172.31 977.91 172.31 977.91 97.53 1019.01 97.53 1019.01 197.51 1038.89 179.42 1074.4 179.42 1095.96 199.03 1095.96 159.31 1135.16 159.31 1135.16 167.43 1171.79 167.43 1171.79 249.53 1185.19 249.53 1185.19 198.32 1198.6 198.32 1198.6 160.93 1215.57 160.93 1215.57 241.4 1232.55 241.4 1232.55 100.79 1243.27 100.79 1243.27 90.22 1332.62 104.04 1332.62 199.95 1346.91 199.95 1346.91 162.56 1371.04 162.56 1371.04 151.18 1387.12 151.18 1387.12 139.8 1423.75 139.8 1423.75 115.42 1452.34 115.42 1452.34 160.12 1471.11 160.12 1471.11 106.48 1496.12 106.48 1496.12 86.97 1510.42 86.97 1510.42 105.66 1532.76 105.66 1586.37 56.9 1586.37 192.63 1603.34 192.63 1603.34 161.75 1631.04 136.55 1647.12 136.55 1647.12 168.25 1670.35 168.25 1670.35 76.4 1690.01 76.4 1690.01 68.27 1722.17 68.27 1722.17 78.84 1742.72 78.84 1742.72 125.98 1787.84 167.03 1787.84 204.42 1803.48 204.42 1803.48 165.81 1829.39 142.24 1829.39 70.71 1842.79 70.71 1842.79 42.27 1865.13 42.27 1865.13 18.69 1873.17 18.69 1873.17 0 1882.11 0 1882.11 18.69 1899.98 18.69 1899.98 73.96 1950.01 73.96 1950.01 197.51 1971.45 197.51 1971.45 229.21 2006.3 197.51 2006.3 230.83 2027.74 230.83 2027.74 127.61 2080.01 127.61 2080.01 345"/><polygon class="cls-5" points="6241.01 345 4161 345 4161 188.57 4171.72 188.57 4171.72 281.23 4194.51 281.23 4194.51 175.16 4209.25 175.16 4235.38 151.38 4235.38 197.1 4245.43 197.1 4245.43 91.03 4274.92 91.03 4274.92 66.65 4296.36 66.65 4296.36 34.95 4361.59 34.95 4361.59 72.34 4383.03 91.85 4383.03 249.53 4411.62 249.53 4411.62 162.56 4421.45 153.62 4421.45 94.28 4430.38 94.28 4430.38 153.62 4442.89 165 4442.89 252.78 4460.76 252.78 4460.76 160.12 4469.7 160.12 4469.7 146.3 4484.88 146.3 4504.99 128.01 4504.99 104.85 4517.94 104.85 4517.94 126.8 4529.56 126.8 4529.56 104.04 4551.9 104.04 4551.9 128.42 4569.32 144.27 4569.32 181.25 4579.59 181.25 4579.59 168.25 4588.53 168.25 4588.53 182.88 4601.04 194.26 4601.04 212.14 4615.33 212.14 4615.33 43.89 4710.04 43.89 4710.04 145.49 4740.42 173.12 4740.42 213.76 4753.82 213.76 4753.82 185.32 4764.99 175.16 4802.07 175.16 4802.07 186.13 4824.41 186.13 4848.98 208.48 4848.98 181.25 4870.2 161.95 4972.72 161.95 4972.72 169.06 4957.53 169.06 4957.53 193.44 4985.68 219.05 4985.68 186.13 4996.85 186.13 4996.85 243.84 5008.46 243.84 5008.46 211.33 5033.48 211.33 5033.48 255.22 5055.82 255.22 5055.82 173.12 5081.73 149.55 5106.3 171.91 5106.3 239.77 5124.84 222.91 5124.84 172.31 5138.91 172.31 5138.91 97.53 5180.01 97.53 5180.01 197.51 5199.89 179.42 5235.4 179.42 5256.96 199.03 5256.96 159.31 5296.16 159.31 5296.16 167.43 5332.79 167.43 5332.79 249.53 5346.19 249.53 5346.19 198.32 5359.6 198.32 5359.6 160.93 5376.57 160.93 5376.57 241.4 5393.55 241.4 5393.55 100.79 5404.27 100.79 5404.27 90.22 5493.62 104.04 5493.62 199.95 5507.91 199.95 5507.91 162.56 5532.04 162.56 5532.04 151.18 5548.12 151.18 5548.12 139.8 5584.75 139.8 5584.75 115.42 5613.34 115.42 5613.34 160.12 5632.11 160.12 5632.11 106.48 5657.12 106.48 5657.12 86.97 5671.42 86.97 5671.42 105.66 5693.76 105.66 5747.37 56.9 5747.37 192.63 5764.34 192.63 5764.34 161.75 5792.04 136.55 5808.12 136.55 5808.12 168.25 5831.35 168.25 5831.35 76.4 5851.01 76.4 5851.01 68.27 5883.17 68.27 5883.17 78.84 5903.72 78.84 5903.72 125.98 5948.84 167.03 5948.84 204.42 5964.48 204.42 5964.48 165.81 5990.39 142.24 5990.39 70.71 6003.79 70.71 6003.79 42.27 6026.13 42.27 6026.13 18.69 6034.17 18.69 6034.17 0 6043.11 0 6043.11 18.69 6060.98 18.69 6060.98 73.96 6111.01 73.96 6111.01 197.51 6132.45 197.51 6132.45 229.21 6167.3 197.51 6167.3 230.83 6188.74 230.83 6188.74 127.61 6241.01 127.61 6241.01 345"/><polygon class="cls-5" points="2080.5 345 4160.51 345 4160.51 188.57 4149.79 188.57 4149.79 281.23 4127 281.23 4127 175.16 4112.26 175.16 4086.13 151.38 4086.13 197.1 4076.07 197.1 4076.07 91.03 4046.59 91.03 4046.59 66.65 4025.15 66.65 4025.15 34.95 3959.92 34.95 3959.92 72.34 3938.48 91.85 3938.48 249.53 3909.89 249.53 3909.89 162.56 3900.06 153.62 3900.06 94.28 3891.13 94.28 3891.13 153.62 3878.62 165 3878.62 252.78 3860.75 252.78 3860.75 160.12 3851.81 160.12 3851.81 146.3 3836.62 146.3 3816.52 128.01 3816.52 104.85 3803.56 104.85 3803.56 126.8 3791.95 126.8 3791.95 104.04 3769.61 104.04 3769.61 128.42 3752.19 144.27 3752.19 181.25 3741.92 181.25 3741.92 168.25 3732.98 168.25 3732.98 182.88 3720.47 194.26 3720.47 212.14 3706.18 212.14 3706.18 43.89 3611.47 43.89 3611.47 145.49 3581.09 173.12 3581.09 213.76 3567.69 213.76 3567.69 185.32 3556.52 175.16 3519.44 175.16 3519.44 186.13 3497.1 186.13 3472.53 208.48 3472.53 181.25 3451.31 161.95 3348.79 161.95 3348.79 169.06 3363.98 169.06 3363.98 193.44 3335.83 219.05 3335.83 186.13 3324.66 186.13 3324.66 243.84 3313.05 243.84 3313.05 211.33 3288.03 211.33 3288.03 255.22 3265.69 255.22 3265.69 173.12 3239.78 149.55 3215.21 171.91 3215.21 239.77 3196.67 222.91 3196.67 172.31 3182.6 172.31 3182.6 97.53 3141.5 97.53 3141.5 197.51 3121.62 179.42 3086.1 179.42 3064.55 199.03 3064.55 159.31 3025.35 159.31 3025.35 167.43 2988.72 167.43 2988.72 249.53 2975.31 249.53 2975.31 198.32 2961.91 198.32 2961.91 160.93 2944.93 160.93 2944.93 241.4 2927.96 241.4 2927.96 100.79 2917.24 100.79 2917.24 90.22 2827.89 104.04 2827.89 199.95 2813.59 199.95 2813.59 162.56 2789.47 162.56 2789.47 151.18 2773.39 151.18 2773.39 139.8 2736.76 139.8 2736.76 115.42 2708.16 115.42 2708.16 160.12 2689.4 160.12 2689.4 106.48 2664.38 106.48 2664.38 86.97 2650.09 86.97 2650.09 105.66 2627.75 105.66 2574.14 56.9 2574.14 192.63 2557.17 192.63 2557.17 161.75 2529.47 136.55 2513.39 136.55 2513.39 168.25 2490.16 168.25 2490.16 76.4 2470.5 76.4 2470.5 68.27 2438.33 68.27 2438.33 78.84 2417.78 78.84 2417.78 125.98 2372.66 167.03 2372.66 204.42 2357.03 204.42 2357.03 165.81 2331.12 142.24 2331.12 70.71 2317.72 70.71 2317.72 42.27 2295.38 42.27 2295.38 18.69 2287.34 18.69 2287.34 0 2278.4 0 2278.4 18.69 2260.53 18.69 2260.53 73.96 2210.5 73.96 2210.5 197.51 2189.05 197.51 2189.05 229.21 2154.21 197.51 2154.21 230.83 2132.77 230.83 2132.77 127.61 2080.5 127.61 2080.5 345"/><rect class="cls-11" y="345" width="6241.01" height="24"/><polygon class="cls-9" points="5272.7 81.6 5272.7 344.78 5286.36 344.78 5286.36 81.6 5272.7 81.6 5272.7 81.6"/><polygon class="cls-2" points="5300.01 81.6 5286.36 81.6 5286.36 344.78 5300.01 344.78 5300.01 81.6 5300.01 81.6"/><path class="cls-10" d="m5366.07,175.9c-1.6,0-2.91,1.3-2.91,2.91s1.31,2.91,2.91,2.91h26.55v-5.82h-26.55Z"/><path class="cls-7" d="m5419.17,175.9h-26.55v5.82h26.55c1.61,0,2.91-1.3,2.91-2.91s-1.3-2.91-2.91-2.91h0Z"/><path class="cls-8" d="m5331.71,319.11h-.91c-8.05-.23-13.75-3.17-16.92-8.72-7.53-13.18.96-38.1,10.53-55.44,11.7-21.21,7.15-42.31,7.1-42.52-.16-.71.29-1.42,1-1.58.71-.16,1.42.28,1.58.99.2.9,4.84,22.25-7.36,44.37-9.97,18.06-17.09,41.41-10.55,52.85,2.69,4.7,7.64,7.19,14.7,7.39,6.72.18,11.55-1.89,14.32-6.19,7.49-11.62-1.25-36.25-2.76-39.35l.07-1.28,1.12-.62h18.66c.73,0,1.32.59,1.32,1.32s-.59,1.32-1.32,1.32h-16.75c2.4,6.54,9.44,28.32,1.88,40.04-3.17,4.92-8.45,7.41-15.7,7.41h0Z"/><path class="cls-3" d="m5336.15,216.89l.03,1.89c.01.86-.67,1.55-1.52,1.57l-2.13.03c-.86.02-1.55-.67-1.56-1.52l-.03-1.89,5.22-.07h0Z"/><path class="cls-3" d="m5340.46,216.25c-.57-1.05-2.08-4.12-2.22-5.58l.18-.47c.73-.84,3.01-1.34,3.49-1.36l-.03-1.54c-.31,0-3.33.44-4.61,1.86-.44.49-.64,1.06-.58,1.66.21,2.07,2.31,5.99,2.39,6.16l1.36-.73h0Z"/><polygon class="cls-6" points="5341.64 195.47 5345.28 189.54 5352.5 185.52 5351.17 183.13 5343.63 187.32 5343.14 187.8 5339.3 194.03 5341.64 195.47 5341.64 195.47"/><path class="cls-10" d="m5334.36,206.28l.8-.82,5.37-.08.82.8.12,9.07-.79.82-5.37.07-.82-.79-.12-9.07h0Zm-4.89-3.09l.18,13.03c.02.86.71,1.53,1.56,1.52l10.97-.15c.85-.02,1.53-.71,1.52-1.56l-.18-13.04c-.01-.85-.71-1.53-1.56-1.52l-10.97.15c-.85,0-1.53.71-1.52,1.56h0Z"/><polygon class="cls-3" points="5329.49 203.83 5327.59 201.03 5329.67 196.23 5336.79 192.49 5343.58 196.78 5343.54 203.64 5329.49 203.83 5329.49 203.83"/><polygon class="cls-3" points="5337.3 193.63 5338.32 192.16 5339.42 191.95 5343.08 194.46 5343.28 195.57 5342.27 197.05 5337.3 193.63 5337.3 193.63"/><polygon class="cls-7" points="5362.37 278.01 5349.89 278.01 5349.89 262.68 5362.37 262.68 5362.37 278.01 5362.37 278.01"/><polygon class="cls-10" points="5354.14 244.21 5354.14 332.49 5392.63 332.49 5392.63 244.21 5354.14 244.21 5354.14 244.21"/><path class="cls-13" d="m5392.63,178.21h-32.93c-3.07,0-5.56,2.49-5.56,5.56v60.44h38.49v-66h0Z"/><path class="cls-1" d="m5431.11,244.21v-60.44c0-3.07-2.49-5.56-5.56-5.56h-32.93v66h38.48Z"/><polygon class="cls-7" points="5392.63 244.21 5392.63 332.49 5431.11 332.49 5431.11 244.21 5392.63 244.21 5392.63 244.21"/><polygon class="cls-4" points="5392.63 190.27 5392.63 231.87 5392.7 231.87 5392.7 190.27 5392.63 190.27 5392.63 190.27"/><path class="cls-12" d="m5392.63,190.41h-27.68c-3.07,0-5.56,2.49-5.56,5.56v23.27h33.24v-28.83h0Z"/><path class="cls-12" d="m5392.63,216.52h-33.24v10.02c0,3.07,2.49,5.55,5.56,5.55h27.76v-.08h-.08v-15.49h0Z"/><path class="cls-4" d="m5392.7,219.24h33.23v-23.35c0-3.07-2.48-5.56-5.56-5.56h-27.75v.08h.08v28.83h0Z"/><path class="cls-4" d="m5392.7,216.52v15.49h27.67c3.07,0,5.56-2.49,5.56-5.56v-9.94h-33.23Z"/><polygon class="cls-1" points="5341.4 328.42 5341.4 345 5392.63 345 5392.63 328.42 5341.4 328.42 5341.4 328.42"/><polygon class="cls-13" points="5443.86 328.42 5392.63 328.42 5392.63 345 5443.86 345 5443.86 328.42 5443.86 328.42"/><path class="cls-10" d="m5183.04,175.9c-1.61,0-2.91,1.3-2.91,2.91s1.3,2.91,2.91,2.91h26.55v-5.82h-26.55Z"/><path class="cls-7" d="m5236.14,175.9h-26.55v5.82h26.55c1.61,0,2.91-1.3,2.91-2.91s-1.3-2.91-2.91-2.91h0Z"/><path class="cls-8" d="m5148.68,319.11h-.92c-8.05-.23-13.74-3.17-16.92-8.72-7.53-13.18.96-38.1,10.52-55.44,11.7-21.21,7.15-42.31,7.1-42.52-.16-.71.29-1.42,1-1.58.71-.16,1.41.28,1.58.99.2.9,4.84,22.25-7.36,44.37-9.97,18.06-17.09,41.41-10.55,52.85,2.69,4.7,7.63,7.19,14.7,7.39,6.72.18,11.55-1.89,14.32-6.19,7.49-11.62-1.26-36.25-2.76-39.35l.07-1.28,1.12-.62h18.66c.73,0,1.32.59,1.32,1.32s-.59,1.32-1.32,1.32h-16.75c2.4,6.54,9.43,28.32,1.88,40.04-3.17,4.92-8.45,7.41-15.7,7.41h0Z"/><path class="cls-3" d="m5153.12,216.89l.03,1.89c.01.86-.67,1.55-1.52,1.57l-2.14.03c-.85.02-1.55-.67-1.56-1.52l-.03-1.89,5.22-.07h0Z"/><path class="cls-3" d="m5157.43,216.25c-.56-1.05-2.07-4.12-2.22-5.58l.18-.47c.73-.84,3.02-1.34,3.5-1.36l-.03-1.54c-.3,0-3.33.44-4.6,1.86-.44.49-.64,1.06-.58,1.66.21,2.07,2.31,5.99,2.39,6.16l1.36-.73h0Z"/><polygon class="cls-6" points="5158.61 195.47 5162.25 189.54 5169.47 185.52 5168.14 183.13 5160.61 187.32 5160.11 187.8 5156.28 194.03 5158.61 195.47 5158.61 195.47"/><path class="cls-10" d="m5151.33,206.28l.8-.82,5.37-.08.82.8.12,9.07-.8.82-5.37.07-.82-.79-.12-9.07h0Zm-4.89-3.09l.18,13.03c.01.86.71,1.53,1.56,1.52l10.97-.15c.85-.02,1.53-.71,1.52-1.56l-.17-13.04c-.02-.85-.71-1.53-1.56-1.52l-10.97.15c-.85,0-1.53.71-1.52,1.56h0Z"/><polygon class="cls-3" points="5146.46 203.83 5144.56 201.03 5146.65 196.23 5153.76 192.49 5160.55 196.78 5160.51 203.64 5146.46 203.83 5146.46 203.83"/><polygon class="cls-3" points="5154.27 193.63 5155.28 192.16 5156.39 191.95 5160.05 194.46 5160.25 195.57 5159.24 197.05 5154.27 193.63 5154.27 193.63"/><polygon class="cls-7" points="5179.34 278.01 5166.86 278.01 5166.86 262.68 5179.34 262.68 5179.34 278.01 5179.34 278.01"/><polygon class="cls-10" points="5171.11 244.21 5171.11 332.49 5209.59 332.49 5209.59 244.21 5171.11 244.21 5171.11 244.21"/><path class="cls-13" d="m5209.59,178.21h-32.93c-3.07,0-5.56,2.49-5.56,5.56v60.44h38.48v-66h0Z"/><path class="cls-1" d="m5248.08,244.21v-60.44c0-3.07-2.49-5.56-5.56-5.56h-32.93v66h38.49Z"/><polygon class="cls-7" points="5209.59 244.21 5209.59 332.49 5248.08 332.49 5248.08 244.21 5209.59 244.21 5209.59 244.21"/><polygon class="cls-4" points="5209.59 190.27 5209.59 231.87 5209.67 231.87 5209.67 190.27 5209.59 190.27 5209.59 190.27"/><path class="cls-12" d="m5209.59,190.41h-27.67c-3.07,0-5.56,2.49-5.56,5.56v23.27h33.23v-28.83h0Z"/><path class="cls-12" d="m5209.59,216.52h-33.23v10.02c0,3.07,2.49,5.55,5.56,5.55h27.76v-.08h-.08v-15.49h0Z"/><path class="cls-4" d="m5209.67,219.24h33.23v-23.35c0-3.07-2.49-5.56-5.56-5.56h-27.76v.08h.08v28.83h0Z"/><path class="cls-4" d="m5209.67,216.52v15.49h27.67c3.07,0,5.56-2.49,5.56-5.56v-9.94h-33.23Z"/><polygon class="cls-1" points="5158.36 328.42 5158.36 345 5209.59 345 5209.59 328.42 5158.36 328.42 5158.36 328.42"/><polygon class="cls-13" points="5260.82 328.42 5209.59 328.42 5209.59 345 5260.82 345 5260.82 328.42 5260.82 328.42"/><polygon class="cls-8" points="5122.06 67.31 5122.06 117.07 5286.64 117.07 5286.64 67.31 5122.06 67.31 5122.06 67.31"/><polygon class="cls-3" points="5451.23 67.31 5286.64 67.31 5286.64 117.07 5451.23 117.07 5451.23 67.31 5451.23 67.31"/><polygon class="cls-10" points="5122.06 67.31 5122.06 94.87 5286.64 94.87 5286.64 67.31 5122.06 67.31 5122.06 67.31"/><polygon class="cls-7" points="5451.23 67.31 5286.64 67.31 5286.64 94.87 5451.23 94.87 5451.23 67.31 5451.23 67.31"/></g></svg>