<?xml version="1.0" encoding="UTF-8"?><svg id="_레이어_2" xmlns="http://www.w3.org/2000/svg" viewBox="0 0 282.97 95.64"><defs><style>.cls-1{fill:#72726f;}.cls-2{fill:#f23325;}.cls-3{fill:#f9cc3d;}.cls-4{fill:#97c1bf;}.cls-5{fill:#2b2a25;}.cls-6{fill:#b52c1a;}.cls-7{fill:#434657;}.cls-8{fill:#cbe0df;}.cls-9{fill:#555a6d;}.cls-10{fill:#666;}.cls-11{fill:#fff35a;}</style></defs><g id="_레이어_1-2"><path class="cls-7" d="m210.55,34.16s-6.87-5.2-14.86-12.07c-7.99-6.87-21.54-18.02-29.53-19.69C158.17.73,118.87.35,98.96.35c-22.01,0-46.46-1.67-53.15,2.23-6.69,3.9-28.04,30.09-28.04,30.09l67.98,10.4,124.81-8.92h0Z"/><path class="cls-5" d="m261.81,95.64s20.9-3.06,20.9-5.85,1.39-30.37-2.23-36.22c-3.62-5.85-11.7-13.1-30.65-16.44-18.95-3.34-34.82-3.9-39-3.62-4.18.28-13.93,2.79-43.18,2.5-29.25-.28-149.05-4.74-149.05-4.74,0,0-6.97,6.69-7.8,16.72-.84,10.03-2.51,13.65-2.51,13.65l-5.01,4.46s-1.95,1.67-2.51,6.96c-.56,5.29-2.13,10.64,1.95,14.49,5.02,4.74,11.7,5.29,11.7,5.29l247.4,2.79"/><path class="cls-3" d="m.77,73.07c.56-5.29,2.51-6.96,2.51-6.96l5.01-4.46s.84-3.62,1.67-13.65c.84-10.03,8.64-16.72,8.64-16.72,0,0,119.8,4.46,149.05,4.74,29.25.28,39-2.23,43.18-2.5,4.18-.28,20.06.28,39,3.62,18.95,3.34,27.03,10.58,30.65,16.44,3.62,5.85,2.23,33.43,2.23,36.22s-20.9,5.85-20.9,5.85l-11.23-.13c.87-2.66,1.35-5.5,1.35-8.45,0-14.88-12.07-26.95-26.95-26.95-14.89,0-26.96,12.07-26.96,26.95,0,.04,0,.07,0,.1v.07c0,2.68.36,5.26,1.02,7.7l-123.98-1.39c.51-2.08.78-4.24.78-6.47,0-14.88-12.07-26.95-26.95-26.95s-26.95,12.07-26.95,26.95v.17c0,1.96.19,3.87.56,5.71l-8.09-.09s-6.69-.56-11.7-5.29c-4.08-3.85-2.51-9.19-1.95-14.49"/><path class="cls-10" d="m12.6,83.93c4.18-3.06,3.9-9.75,7.25-16.44,3.34-6.69,11.14-12.82,23.68-14.21,13.03-1.45,26.47,3.34,34.55,11.42,7.49,7.49,9.75,18.66,9.75,18.66l101.13.84s0-8.91,10.31-21.17c10.31-12.26,40.12-10.59,49.87-.28,6.77,7.15,11.14,18.95,11.14,18.95,0,0,9.46.22,12.53-.28,2.6-.42,10.17-3.4,10.17-3.4-.05,5.85-.26,10.68-.26,11.76,0,2.79-20.89,5.85-20.89,5.85l-11.24-.13c.88-2.66,1.35-5.5,1.35-8.45,0-14.88-12.07-26.95-26.95-26.95-14.88,0-26.95,12.07-26.95,26.95,0,.04,0,.07,0,.1v.07c0,2.68.36,5.26,1.02,7.7l-123.98-1.39c.51-2.08.78-4.24.78-6.47,0-14.88-12.07-26.95-26.95-26.95-14.88,0-26.95,12.07-26.95,26.95,0,.04,0,.07,0,.1v.07c0,1.96.19,3.87.56,5.71l-8.09-.09s-6.16-.52-11.09-4.74c3.1-1.02,6.99-2.52,9.25-4.18"/><path class="cls-4" d="m186.44,32.12s-19.22-25.08-22.01-25.91c-2.79-.84-55.44-1.95-55.44-1.11s2.23,25.08,2.23,25.08l75.22,1.95h0Z"/><polygon class="cls-4" points="101.74 5.63 103.69 29.03 36.27 27.92 51.32 4.8 101.74 5.63 101.74 5.63"/><path class="cls-4" d="m262.06,46.38c4.39.51,8.1,3.42,10.63,6.65,3.06,3.9,4.9,8.74.44,8.64-4.27-.1-6.21-3.05-9.92-6.61-3.73-3.58-6.15-9.26-1.15-8.68"/><path class="cls-8" d="m273.37,58.17c.18,0,.32-.05.42-.14.7-.64-.69-3.3-3.1-5.94-2.06-2.25-4.2-3.76-5.22-3.76-.17,0-.32.05-.42.14-.7.64.69,3.3,3.1,5.94,2.06,2.25,4.2,3.76,5.22,3.76"/><path class="cls-1" d="m259.31,46.98l1.02-.43s-2.3,1.96,4.68,9.52c6.04,6.56,10.71,4.51,10.71,4.51l-.17.77s-.51,1.53-4.85.59c-4.34-.94-9.27-7.31-11.31-10.97-2.04-3.66-.08-4-.08-4h0Z"/><path class="cls-6" d="m10.14,46.18s9.47-.22,10.46-.22,2.48,1.09,2.48,2.46-.74,10.14-.99,11.23c-.25,1.09-1.73,2.19-3.47,2.19s-10.41.27-10.41.27l1.93-15.94h0Z"/><polygon class="cls-2" points="20.66 47.69 19.77 59.84 16.22 59.84 17.11 47.57 20.66 47.69 20.66 47.69"/><polygon class="cls-11" points="202.6 39.92 224.33 49.39 18.16 43.26 26.52 34.34 202.6 39.92 202.6 39.92"/><path class="cls-11" d="m183.91,81.87l-91.1-1.26s8.77-6.69,36.77-7.52c28-.84,54.32,8.78,54.32,8.78h0Z"/><path class="cls-5" d="m185.47,84.79l.09-.31c.07-.23,6.65-23.15,6.87-32.86.28-12.58-3.31-16.12-3.46-16.26-.16-.16-.43-.15-.59.02-.15.17-.15.43.02.59.04.04,3.47,3.52,3.2,15.64-.2,8.99-5.96,29.58-6.74,32.34l-77.55-.83c-.97-2.29-8.18-19.8-7.8-31.33.41-12.19,7.37-17.21,7.44-17.26.19-.13.24-.39.1-.58-.13-.19-.39-.24-.58-.1-.3.21-7.38,5.31-7.8,17.92-.42,12.49,7.89,31.74,7.97,31.94l.11.25h.27s78.46.84,78.46.84h0Z"/><path class="cls-5" d="m105.64,45.61c0,.87.71,1.58,1.58,1.59l13.06.03c.87,0,1.58-.7,1.58-1.58,0-.87-.7-1.58-1.58-1.58l-13.06-.03c-.87,0-1.58.7-1.59,1.58h0Z"/><polygon class="cls-9" points="171.16 6.15 202.94 31.53 192.57 32.85 168.73 5.93 171.16 6.15 171.16 6.15"/><path class="cls-11" d="m259.22,70.59s-1.32-5.52-7.72-11.26c-5.13-4.6-18.98-5.96-18.98-5.96l-3.75-3.97s18.13-.48,26.71,5.96c7.94,5.96,9.71,18.98,9.71,18.98l-5.96-3.75h0Z"/></g></svg>