<svg xmlns="http://www.w3.org/2000/svg" width="262.61" height="76.466" viewBox="0 0 262.61 76.466">
    <defs>
        <linearGradient id="tldt5lw9va" x1="1.139" y1=".214" x2="-.266" y2=".797" gradientUnits="objectBoundingBox">
            <stop offset="0" stop-color="#f9be00"/>
            <stop offset="1" stop-color="#c7c300"/>
        </linearGradient>
        <linearGradient id="2ekh73nz2b" x1="-.322" y1=".225" x2=".946" y2=".735" gradientUnits="objectBoundingBox">
            <stop offset="0" stop-color="#c7c300"/>
            <stop offset="1" stop-color="#7fbe26"/>
        </linearGradient>
        <linearGradient id="j1khd9vs8c" x1=".163" y1=".165" x2="1.011" y2=".831" gradientUnits="objectBoundingBox">
            <stop offset="0" stop-color="#7dccf3"/>
            <stop offset="1" stop-color="#00b1c3"/>
        </linearGradient>
        <linearGradient id="xzr4vk7jqd" x1="1.197" y1=".221" x2=".254" y2=".721" gradientUnits="objectBoundingBox">
            <stop offset="0" stop-color="#00b1c3"/>
            <stop offset="1" stop-color="#009d95"/>
        </linearGradient>
        <linearGradient id="fn6f17yxbe" x1=".069" y1=".501" x2=".93" y2=".501" gradientUnits="objectBoundingBox">
            <stop offset="0" stop-color="#0068b6"/>
            <stop offset="1" stop-color="#7dccf3"/>
        </linearGradient>
        <linearGradient id="f7aweb8gqf" y1=".5" x2="1" y2=".5" gradientUnits="objectBoundingBox">
            <stop offset="0" stop-color="#f9be00"/>
            <stop offset=".6" stop-color="#ee7f00"/>
            <stop offset="1" stop-color="#ea6000"/>
        </linearGradient>
        <linearGradient id="air1w0uhsg" x1=".059" y1=".501" x2=".926" y2=".501" gradientUnits="objectBoundingBox">
            <stop offset="0" stop-color="#7fbe26"/>
            <stop offset="1" stop-color="#009d95"/>
        </linearGradient>
    </defs>
    <g data-name="그룹 20">
        <path data-name="패스 18" d="m24.875 258.828-2.726-3.028a38.2 38.2 0 0 0-5.249 19.129h1.867a23.076 23.076 0 0 1 6.107-16.1z" transform="translate(-16.9 -238.488)" style="fill:url(#tldt5lw9va)"/>
        <path data-name="패스 19" d="M24.47 307.276a17.732 17.732 0 0 1-5.6-13.476H17a47.258 47.258 0 0 0 3.634 18.826l3.886-5.3z" transform="translate(-16.95 -257.308)" style="fill:url(#2ekh73nz2b)"/>
        <path data-name="패스 20" d="m147.183 284.1-3.483 3.634c4.845.05 7.823 3.836 7.722 8.58h1.867a15.816 15.816 0 0 0-6.106-12.214z" transform="translate(-79.7 -252.504)" style="fill:url(#j1khd9vs8c)"/>
        <path data-name="패스 21" d="M154.132 308.3h-1.867c-.1 3.937-2.17 7.218-6.864 9.691l4.9 6.763a33.881 33.881 0 0 0 3.831-16.454z" transform="translate(-80.542 -264.49)" style="fill:url(#xzr4vk7jqd)"/>
        <path data-name="패스 22" d="M36.4 277.7a10.869 10.869 0 0 0-.2 2.271c0 11.255 8.378 18.423 18.978 18.423 20.139 0 26.094-16.454 35.129-16.454h.151l3.483-3.634c-4.341-3.584-10.8-5.8-18.624-5.8-15.949 0-24.429 13.325-31.646 13.325s-5.552-3.483-5.552-6.814 0-.707.05-1.009l-1.716-.3z" transform="translate(-26.459 -246.759)" style="fill:url(#fn6f17yxbe)"/>
        <path data-name="패스 23" d="M44.461 235.935c11.659 0 19.735 8.782 30.082 8.782s19.331-6.057 21.1-17.918l-1.867-.3c-.5 3.129-2.574 6.915-6.259 6.915s-7.117-3.028-12.467-5.956c-5.35-3.028-11.508-5.956-19.129-5.956-12.315 0-22.713 7.268-28.618 17.363l2.726 3.028a19.714 19.714 0 0 1 14.435-5.905z" transform="translate(-22.051 -221.5)" style="fill:url(#f7aweb8gqf)"/>
        <path data-name="패스 24" d="M54.99 328.778c-9.035 0-20.391-1.968-27.1-8.278L24 325.8c5.552 12.77 17.413 21.2 35.18 21.2s24.732-4.644 30.99-16.252l-4.9-6.763c-5.8 3.026-15.491 4.793-30.28 4.793z" transform="translate(-20.416 -270.532)" style="fill:url(#air1w0uhsg)"/>
    </g>
    <g data-name="그룹 25">
        <g data-name="그룹 21">
            <path data-name="패스 25" d="M206.22 297.507c-11.659 0-18.12-7.672-18.12-18.978s6.965-19.129 18.322-19.129 8.278 1.06 11.2 2.726l-1.211 7.924a18.057 18.057 0 0 0-9.792-3.129c-6.36 0-9.438 4.694-9.438 11.558s3.18 11.76 9.539 11.76 3.483-.353 4.946-1.161v-6.561h-6.41l-1.06-6.763H219.6v17.867a24.09 24.09 0 0 1-13.426 3.886" transform="translate(-101.691 -240.271)" style="fill:#fff"/>
            <path data-name="패스 26" d="M272.62 297.552a29.961 29.961 0 0 1-12.82-2.776l1.312-7.776c3.785 2.019 7.975 3.432 11.659 3.432s4.442-1.11 4.442-3.281-1.06-3.028-6.208-5c-7.319-2.826-10.549-5.2-10.549-11.306S266.008 260 273.024 260s7.874.909 11.054 2.423l-1.363 7.672a20.017 20.017 0 0 0-9.59-2.978c-2.827 0-4.088 1.161-4.088 2.877s1.009 2.776 5.6 4.543c7.975 2.927 11.2 5.7 11.2 11.558s-5.848 11.505-13.166 11.505" transform="translate(-137.202 -240.568)" style="fill:#fff"/>
        </g>
        <g data-name="그룹 22">
            <path data-name="패스 27" d="M386.437 261.3H382.5v18.12h3.937v-7.72h4.744v-3.533h-4.744z" transform="translate(-197.972 -241.212)" style="fill:#fff"/>
            <path data-name="패스 28" d="M351.444 262.8H332.82v3.533h13.729a13.433 13.433 0 0 1-1.312 3.533H332.82v3.334h9.64c-2.675 2.271-6.561 3.785-11.76 4.492l1.565 2.978c9.435-1.264 18.372-6.362 19.179-17.87z" transform="translate(-172.317 -241.955)" style="fill:#fff"/>
            <path data-name="패스 29" d="M345.788 309.941h20.492V300.2H341.7v3.432h20.643v3.079H341.9v8.076a2 2 0 0 0 1.968 1.968h22.612v-3.432h-20.641v-3.382z" transform="translate(-177.765 -260.478)" style="fill:#fff"/>
        </g>
        <g data-name="그룹 23">
            <path data-name="사각형 14" transform="translate(221.928 20.088)" style="fill:#fff" d="M0 0h3.836v20.088H0z"/>
            <path data-name="패스 30" d="M442.381 281.338V261.3h-3.836v7.722H433.7v3.584h4.845v8.732z" transform="translate(-223.33 -241.212)" style="fill:#fff"/>
            <path data-name="패스 31" d="M421.491 277.084h-11.154V273.2h8.278v-3.331h-8.278v-3.634h9.842V262.8H406.4v15.748a2 2 0 0 0 1.968 1.968h13.123z" transform="translate(-209.809 -241.955)" style="fill:#fff"/>
            <path data-name="패스 32" d="M414.2 307.733h21.249v11h3.937V304.2H414.2z" transform="translate(-213.672 -262.459)" style="fill:#fff"/>
        </g>
        <g data-name="그룹 24">
            <path data-name="패스 33" d="M488.322 262v4.593c0 7.874-6.057 12.517-13.022 13.779l1.716 3.129a20.218 20.218 0 0 0 13.325-8.681 20.218 20.218 0 0 0 13.325 8.681l1.716-3.129c-6.965-1.262-13.022-5.905-13.022-13.779V262h-4.088z" transform="translate(-243.933 -241.559)" style="fill:#fff"/>
            <path data-name="사각형 15" transform="translate(230.307 49.211)" style="fill:#fff" d="M0 0h32.303v3.533H0z"/>
        </g>
    </g>
</svg>
