<?xml version="1.0" encoding="UTF-8"?><svg id="_레이어_2" xmlns="http://www.w3.org/2000/svg" viewBox="0 0 48.89 48.89"><defs><style>.cls-1{fill:#fff;}.cls-2{fill:#455e83;}</style></defs><g id="_레이어_1-2"><path d="m0,24.45c0,13.5,10.94,24.45,24.45,24.45,13.5,0,24.45-10.94,24.45-24.45S37.95,0,24.45,0C10.94,0,0,10.95,0,24.45"/><path class="cls-1" d="m9.54,24.45c0,8.23,6.68,14.91,14.91,14.91s14.91-6.68,14.91-14.91-6.68-14.91-14.91-14.91c-8.23,0-14.91,6.68-14.91,14.91h0Z"/><path class="cls-2" d="m10.75,24.45c0,7.57,6.13,13.7,13.7,13.7,7.56,0,13.7-6.13,13.7-13.7,0-7.56-6.13-13.7-13.7-13.7s-13.7,6.13-13.7,13.7h0Z"/><path d="m14.74,24.45c0,5.36,4.35,9.71,9.71,9.71,5.36,0,9.71-4.35,9.71-9.71s-4.35-9.71-9.71-9.71c-5.36,0-9.71,4.34-9.71,9.71h0Z"/><path class="cls-2" d="m23.04,30.9c0,.78.63,1.4,1.4,1.4s1.4-.63,1.4-1.4v-12.91c0-.77-.63-1.4-1.4-1.4s-1.4.63-1.4,1.4v12.91h0Z"/><path class="cls-2" d="m17.99,22.9c-.77,0-1.4.63-1.4,1.4,0,.77.63,1.4,1.4,1.4h12.91c.77,0,1.4-.63,1.4-1.4s-.63-1.4-1.4-1.4h-12.91Z"/><path class="cls-2" d="m18.84,28.07c-.55.55-.55,1.44,0,1.98.55.55,1.44.55,1.99,0l9.13-9.13c.55-.55.55-1.44,0-1.99-.55-.55-1.44-.55-1.99,0l-9.13,9.13h0Z"/><path class="cls-2" d="m20.92,18.84c-.55-.55-1.44-.55-1.99,0-.55.55-.55,1.44,0,1.99l9.13,9.13c.55.55,1.44.55,1.99,0,.55-.55.55-1.44,0-1.99l-9.13-9.13h0Z"/><path class="cls-2" d="m18.83,24.45c0,3.1,2.51,5.61,5.61,5.61,3.1,0,5.61-2.51,5.61-5.61s-2.51-5.61-5.61-5.61c-3.1,0-5.61,2.51-5.61,5.61h0Z"/><path class="cls-1" d="m23.78,17.82c0,.36.3.66.66.66s.66-.3.66-.66c0-.37-.3-.66-.66-.66s-.66.3-.66.66h0Z"/><path class="cls-1" d="m19.16,19.67c0,.36.3.66.66.66s.66-.3.66-.66c0-.37-.3-.66-.66-.66s-.66.3-.66.66h0Z"/><path class="cls-1" d="m16.96,24.35c0,.37.3.66.66.66s.66-.3.66-.66c0-.37-.3-.66-.66-.66s-.66.3-.66.66h0Z"/><path class="cls-1" d="m18.93,29.37c0,.36.3.66.66.66s.66-.3.66-.66-.3-.66-.66-.66-.66.3-.66.66h0Z"/><path class="cls-1" d="m23.84,31.11c0,.36.3.66.66.66s.66-.3.66-.66c0-.37-.3-.66-.66-.66s-.66.3-.66.66h0Z"/><path class="cls-1" d="m28.46,29.08c0,.37.3.66.66.66s.66-.3.66-.66c0-.37-.3-.66-.66-.66s-.66.3-.66.66h0Z"/><path class="cls-1" d="m30.31,24.4c0,.36.3.66.66.66s.66-.3.66-.66c0-.37-.3-.66-.66-.66s-.66.3-.66.66h0Z"/><path class="cls-1" d="m28.46,19.67c0,.36.3.66.66.66s.66-.3.66-.66-.3-.66-.66-.66-.66.3-.66.66h0Z"/><path class="cls-1" d="m21.36,24.45c0,1.7,1.38,3.08,3.08,3.08s3.08-1.38,3.08-3.08-1.38-3.08-3.08-3.08-3.08,1.38-3.08,3.08h0Z"/></g></svg>